<?xml version="1.0" encoding="UTF-8"?>
<!DOCTYPE svg PUBLIC "-//W3C//DTD SVG 1.1//EN" "http://www.w3.org/Graphics/SVG/1.1/DTD/svg11.dtd">
<svg xmlns="http://www.w3.org/2000/svg" version="1.1" width="500px" height="286px" style="shape-rendering:geometricPrecision; text-rendering:geometricPrecision; image-rendering:optimizeQuality; fill-rule:evenodd; clip-rule:evenodd" xmlns:xlink="http://www.w3.org/1999/xlink">
<g><path style="opacity:0.922" fill="#3d5488" d="M 477.5,1.5 C 324.145,1.17256 170.812,1.5059 17.5,2.5C 18.2625,1.73209 19.2625,1.23209 20.5,1C 173.001,0.167214 325.334,0.333881 477.5,1.5 Z"/></g>
<g><path style="opacity:1" fill="#1e419c" d="M 477.5,1.5 C 484.32,3.56667 488.987,7.9 491.5,14.5C 492.454,35.4733 492.788,56.4733 492.5,77.5C 491.698,76.0484 491.198,74.3817 491,72.5C 490,72.8333 489,73.1667 488,73.5C 487.5,73 487,72.5 486.5,72C 486.243,70.6285 486.577,69.1285 487.5,67.5C 486.452,63.6491 484.119,62.6491 480.5,64.5C 477.118,62.8568 473.451,62.5234 469.5,63.5C 469.34,65.1992 469.506,66.8659 470,68.5C 475.88,63.8642 480.88,64.5309 485,70.5C 485.667,73.1667 485.667,75.8333 485,78.5C 483.359,74.2405 480.859,71.0739 477.5,69C 475.681,68.2172 474.348,68.7172 473.5,70.5C 474.824,71.9347 476.49,72.9347 478.5,73.5C 477.833,73.8333 477.167,74.1667 476.5,74.5C 473.855,73.8924 471.188,73.3924 468.5,73C 466.934,70.0696 466.1,66.9029 466,63.5C 465.329,62.7476 464.496,62.4142 463.5,62.5C 460.415,58.7923 456.415,56.959 451.5,57C 452.167,56.3333 452.833,55.6667 453.5,55C 451.759,53.3804 449.925,51.8804 448,50.5C 445.932,52.3962 444.099,54.3962 442.5,56.5C 441.5,56.5 440.5,56.5 439.5,56.5C 441.175,51.3236 440.341,50.6569 437,54.5C 437.89,47.09 435.057,41.9233 428.5,39C 423.98,38.1864 419.646,38.353 415.5,39.5C 408.268,44.1945 406.268,50.5278 409.5,58.5C 410.219,60.7638 410.552,63.0971 410.5,65.5C 415.03,65.403 419.53,65.7363 424,66.5C 426.379,66.5175 428.546,65.8509 430.5,64.5C 431.689,66.3634 433.022,68.0301 434.5,69.5C 434.5,70.8333 434.5,72.1667 434.5,73.5C 439.075,73.3935 443.408,74.3935 447.5,76.5C 446.456,78.7676 446.289,81.1009 447,83.5C 449.262,85.1022 450.762,87.2689 451.5,90C 450.373,91.0567 449.873,92.2234 450,93.5C 452.706,95.0556 455.54,96.389 458.5,97.5C 458.5,98.8333 458.5,100.167 458.5,101.5C 460.288,101.215 461.955,101.548 463.5,102.5C 462.905,104.44 462.572,106.44 462.5,108.5C 462.556,110.64 463.223,112.306 464.5,113.5C 465.601,117.036 467.268,120.369 469.5,123.5C 466.875,124.458 466.875,125.624 469.5,127C 467.186,128.398 464.853,128.565 462.5,127.5C 461.692,127.808 461.025,128.308 460.5,129C 462.385,130.088 464.385,130.921 466.5,131.5C 472.068,130.381 477.402,128.714 482.5,126.5C 482.667,168.835 482.5,211.168 482,253.5C 481.586,253.043 481.086,252.709 480.5,252.5C 479.667,231.841 479.167,211.175 479,190.5C 477.105,188.565 477.438,186.898 480,185.5C 480.767,181.406 480.434,177.406 479,173.5C 477.48,176.382 476.147,179.382 475,182.5C 472.957,184.208 471.29,186.208 470,188.5C 464.427,190.015 464.094,189.015 469,185.5C 470.536,179.478 473.536,174.478 478,170.5C 478.333,170.833 478.667,171.167 479,171.5C 480.84,166.193 480.84,160.86 479,155.5C 477.616,159.816 476.116,164.15 474.5,168.5C 473.914,168.291 473.414,167.957 473,167.5C 473.401,163.247 474.734,159.247 477,155.5C 477.828,150.798 477.662,146.131 476.5,141.5C 475.34,143.711 474.007,145.711 472.5,147.5C 473.371,144.888 474.037,142.221 474.5,139.5C 465.103,137.533 455.936,134.866 447,131.5C 441.679,146.633 436.845,161.966 432.5,177.5C 431.503,177.47 430.836,177.97 430.5,179C 429.256,182.81 428.089,186.644 427,190.5C 425.667,191.167 424.333,191.833 423,192.5C 423.161,159.151 422.328,126.151 420.5,93.5C 410.833,93.5 401.167,93.5 391.5,93.5C 390.833,124.003 390.167,154.669 389.5,185.5C 388.833,155.003 388.167,124.669 387.5,94.5C 387.5,93.8333 387.167,93.5 386.5,93.5C 378.684,92.5076 370.684,92.1743 362.5,92.5C 362.326,89.1262 361.826,85.7928 361,82.5C 359.989,83.3366 358.822,83.67 357.5,83.5C 357.5,81.5 357.5,79.5 357.5,77.5C 356.178,77.33 355.011,77.6634 354,78.5C 353.517,77.552 353.351,76.552 353.5,75.5C 355.698,75.8799 357.365,75.2132 358.5,73.5C 364.17,69.663 370.17,66.3296 376.5,63.5C 378.857,63.6633 381.19,63.4966 383.5,63C 381.963,61.8904 381.297,60.3904 381.5,58.5C 383.5,58.8333 385.5,59.1667 387.5,59.5C 390.135,60.7294 392.801,60.7294 395.5,59.5C 398.602,52.023 401.602,44.523 404.5,37C 401.773,36.1816 399.106,36.3483 396.5,37.5C 394.951,42.319 393.118,46.9857 391,51.5C 388.579,47.6597 386.412,43.6597 384.5,39.5C 381.914,38.52 379.247,38.1866 376.5,38.5C 375.387,39.9464 375.22,41.6131 376,43.5C 377.167,45.1667 378.333,46.8333 379.5,48.5C 377.956,49.6224 376.623,49.289 375.5,47.5C 374.833,47.8333 374.167,48.1667 373.5,48.5C 372.573,46.8872 371.739,45.2205 371,43.5C 370.612,44.428 369.945,45.0946 369,45.5C 366.578,45.0456 364.078,44.8789 361.5,45C 363.55,44.5838 364.884,43.4171 365.5,41.5C 366.778,39.4558 366.612,37.4558 365,35.5C 364.014,34.8288 362.847,34.8288 361.5,35.5C 359.559,35.1307 357.725,34.464 356,33.5C 355.02,35.0589 354.187,36.7256 353.5,38.5C 351.401,35.0155 348.901,34.6822 346,37.5C 344.883,35.8757 343.383,34.8757 341.5,34.5C 339.573,36.2934 337.239,37.2934 334.5,37.5C 334.5,38.8333 334.5,40.1667 334.5,41.5C 337.316,41.5442 339.649,42.5442 341.5,44.5C 339.98,47.5672 338.313,50.5672 336.5,53.5C 337.966,55.6568 339.8,55.9901 342,54.5C 342.72,56.1124 342.554,57.6124 341.5,59C 342.167,59.3333 342.833,59.6667 343.5,60C 341.101,60.711 338.768,60.5443 336.5,59.5C 333.301,62.0571 329.634,63.0571 325.5,62.5C 325.389,61.8826 325.056,61.3826 324.5,61C 321.167,60.3333 317.833,59.6667 314.5,59C 300.673,57.8353 286.839,56.6686 273,55.5C 269.979,55.5022 267.146,55.8356 264.5,56.5C 262.783,64.2729 261.783,72.2729 261.5,80.5C 261.5,82.5 261.5,84.5 261.5,86.5C 258.947,105.476 256.614,124.476 254.5,143.5C 253.778,143.082 253.278,142.416 253,141.5C 252.415,136.489 251.749,131.489 251,126.5C 250.667,126.833 250.333,127.167 250,127.5C 249.833,131 249.667,134.5 249.5,138C 249.533,144.384 250.533,149.718 252.5,154C 252.333,156.167 252.167,158.333 252,160.5C 251.692,159.692 251.192,159.025 250.5,158.5C 249.506,163.456 249.173,168.456 249.5,173.5C 247.833,173.5 246.167,173.5 244.5,173.5C 244.844,167.902 244.178,162.568 242.5,157.5C 241.615,126.51 240.115,95.5098 238,64.5C 237.768,63.2625 237.268,62.2625 236.5,61.5C 234.833,61.5 233.167,61.5 231.5,61.5C 230.942,60.2101 229.942,59.3768 228.5,59C 216.277,58.8043 204.444,57.6377 193,55.5C 192.5,55.8333 192,56.1667 191.5,56.5C 193.042,58.879 193.709,61.5457 193.5,64.5C 192.83,69.5063 192.163,74.5063 191.5,79.5C 191.135,84.9583 190.135,90.2917 188.5,95.5C 184.2,114.359 179.533,133.025 174.5,151.5C 172.91,149.525 171.743,147.192 171,144.5C 170.667,141.5 170.333,138.5 170,135.5C 169.617,134.944 169.117,134.611 168.5,134.5C 166.431,125.617 165.098,116.617 164.5,107.5C 163.87,95.8684 165.036,84.5351 168,73.5C 168.666,66.5071 169.166,59.5071 169.5,52.5C 170.317,50.0314 170.817,47.3647 171,44.5C 172.825,43.8971 174.659,43.2304 176.5,42.5C 176.291,41.914 175.957,41.414 175.5,41C 169.077,39.8949 162.577,39.3949 156,39.5C 150.323,39.5006 144.823,39.8339 139.5,40.5C 138.736,52.8632 137.736,65.1966 136.5,77.5C 135.833,65.1667 135.167,52.8333 134.5,40.5C 124.833,40.5 115.167,40.5 105.5,40.5C 105.5,78.5 105.5,116.5 105.5,154.5C 104.667,117.669 104.167,80.6689 104,43.5C 103.5,76.165 103.333,108.832 103.5,141.5C 102.167,141.5 100.833,141.5 99.5,141.5C 99.162,144.157 99.8287,146.49 101.5,148.5C 100.965,150.271 100.131,150.604 99,149.5C 98.8333,150.667 98.6667,151.833 98.5,153C 99.8894,156.721 100.556,160.554 100.5,164.5C 89.7059,127.333 79.2059,89.9999 69,52.5C 68.7645,50.8807 67.9311,49.8807 66.5,49.5C 62.6888,48.3547 58.6888,48.1881 54.5,49C 44.6245,50.7299 34.9578,52.5632 25.5,54.5C 22.5525,54.2229 19.7191,54.5562 17,55.5C 15.7434,105.494 14.9101,155.494 14.5,205.5C 13.5058,215.653 13.1724,225.986 13.5,236.5C 12.9515,231.174 12.1182,225.841 11,220.5C 9.2429,221.119 8.07624,222.286 7.5,224C 9.46743,227.166 9.63409,230.333 8,233.5C 7.72158,232.584 7.22158,231.918 6.5,231.5C 6.5,159.167 6.5,86.8333 6.5,14.5C 7.37041,10.9659 9.37041,8.29922 12.5,6.5C 13.8333,5.83333 14.8333,4.83333 15.5,3.5C 15.8417,2.66175 16.5084,2.32842 17.5,2.5C 170.812,1.5059 324.145,1.17256 477.5,1.5 Z"/></g>
<g><path style="opacity:0.765" fill="#8895bb" d="M 15.5,3.5 C 14.8333,4.83333 13.8333,5.83333 12.5,6.5C 12.5,4.5 13.5,3.5 15.5,3.5 Z"/></g>
<g><path style="opacity:1" fill="#2f4790" d="M 139.5,40.5 C 144.823,39.8339 150.323,39.5006 156,39.5C 162.577,39.3949 169.077,39.8949 175.5,41C 175.957,41.414 176.291,41.914 176.5,42.5C 174.659,43.2304 172.825,43.8971 171,44.5C 170.817,47.3647 170.317,50.0314 169.5,52.5C 169.323,48.7657 169.656,45.0991 170.5,41.5C 160.347,40.5058 150.014,40.1724 139.5,40.5 Z"/></g>
<g><path style="opacity:1" fill="#fbf9f1" d="M 170.5,41.5 C 169.656,45.0991 169.323,48.7657 169.5,52.5C 168.383,56.2949 167.717,60.2949 167.5,64.5C 166.034,65.347 165.2,66.6803 165,68.5C 163.592,77.6325 162.426,86.7992 161.5,96C 162.701,104.996 162.701,113.996 161.5,123C 161.486,129.349 162.153,135.515 163.5,141.5C 164.5,141.5 165.5,141.5 166.5,141.5C 164.776,143.914 163.442,146.58 162.5,149.5C 164.5,148.833 166.5,148.167 168.5,147.5C 168.5,149.167 168.5,150.833 168.5,152.5C 166.409,152.682 164.409,152.348 162.5,151.5C 155.303,152.15 148.136,152.817 141,153.5C 140.667,145.5 140.333,137.5 140,129.5C 139.79,127.942 139.29,126.609 138.5,125.5C 138.232,119.618 138.566,113.785 139.5,108C 139.355,107.228 139.022,106.561 138.5,106C 136.5,105.333 134.5,105.333 132.5,106C 131.978,106.561 131.645,107.228 131.5,108C 132.249,114.98 132.916,121.98 133.5,129C 132.813,136.486 132.646,143.986 133,151.5C 124.251,152.484 115.418,152.817 106.5,152.5C 106.5,115.833 106.5,79.1667 106.5,42.5C 115.167,42.5 123.833,42.5 132.5,42.5C 133.126,58.1541 133.293,73.8208 133,89.5C 135.082,92.1496 136.749,91.8163 138,88.5C 139.911,72.9097 140.744,57.2431 140.5,41.5C 150.5,41.5 160.5,41.5 170.5,41.5 Z"/></g>
<g><path style="opacity:1" fill="#f2f5f6" d="M 387.5,59.5 C 383.578,52.6577 379.912,45.6577 376.5,38.5C 379.247,38.1866 381.914,38.52 384.5,39.5C 386.412,43.6597 388.579,47.6597 391,51.5C 393.118,46.9857 394.951,42.319 396.5,37.5C 399.106,36.3483 401.773,36.1816 404.5,37C 401.602,44.523 398.602,52.023 395.5,59.5C 392.801,60.7294 390.135,60.7294 387.5,59.5 Z"/></g>
<g><path style="opacity:1" fill="#e7eefa" d="M 134.5,40.5 C 134.167,56.5139 134.501,72.5139 135.5,88.5C 136.489,84.8927 136.823,81.226 136.5,77.5C 137.736,65.1966 138.736,52.8632 139.5,40.5C 150.014,40.1724 160.347,40.5058 170.5,41.5C 160.5,41.5 150.5,41.5 140.5,41.5C 140.744,57.2431 139.911,72.9097 138,88.5C 136.749,91.8163 135.082,92.1496 133,89.5C 133.293,73.8208 133.126,58.1541 132.5,42.5C 123.833,42.5 115.167,42.5 106.5,42.5C 106.5,79.1667 106.5,115.833 106.5,152.5C 115.418,152.817 124.251,152.484 133,151.5C 132.646,143.986 132.813,136.486 133.5,129C 132.916,121.98 132.249,114.98 131.5,108C 131.645,107.228 131.978,106.561 132.5,106C 134.5,105.333 136.5,105.333 138.5,106C 139.022,106.561 139.355,107.228 139.5,108C 138.566,113.785 138.232,119.618 138.5,125.5C 137.968,119.533 136.968,113.533 135.5,107.5C 134.501,123.152 134.167,138.819 134.5,154.5C 124.833,154.5 115.167,154.5 105.5,154.5C 105.5,116.5 105.5,78.5 105.5,40.5C 115.167,40.5 124.833,40.5 134.5,40.5 Z"/></g>
<g><path style="opacity:1" fill="#2a4496" d="M 376.5,38.5 C 379.912,45.6577 383.578,52.6577 387.5,59.5C 385.5,59.1667 383.5,58.8333 381.5,58.5C 381.297,60.3904 381.963,61.8904 383.5,63C 381.19,63.4966 378.857,63.6633 376.5,63.5C 379.016,60.9737 378.683,58.6403 375.5,56.5C 369.76,59.1189 364.26,62.1189 359,65.5C 357.708,63.7513 356.542,61.918 355.5,60C 360.656,56.9967 365.656,53.8301 370.5,50.5C 369.988,47.4679 368.322,46.3013 365.5,47C 361.239,49.0467 357.072,51.2133 353,53.5C 350.752,52.2635 350.252,50.5969 351.5,48.5C 356.2,46.1079 360.867,43.7745 365.5,41.5C 364.884,43.4171 363.55,44.5838 361.5,45C 364.078,44.8789 366.578,45.0456 369,45.5C 369.945,45.0946 370.612,44.428 371,43.5C 371.739,45.2205 372.573,46.8872 373.5,48.5C 374.167,48.1667 374.833,47.8333 375.5,47.5C 376.623,49.289 377.956,49.6224 379.5,48.5C 378.333,46.8333 377.167,45.1667 376,43.5C 375.22,41.6131 375.387,39.9464 376.5,38.5 Z"/></g>
<g><path style="opacity:1" fill="#2f478f" d="M 66.5,49.5 C 54.1453,51.0859 41.812,52.7526 29.5,54.5C 28.1667,54.5 26.8333,54.5 25.5,54.5C 34.9578,52.5632 44.6245,50.7299 54.5,49C 58.6888,48.1881 62.6888,48.3547 66.5,49.5 Z"/></g>
<g><path style="opacity:1" fill="#f0f3f6" d="M 415.5,39.5 C 429.488,37.7782 436.155,43.7782 435.5,57.5C 428.717,56.2379 422.05,54.5712 415.5,52.5C 414.974,55.8078 416.307,57.9745 419.5,59C 422.275,59.7783 424.775,59.2783 427,57.5C 429.111,58.4721 431.278,59.3054 433.5,60C 428.224,64.7024 422.224,65.7024 415.5,63C 413.34,61.668 411.34,60.168 409.5,58.5C 406.268,50.5278 408.268,44.1945 415.5,39.5 Z"/></g>
<g><path style="opacity:1" fill="#30468c" d="M 419.5,44.5 C 424.494,43.8129 427.494,45.8129 428.5,50.5C 424.789,49.708 421.122,48.708 417.5,47.5C 418.193,46.4822 418.859,45.4822 419.5,44.5 Z"/></g>
<g><path style="opacity:1" fill="#f3f5f5" d="M 365.5,41.5 C 360.867,43.7745 356.2,46.1079 351.5,48.5C 350.252,50.5969 350.752,52.2635 353,53.5C 357.072,51.2133 361.239,49.0467 365.5,47C 368.322,46.3013 369.988,47.4679 370.5,50.5C 365.656,53.8301 360.656,56.9967 355.5,60C 356.542,61.918 357.708,63.7513 359,65.5C 364.26,62.1189 369.76,59.1189 375.5,56.5C 378.683,58.6403 379.016,60.9737 376.5,63.5C 370.17,66.3296 364.17,69.663 358.5,73.5C 356.914,74.4132 355.414,74.4132 354,73.5C 349.515,65.1983 345.015,56.865 340.5,48.5C 340.977,47.5224 341.643,46.6891 342.5,46C 348.895,42.4721 355.229,38.9721 361.5,35.5C 362.847,34.8288 364.014,34.8288 365,35.5C 366.612,37.4558 366.778,39.4558 365.5,41.5 Z"/></g>
<g><path style="opacity:1" fill="#2f4994" d="M 231.5,61.5 C 219.817,60.6803 208.15,59.6803 196.5,58.5C 196.211,65.9525 194.544,72.9525 191.5,79.5C 192.163,74.5063 192.83,69.5063 193.5,64.5C 193.709,61.5457 193.042,58.879 191.5,56.5C 192,56.1667 192.5,55.8333 193,55.5C 204.444,57.6377 216.277,58.8043 228.5,59C 229.942,59.3768 230.942,60.2101 231.5,61.5 Z"/></g>
<g><path style="opacity:1" fill="#2f4690" d="M 264.5,56.5 C 267.146,55.8356 269.979,55.5022 273,55.5C 286.839,56.6686 300.673,57.8353 314.5,59C 317.833,59.6667 321.167,60.3333 324.5,61C 325.056,61.3826 325.389,61.8826 325.5,62.5C 323.5,62.5 321.5,62.5 319.5,62.5C 301.379,59.9199 283.046,57.9199 264.5,56.5 Z"/></g>
<g><path style="opacity:1" fill="#fbf8f2" d="M 66.5,49.5 C 67.9311,49.8807 68.7645,50.8807 69,52.5C 79.2059,89.9999 89.7059,127.333 100.5,164.5C 105.348,183.559 110.348,202.559 115.5,221.5C 115.38,222.586 114.713,223.253 113.5,223.5C 109.998,224.011 106.665,224.678 103.5,225.5C 93.8787,226.911 84.212,227.911 74.5,228.5C 73.1667,228.5 71.8333,228.5 70.5,228.5C 70.7373,227.209 70.404,226.209 69.5,225.5C 69.0512,219.474 68.3845,213.474 67.5,207.5C 64.1013,206.18 60.6013,206.18 57,207.5C 56.3735,213.017 56.8735,218.351 58.5,223.5C 58.4101,225.964 57.7435,228.13 56.5,230C 50.6459,230.665 44.8126,230.499 39,229.5C 33.3876,229.958 27.721,230.958 22,232.5C 20.3005,231.594 18.4672,231.261 16.5,231.5C 17.8573,173.179 18.8573,114.846 19.5,56.5C 23.1595,56.8412 26.4928,56.1745 29.5,54.5C 41.812,52.7526 54.1453,51.0859 66.5,49.5 Z"/></g>
<g><path style="opacity:1" fill="#f3f6f7" d="M 463.5,62.5 C 464.555,65.0728 464.722,67.7395 464,70.5C 460.715,75.4537 457.048,80.1203 453,84.5C 450.876,83.3783 449.043,81.8783 447.5,80C 450.667,76.1667 453.833,72.3333 457,68.5C 457.059,62.8982 454.226,60.3982 448.5,61C 445.266,64.1446 442.266,67.4779 439.5,71C 437.505,71.6128 435.838,71.1128 434.5,69.5C 433.697,68.5768 433.53,67.5768 434,66.5C 436.669,63.0003 439.502,59.667 442.5,56.5C 444.099,54.3962 445.932,52.3962 448,50.5C 449.925,51.8804 451.759,53.3804 453.5,55C 452.833,55.6667 452.167,56.3333 451.5,57C 456.415,56.959 460.415,58.7923 463.5,62.5 Z"/></g>
<g><path style="opacity:1" fill="#edf1fb" d="M 231.5,61.5 C 233.167,61.5 234.833,61.5 236.5,61.5C 236.5,63.5 236.5,65.5 236.5,67.5C 234.744,66.4479 234.077,64.7812 234.5,62.5C 224.771,62.6925 215.105,62.0258 205.5,60.5C 203.5,60.8333 201.5,61.1667 199.5,61.5C 199.709,62.086 200.043,62.586 200.5,63C 196.912,68.8029 195.079,74.9695 195,81.5C 192.699,86.3003 190.532,90.9669 188.5,95.5C 190.135,90.2917 191.135,84.9583 191.5,79.5C 194.544,72.9525 196.211,65.9525 196.5,58.5C 208.15,59.6803 219.817,60.6803 231.5,61.5 Z"/></g>
<g><path style="opacity:1" fill="#fbf8f2" d="M 319.5,62.5 C 321.5,62.5 323.5,62.5 325.5,62.5C 331.521,64.6816 337.521,67.1816 343.5,70C 346.259,71.5288 348.259,73.6955 349.5,76.5C 350.19,80.4677 351.19,84.3011 352.5,88C 352.397,89.5615 352.063,91.0615 351.5,92.5C 351.833,92.8333 352.167,93.1667 352.5,93.5C 353.298,91.9223 353.798,90.2556 354,88.5C 354.167,90.5 354.333,92.5 354.5,94.5C 352.671,109.752 351.171,125.086 350,140.5C 348.987,149.07 347.154,157.403 344.5,165.5C 343.557,168.109 341.89,170.109 339.5,171.5C 338.558,195.077 338.224,218.743 338.5,242.5C 330.431,241.252 322.431,240.086 314.5,239C 309.177,238.501 303.844,238.334 298.5,238.5C 298.5,234.5 298.5,230.5 298.5,226.5C 298.5,223.5 298.5,220.5 298.5,217.5C 299.946,204.36 300.613,191.026 300.5,177.5C 299.081,176.549 297.415,176.216 295.5,176.5C 295.5,177.833 295.5,179.167 295.5,180.5C 294.713,188.822 294.046,197.156 293.5,205.5C 292.206,207.048 291.539,209.048 291.5,211.5C 290.108,219.793 289.108,228.126 288.5,236.5C 282.833,236.5 277.167,236.5 271.5,236.5C 267.4,236.763 263.4,236.43 259.5,235.5C 255.994,234.267 252.327,233.267 248.5,232.5C 249.486,213.997 251.319,195.663 254,177.5C 254.5,168.84 254.666,160.173 254.5,151.5C 255.222,151.918 255.722,152.584 256,153.5C 257.556,132.685 259.723,112.018 262.5,91.5C 261.954,89.8653 261.62,88.1986 261.5,86.5C 261.5,84.5 261.5,82.5 261.5,80.5C 262.158,79.6016 262.824,78.6016 263.5,77.5C 264.496,71.2015 264.83,64.8682 264.5,58.5C 282.846,59.7681 301.179,61.1014 319.5,62.5 Z"/></g>
<g><path style="opacity:1" fill="#faf8f2" d="M 236.5,67.5 C 238.166,92.8183 239.499,118.152 240.5,143.5C 240.377,162.903 241.044,182.236 242.5,201.5C 232.161,200.859 221.827,200.026 211.5,199C 210.688,192.915 210.188,186.748 210,180.5C 207.281,179.556 204.448,179.223 201.5,179.5C 201.5,182.167 201.5,184.833 201.5,187.5C 201.693,191.566 201.36,195.566 200.5,199.5C 192.825,199.32 185.158,198.986 177.5,198.5C 173.688,197.676 169.688,197.176 165.5,197C 165.043,196.586 164.709,196.086 164.5,195.5C 168.219,180.903 171.552,166.237 174.5,151.5C 179.533,133.025 184.2,114.359 188.5,95.5C 190.532,90.9669 192.699,86.3003 195,81.5C 195.079,74.9695 196.912,68.8029 200.5,63C 200.043,62.586 199.709,62.086 199.5,61.5C 201.5,61.1667 203.5,60.8333 205.5,60.5C 215.105,62.0258 224.771,62.6925 234.5,62.5C 234.077,64.7812 234.744,66.4479 236.5,67.5 Z"/></g>
<g><path style="opacity:1" fill="#264397" d="M 361.5,35.5 C 355.229,38.9721 348.895,42.4721 342.5,46C 341.643,46.6891 340.977,47.5224 340.5,48.5C 345.015,56.865 349.515,65.1983 354,73.5C 355.414,74.4132 356.914,74.4132 358.5,73.5C 357.365,75.2132 355.698,75.8799 353.5,75.5C 353.351,76.552 353.517,77.552 354,78.5C 355.011,77.6634 356.178,77.33 357.5,77.5C 357.5,79.5 357.5,81.5 357.5,83.5C 358.822,83.67 359.989,83.3366 361,82.5C 361.826,85.7928 362.326,89.1262 362.5,92.5C 370.684,92.1743 378.684,92.5076 386.5,93.5C 376.833,93.5 367.167,93.5 357.5,93.5C 357.5,94.8333 357.5,96.1667 357.5,97.5C 356.677,94.023 356.177,90.3563 356,86.5C 355.722,85.5842 355.222,84.9175 354.5,84.5C 353.347,81.53 351.68,78.8633 349.5,76.5C 348.259,73.6955 346.259,71.5288 343.5,70C 337.521,67.1816 331.521,64.6816 325.5,62.5C 329.634,63.0571 333.301,62.0571 336.5,59.5C 338.768,60.5443 341.101,60.711 343.5,60C 342.833,59.6667 342.167,59.3333 341.5,59C 342.554,57.6124 342.72,56.1124 342,54.5C 339.8,55.9901 337.966,55.6568 336.5,53.5C 338.313,50.5672 339.98,47.5672 341.5,44.5C 339.649,42.5442 337.316,41.5442 334.5,41.5C 334.5,40.1667 334.5,38.8333 334.5,37.5C 337.239,37.2934 339.573,36.2934 341.5,34.5C 343.383,34.8757 344.883,35.8757 346,37.5C 348.901,34.6822 351.401,35.0155 353.5,38.5C 354.187,36.7256 355.02,35.0589 356,33.5C 357.725,34.464 359.559,35.1307 361.5,35.5 Z"/></g>
<g><path style="opacity:1" fill="#304893" d="M 415.5,39.5 C 419.646,38.353 423.98,38.1864 428.5,39C 435.057,41.9233 437.89,47.09 437,54.5C 440.341,50.6569 441.175,51.3236 439.5,56.5C 440.5,56.5 441.5,56.5 442.5,56.5C 439.502,59.667 436.669,63.0003 434,66.5C 433.53,67.5768 433.697,68.5768 434.5,69.5C 433.022,68.0301 431.689,66.3634 430.5,64.5C 428.546,65.8509 426.379,66.5175 424,66.5C 419.53,65.7363 415.03,65.403 410.5,65.5C 410.552,63.0971 410.219,60.7638 409.5,58.5C 411.34,60.168 413.34,61.668 415.5,63C 422.224,65.7024 428.224,64.7024 433.5,60C 431.278,59.3054 429.111,58.4721 427,57.5C 424.775,59.2783 422.275,59.7783 419.5,59C 416.307,57.9745 414.974,55.8078 415.5,52.5C 422.05,54.5712 428.717,56.2379 435.5,57.5C 436.155,43.7782 429.488,37.7782 415.5,39.5 Z"/></g>
<g><path style="opacity:1" fill="#e2eaf6" d="M 264.5,56.5 C 283.046,57.9199 301.379,59.9199 319.5,62.5C 301.179,61.1014 282.846,59.7681 264.5,58.5C 264.83,64.8682 264.496,71.2015 263.5,77.5C 262.824,78.6016 262.158,79.6016 261.5,80.5C 261.783,72.2729 262.783,64.2729 264.5,56.5 Z"/></g>
<g><path style="opacity:1" fill="#214393" d="M 6.5,14.5 C 6.5,86.8333 6.5,159.167 6.5,231.5C 6.33353,241.172 6.5002,250.839 7,260.5C 7.36805,265.59 8.20139,270.257 9.5,274.5C 7.74973,273.341 6.74973,271.674 6.5,269.5C 5.51903,185.18 5.18569,100.847 5.5,16.5C 5.32842,15.5084 5.66175,14.8417 6.5,14.5 Z"/></g>
<g><path style="opacity:1" fill="#405485" d="M 134.5,40.5 C 135.167,52.8333 135.833,65.1667 136.5,77.5C 136.823,81.226 136.489,84.8927 135.5,88.5C 134.501,72.5139 134.167,56.5139 134.5,40.5 Z"/></g>
<g><path style="opacity:1" fill="#374d91" d="M 25.5,54.5 C 23.3926,55.4682 21.0593,55.8016 18.5,55.5C 17.7072,105.673 16.3739,155.673 14.5,205.5C 14.9101,155.494 15.7434,105.494 17,55.5C 19.7191,54.5562 22.5525,54.2229 25.5,54.5 Z"/></g>
<g><path style="opacity:1" fill="#274497" d="M 463.5,62.5 C 464.496,62.4142 465.329,62.7476 466,63.5C 466.1,66.9029 466.934,70.0696 468.5,73C 471.188,73.3924 473.855,73.8924 476.5,74.5C 477.167,74.1667 477.833,73.8333 478.5,73.5C 476.49,72.9347 474.824,71.9347 473.5,70.5C 474.348,68.7172 475.681,68.2172 477.5,69C 480.859,71.0739 483.359,74.2405 485,78.5C 485.667,75.8333 485.667,73.1667 485,70.5C 480.88,64.5309 475.88,63.8642 470,68.5C 469.506,66.8659 469.34,65.1992 469.5,63.5C 473.451,62.5234 477.118,62.8568 480.5,64.5C 484.119,62.6491 486.452,63.6491 487.5,67.5C 486.577,69.1285 486.243,70.6285 486.5,72C 487,72.5 487.5,73 488,73.5C 489,73.1667 490,72.8333 491,72.5C 491.198,74.3817 491.698,76.0484 492.5,77.5C 492.5,78.5 492.5,79.5 492.5,80.5C 490.8,80.3739 489.3,79.7073 488,78.5C 487.5,78.8333 487,79.1667 486.5,79.5C 487.246,80.7362 487.579,82.0695 487.5,83.5C 486.167,83.5 484.833,83.5 483.5,83.5C 483.969,86.3933 482.969,88.3933 480.5,89.5C 481.108,87.7411 480.775,85.9078 479.5,84C 480.833,82.6667 482.167,81.3333 483.5,80C 482.464,78.0986 481.298,76.2652 480,74.5C 477.695,77.6095 475.195,77.9429 472.5,75.5C 470.998,76.0831 469.665,76.9164 468.5,78C 469.731,79.1827 469.731,80.3493 468.5,81.5C 464.664,83.5836 460.997,85.917 457.5,88.5C 457.013,89.4461 456.68,90.4461 456.5,91.5C 457.178,93.516 457.844,95.516 458.5,97.5C 455.54,96.389 452.706,95.0556 450,93.5C 449.873,92.2234 450.373,91.0567 451.5,90C 450.762,87.2689 449.262,85.1022 447,83.5C 446.289,81.1009 446.456,78.7676 447.5,76.5C 443.408,74.3935 439.075,73.3935 434.5,73.5C 434.5,72.1667 434.5,70.8333 434.5,69.5C 435.838,71.1128 437.505,71.6128 439.5,71C 442.266,67.4779 445.266,64.1446 448.5,61C 454.226,60.3982 457.059,62.8982 457,68.5C 453.833,72.3333 450.667,76.1667 447.5,80C 449.043,81.8783 450.876,83.3783 453,84.5C 457.048,80.1203 460.715,75.4537 464,70.5C 464.722,67.7395 464.555,65.0728 463.5,62.5 Z"/></g>
<g><path style="opacity:1" fill="#1f409e" d="M 448.5,62.5 C 450.167,62.5 451.833,62.5 453.5,62.5C 453.067,65.1656 452.567,67.8323 452,70.5C 451.257,68.3553 450.424,68.1886 449.5,70C 450.148,71.4397 450.481,72.9397 450.5,74.5C 446.902,74.8654 444.235,73.5321 442.5,70.5C 444.14,67.5319 446.14,64.8652 448.5,62.5 Z"/></g>
<g><path style="opacity:1" fill="#f0f3f5" d="M 480.5,89.5 C 479.417,89.5394 478.417,89.8728 477.5,90.5C 472.964,86.7258 468.964,87.3925 465.5,92.5C 464.503,92.4701 463.836,92.9701 463.5,94C 466.169,97.6871 465.169,99.6871 460.5,100C 459.934,99.0053 459.267,98.172 458.5,97.5C 457.844,95.516 457.178,93.516 456.5,91.5C 456.68,90.4461 457.013,89.4461 457.5,88.5C 460.997,85.917 464.664,83.5836 468.5,81.5C 469.731,80.3493 469.731,79.1827 468.5,78C 469.665,76.9164 470.998,76.0831 472.5,75.5C 475.195,77.9429 477.695,77.6095 480,74.5C 481.298,76.2652 482.464,78.0986 483.5,80C 482.167,81.3333 480.833,82.6667 479.5,84C 480.775,85.9078 481.108,87.7411 480.5,89.5 Z"/></g>
<g><path style="opacity:1" fill="#3e5195" d="M 169.5,52.5 C 169.166,59.5071 168.666,66.5071 168,73.5C 165.036,84.5351 163.87,95.8684 164.5,107.5C 163.345,100.345 163.178,93.0118 164,85.5C 165.216,78.4875 166.382,71.4875 167.5,64.5C 167.717,60.2949 168.383,56.2949 169.5,52.5 Z"/></g>
<g><path style="opacity:1" fill="#415497" d="M 236.5,61.5 C 237.268,62.2625 237.768,63.2625 238,64.5C 240.115,95.5098 241.615,126.51 242.5,157.5C 242.5,158.167 242.5,158.833 242.5,159.5C 241.833,154.167 241.167,148.833 240.5,143.5C 239.499,118.152 238.166,92.8183 236.5,67.5C 236.5,65.5 236.5,63.5 236.5,61.5 Z"/></g>
<g><path style="opacity:0.859" fill="#4a5e92" d="M 5.5,16.5 C 5.18569,100.847 5.51903,185.18 6.5,269.5C 5.73209,268.737 5.23209,267.737 5,266.5C 4.16767,182.999 4.33433,99.6657 5.5,16.5 Z"/></g>
<g><path style="opacity:1" fill="#eef3fb" d="M 349.5,76.5 C 351.68,78.8633 353.347,81.53 354.5,84.5C 355.521,90.1296 355.687,95.7963 355,101.5C 353.366,121.652 350.866,141.652 347.5,161.5C 346.974,163.23 345.974,164.564 344.5,165.5C 347.154,157.403 348.987,149.07 350,140.5C 351.171,125.086 352.671,109.752 354.5,94.5C 354.333,92.5 354.167,90.5 354,88.5C 353.798,90.2556 353.298,91.9223 352.5,93.5C 352.167,93.1667 351.833,92.8333 351.5,92.5C 352.063,91.0615 352.397,89.5615 352.5,88C 351.19,84.3011 350.19,80.4677 349.5,76.5 Z"/></g>
<g><path style="opacity:1" fill="#f3f4f7" d="M 167.5,64.5 C 166.382,71.4875 165.216,78.4875 164,85.5C 163.178,93.0118 163.345,100.345 164.5,107.5C 165.098,116.617 166.431,125.617 168.5,134.5C 169.532,141.122 170.199,147.788 170.5,154.5C 160.167,154.5 149.833,154.5 139.5,154.5C 139.362,144.825 139.029,135.158 138.5,125.5C 139.29,126.609 139.79,127.942 140,129.5C 140.333,137.5 140.667,145.5 141,153.5C 148.136,152.817 155.303,152.15 162.5,151.5C 164.409,152.348 166.409,152.682 168.5,152.5C 168.5,150.833 168.5,149.167 168.5,147.5C 166.5,148.167 164.5,148.833 162.5,149.5C 163.442,146.58 164.776,143.914 166.5,141.5C 165.5,141.5 164.5,141.5 163.5,141.5C 162.153,135.515 161.486,129.349 161.5,123C 162.701,113.996 162.701,104.996 161.5,96C 162.426,86.7992 163.592,77.6325 165,68.5C 165.2,66.6803 166.034,65.347 167.5,64.5 Z"/></g>
<g><path style="opacity:1" fill="#e2e6f5" d="M 51.5,110.5 C 50.0556,106.577 49.389,106.91 49.5,111.5C 50.4511,127.057 52.1177,142.39 54.5,157.5C 54.5,159.5 54.5,161.5 54.5,163.5C 55.3197,169.797 55.653,176.131 55.5,182.5C 57.8333,182.5 60.1667,182.5 62.5,182.5C 62.3893,183.117 62.056,183.617 61.5,184C 55.831,185.842 53.1643,183.842 53.5,178C 51.8544,154.793 49.8544,131.627 47.5,108.5C 47.5565,107.263 48.0565,106.263 49,105.5C 50.3988,106.227 51.8988,106.727 53.5,107C 54.5368,108.851 53.8701,110.017 51.5,110.5 Z"/></g>
<g><path style="opacity:1" fill="#334991" d="M 51.5,110.5 C 55.4304,134.483 59.0971,158.483 62.5,182.5C 60.1667,182.5 57.8333,182.5 55.5,182.5C 55.653,176.131 55.3197,169.797 54.5,163.5C 56.1312,168.1 57.1312,173.1 57.5,178.5C 59.4161,181.105 60.4161,180.605 60.5,177C 59.395,170.87 58.5617,164.703 58,158.5C 56.9887,157.663 55.8221,157.33 54.5,157.5C 52.1177,142.39 50.4511,127.057 49.5,111.5C 49.389,106.91 50.0556,106.577 51.5,110.5 Z"/></g>
<g><path style="opacity:1" fill="#1e419c" d="M 105.5,154.5 C 106.263,155.268 107.263,155.768 108.5,156C 116.863,156.774 125.196,156.607 133.5,155.5C 135.029,155.529 136.196,156.196 137,157.5C 136.605,154.135 136.772,150.802 137.5,147.5C 138.168,149.969 138.835,152.302 139.5,154.5C 149.111,156.474 159.111,157.141 169.5,156.5C 170.051,159.807 170.384,163.14 170.5,166.5C 168.549,166.227 167.049,166.893 166,168.5C 165.501,172.514 165.667,176.514 166.5,180.5C 165.529,184.109 164.863,187.776 164.5,191.5C 162.335,191.116 160.668,191.783 159.5,193.5C 161.657,193.781 163.323,195.281 164.5,198C 168.821,198.499 173.154,198.666 177.5,198.5C 185.158,198.986 192.825,199.32 200.5,199.5C 201.777,198.306 202.444,196.64 202.5,194.5C 202.944,190.837 203.278,187.171 203.5,183.5C 207.172,183.183 208.838,184.849 208.5,188.5C 208.5,190.167 208.5,191.833 208.5,193.5C 207.183,196.23 207.183,199.063 208.5,202C 212.152,202.499 215.818,202.665 219.5,202.5C 219.5,203.833 219.5,205.167 219.5,206.5C 228.094,204.91 236.761,204.41 245.5,205C 243.172,209.934 243.005,215.1 245,220.5C 245.333,217.167 245.667,213.833 246,210.5C 246.499,214.821 246.666,219.154 246.5,223.5C 246.5,223.833 246.5,224.167 246.5,224.5C 242.567,228.29 242.567,232.124 246.5,236C 259.625,237.598 272.792,239.098 286,240.5C 288.008,240.693 289.508,240.026 290.5,238.5C 290.128,232.57 290.795,226.903 292.5,221.5C 294.823,208.04 296.656,194.374 298,180.5C 298.5,192.829 298.667,205.162 298.5,217.5C 298.5,220.5 298.5,223.5 298.5,226.5C 297.515,230.634 297.182,234.968 297.5,239.5C 312.128,241.229 326.794,242.563 341.5,243.5C 340.279,219.517 339.612,195.517 339.5,171.5C 341.89,170.109 343.557,168.109 344.5,165.5C 345.974,164.564 346.974,163.23 347.5,161.5C 348.117,161.389 348.617,161.056 349,160.5C 350,157.167 351,153.833 352,150.5C 353.072,137.113 354.405,123.78 356,110.5C 356.333,138.5 356.667,166.5 357,194.5C 357.852,195.571 358.685,196.571 359.5,197.5C 366.972,206.805 376.805,210.805 389,209.5C 400.12,210.406 409.62,207.073 417.5,199.5C 419.417,198.594 421.083,197.261 422.5,195.5C 422.833,196.667 423.167,197.833 423.5,199C 421.342,203.874 420.176,209.041 420,214.5C 419.667,214.167 419.333,213.833 419,213.5C 417.98,214.891 417.147,216.391 416.5,218C 416.746,221.349 416.746,224.849 416.5,228.5C 415.97,232.285 414.97,235.952 413.5,239.5C 413.709,240.086 414.043,240.586 414.5,241C 423.859,243.569 433.193,246.069 442.5,248.5C 447.04,231.337 452.04,214.337 457.5,197.5C 458.79,196.942 459.623,195.942 460,194.5C 461.511,189.457 463.178,184.457 465,179.5C 466.041,176.887 467.541,174.554 469.5,172.5C 468.923,170.894 468.59,169.228 468.5,167.5C 470.671,161.661 472.005,155.661 472.5,149.5C 472.5,148.833 472.5,148.167 472.5,147.5C 474.007,145.711 475.34,143.711 476.5,141.5C 477.662,146.131 477.828,150.798 477,155.5C 474.734,159.247 473.401,163.247 473,167.5C 473.414,167.957 473.914,168.291 474.5,168.5C 476.116,164.15 477.616,159.816 479,155.5C 480.84,160.86 480.84,166.193 479,171.5C 478.667,171.167 478.333,170.833 478,170.5C 473.536,174.478 470.536,179.478 469,185.5C 464.094,189.015 464.427,190.015 470,188.5C 471.29,186.208 472.957,184.208 475,182.5C 476.147,179.382 477.48,176.382 479,173.5C 480.434,177.406 480.767,181.406 480,185.5C 477.438,186.898 477.105,188.565 479,190.5C 479.167,211.175 479.667,231.841 480.5,252.5C 481.086,252.709 481.586,253.043 482,253.5C 482.5,211.168 482.667,168.835 482.5,126.5C 477.402,128.714 472.068,130.381 466.5,131.5C 464.385,130.921 462.385,130.088 460.5,129C 461.025,128.308 461.692,127.808 462.5,127.5C 464.853,128.565 467.186,128.398 469.5,127C 466.875,125.624 466.875,124.458 469.5,123.5C 472.465,124.734 475.465,124.734 478.5,123.5C 481.881,123.54 485.214,123.207 488.5,122.5C 488.5,121.167 488.5,119.833 488.5,118.5C 490.323,111.746 489.323,105.413 485.5,99.5C 485.317,97.0637 485.984,94.897 487.5,93C 486.365,92.2506 485.365,92.4173 484.5,93.5C 483.359,94.4255 483.359,95.2588 484.5,96C 478.36,97.6162 472.36,97.4496 466.5,95.5C 465.614,94.675 465.281,93.675 465.5,92.5C 468.964,87.3925 472.964,86.7258 477.5,90.5C 478.417,89.8728 479.417,89.5394 480.5,89.5C 482.969,88.3933 483.969,86.3933 483.5,83.5C 484.833,83.5 486.167,83.5 487.5,83.5C 487.579,82.0695 487.246,80.7362 486.5,79.5C 487,79.1667 487.5,78.8333 488,78.5C 489.3,79.7073 490.8,80.3739 492.5,80.5C 492.5,142.167 492.5,203.833 492.5,265.5C 491.505,272.491 487.838,277.491 481.5,280.5C 479.011,280.298 476.677,280.798 474.5,282C 323.834,282.5 173.167,282.667 22.5,282.5C 17.0824,281.623 12.7491,278.957 9.5,274.5C 8.20139,270.257 7.36805,265.59 7,260.5C 6.5002,250.839 6.33353,241.172 6.5,231.5C 7.22158,231.918 7.72158,232.584 8,233.5C 9.63409,230.333 9.46743,227.166 7.5,224C 8.07624,222.286 9.2429,221.119 11,220.5C 12.1182,225.841 12.9515,231.174 13.5,236.5C 14.6216,237.156 15.9549,237.489 17.5,237.5C 25.8045,236.254 34.1378,235.254 42.5,234.5C 44.9522,234.461 46.9522,233.794 48.5,232.5C 51.4552,231.841 54.4552,231.508 57.5,231.5C 58.5,231.5 59.5,231.5 60.5,231.5C 60.8064,228.615 60.4731,225.948 59.5,223.5C 59.0199,218.178 58.6865,212.845 58.5,207.5C 61.5,207.5 64.5,207.5 67.5,207.5C 68.3845,213.474 69.0512,219.474 69.5,225.5C 69.5,226.833 69.5,228.167 69.5,229.5C 71.4147,229.784 73.0813,229.451 74.5,228.5C 84.212,227.911 93.8787,226.911 103.5,225.5C 107.881,225.628 112.215,225.295 116.5,224.5C 116.737,223.209 116.404,222.209 115.5,221.5C 110.348,202.559 105.348,183.559 100.5,164.5C 100.556,160.554 99.8894,156.721 98.5,153C 98.6667,151.833 98.8333,150.667 99,149.5C 100.131,150.604 100.965,150.271 101.5,148.5C 99.8287,146.49 99.162,144.157 99.5,141.5C 100.833,141.5 102.167,141.5 103.5,141.5C 103.333,108.832 103.5,76.165 104,43.5C 104.167,80.6689 104.667,117.669 105.5,154.5 Z"/></g>
<g><path style="opacity:1" fill="#28438e" d="M 168.5,134.5 C 169.117,134.611 169.617,134.944 170,135.5C 170.333,138.5 170.667,141.5 171,144.5C 171.743,147.192 172.91,149.525 174.5,151.5C 171.552,166.237 168.219,180.903 164.5,195.5C 164.709,196.086 165.043,196.586 165.5,197C 169.688,197.176 173.688,197.676 177.5,198.5C 173.154,198.666 168.821,198.499 164.5,198C 163.323,195.281 161.657,193.781 159.5,193.5C 160.668,191.783 162.335,191.116 164.5,191.5C 164.863,187.776 165.529,184.109 166.5,180.5C 165.667,176.514 165.501,172.514 166,168.5C 167.049,166.893 168.549,166.227 170.5,166.5C 170.384,163.14 170.051,159.807 169.5,156.5C 159.111,157.141 149.111,156.474 139.5,154.5C 149.833,154.5 160.167,154.5 170.5,154.5C 170.199,147.788 169.532,141.122 168.5,134.5 Z"/></g>
<g><path style="opacity:1" fill="#344a94" d="M 209.5,125.5 C 211.176,126.183 211.843,127.517 211.5,129.5C 211.713,140.527 211.38,151.527 210.5,162.5C 208.833,162.5 207.167,162.5 205.5,162.5C 206.506,150.131 207.839,137.798 209.5,125.5 Z"/></g>
<g><path style="opacity:1" fill="#e3eaf7" d="M 261.5,86.5 C 261.62,88.1986 261.954,89.8653 262.5,91.5C 259.723,112.018 257.556,132.685 256,153.5C 255.722,152.584 255.222,151.918 254.5,151.5C 254.5,148.833 254.5,146.167 254.5,143.5C 256.614,124.476 258.947,105.476 261.5,86.5 Z"/></g>
<g><path style="opacity:1" fill="#dfe8f5" d="M 311.5,105.5 C 310.949,120.214 309.782,134.881 308,149.5C 305.445,155.475 301.778,156.141 297,151.5C 298.003,144.62 298.67,137.62 299,130.5C 299.383,129.944 299.883,129.611 300.5,129.5C 300.5,133.167 300.5,136.833 300.5,140.5C 300.5,140.833 300.5,141.167 300.5,141.5C 299.521,144.625 299.187,147.958 299.5,151.5C 301.792,151.756 303.959,151.423 306,150.5C 307.316,135.307 309.15,120.307 311.5,105.5 Z"/></g>
<g><path style="opacity:1" fill="#3b4e90" d="M 138.5,125.5 C 139.029,135.158 139.362,144.825 139.5,154.5C 138.835,152.302 138.168,149.969 137.5,147.5C 136.772,150.802 136.605,154.135 137,157.5C 136.196,156.196 135.029,155.529 133.5,155.5C 125.196,156.607 116.863,156.774 108.5,156C 107.263,155.768 106.263,155.268 105.5,154.5C 115.167,154.5 124.833,154.5 134.5,154.5C 134.167,138.819 134.501,123.152 135.5,107.5C 136.968,113.533 137.968,119.533 138.5,125.5 Z"/></g>
<g><path style="opacity:1" fill="#1e409e" d="M 300.5,141.5 C 300.5,141.167 300.5,140.833 300.5,140.5C 301.222,140.082 301.722,139.416 302,138.5C 302.333,132.833 302.667,127.167 303,121.5C 304.072,118.782 305.238,116.115 306.5,113.5C 306.23,121.868 306.23,131.202 306.5,141.5C 302.677,141.167 301.177,142.834 302,146.5C 302.689,145.643 303.522,144.977 304.5,144.5C 306.574,148.839 305.241,150.839 300.5,150.5C 300.5,147.5 300.5,144.5 300.5,141.5 Z"/></g>
<g><path style="opacity:1" fill="#354b8f" d="M 354.5,84.5 C 355.222,84.9175 355.722,85.5842 356,86.5C 356.177,90.3563 356.677,94.023 357.5,97.5C 357.169,128.338 357.502,159.005 358.5,189.5C 358.833,192.167 359.167,194.833 359.5,197.5C 358.685,196.571 357.852,195.571 357,194.5C 356.667,166.5 356.333,138.5 356,110.5C 354.405,123.78 353.072,137.113 352,150.5C 351,153.833 350,157.167 349,160.5C 348.617,161.056 348.117,161.389 347.5,161.5C 350.866,141.652 353.366,121.652 355,101.5C 355.687,95.7963 355.521,90.1296 354.5,84.5 Z"/></g>
<g><path style="opacity:1" fill="#334991" d="M 488.5,118.5 C 488.5,119.833 488.5,121.167 488.5,122.5C 485.214,123.207 481.881,123.54 478.5,123.5C 480.81,118.419 481.143,113.085 479.5,107.5C 480.813,103.551 482.313,103.551 484,107.5C 484.895,110.466 484.395,113.133 482.5,115.5C 482.725,121.75 484.725,122.75 488.5,118.5 Z"/></g>
<g><path style="opacity:1" fill="#425887" d="M 211.5,129.5 C 211.843,127.517 211.176,126.183 209.5,125.5C 210.062,118.108 211.062,110.775 212.5,103.5C 212.833,104.833 213.167,106.167 213.5,107.5C 212.978,114.999 212.311,122.332 211.5,129.5 Z"/></g>
<g><path style="opacity:1" fill="#f2f4f6" d="M 485.5,99.5 C 489.323,105.413 490.323,111.746 488.5,118.5C 484.725,122.75 482.725,121.75 482.5,115.5C 484.395,113.133 484.895,110.466 484,107.5C 482.313,103.551 480.813,103.551 479.5,107.5C 481.143,113.085 480.81,118.419 478.5,123.5C 475.465,124.734 472.465,124.734 469.5,123.5C 467.268,120.369 465.601,117.036 464.5,113.5C 462.268,107.738 463.601,103.072 468.5,99.5C 470.255,100.67 471.255,102.337 471.5,104.5C 468.914,108.267 468.914,111.933 471.5,115.5C 471.706,117.549 472.539,117.883 474,116.5C 474.796,113.961 474.629,111.628 473.5,109.5C 472.021,98.9554 476.021,95.6221 485.5,99.5 Z"/></g>
<g><path style="opacity:1" fill="#5c6b99" d="M 473.5,109.5 C 474.629,111.628 474.796,113.961 474,116.5C 472.539,117.883 471.706,117.549 471.5,115.5C 473.308,114.082 473.975,112.082 473.5,109.5 Z"/></g>
<g><path style="opacity:1" fill="#edf3fe" d="M 417.5,94.5 C 418.5,94.5 419.5,94.5 420.5,94.5C 420.667,127.168 420.5,159.835 420,192.5C 419.768,193.737 419.268,194.737 418.5,195.5C 418.813,161.802 418.479,128.136 417.5,94.5 Z"/></g>
<g><path style="opacity:1" fill="#fbf8f2" d="M 387.5,186.5 C 389.423,189.218 390.756,188.884 391.5,185.5C 392.498,155.338 392.831,125.005 392.5,94.5C 400.833,94.5 409.167,94.5 417.5,94.5C 418.479,128.136 418.813,161.802 418.5,195.5C 418.167,196.833 417.833,198.167 417.5,199.5C 409.62,207.073 400.12,210.406 389,209.5C 376.805,210.805 366.972,206.805 359.5,197.5C 359.167,194.833 358.833,192.167 358.5,189.5C 358.5,157.833 358.5,126.167 358.5,94.5C 367.833,94.5 377.167,94.5 386.5,94.5C 386.169,125.338 386.502,156.005 387.5,186.5 Z"/></g>
<g><path style="opacity:1" fill="#95a3c4" d="M 386.5,93.5 C 387.167,93.5 387.5,93.8333 387.5,94.5C 387.5,125.167 387.5,155.833 387.5,186.5C 386.502,156.005 386.169,125.338 386.5,94.5C 377.167,94.5 367.833,94.5 358.5,94.5C 358.5,126.167 358.5,157.833 358.5,189.5C 357.502,159.005 357.169,128.338 357.5,97.5C 357.5,96.1667 357.5,94.8333 357.5,93.5C 367.167,93.5 376.833,93.5 386.5,93.5 Z"/></g>
<g><path style="opacity:1" fill="#2e4791" d="M 311.5,105.5 C 309.15,120.307 307.316,135.307 306,150.5C 303.959,151.423 301.792,151.756 299.5,151.5C 299.187,147.958 299.521,144.625 300.5,141.5C 300.5,144.5 300.5,147.5 300.5,150.5C 305.241,150.839 306.574,148.839 304.5,144.5C 303.522,144.977 302.689,145.643 302,146.5C 301.177,142.834 302.677,141.167 306.5,141.5C 306.23,131.202 306.23,121.868 306.5,113.5C 305.238,116.115 304.072,118.782 303,121.5C 302.667,127.167 302.333,132.833 302,138.5C 301.722,139.416 301.222,140.082 300.5,140.5C 300.5,136.833 300.5,133.167 300.5,129.5C 302.324,116.903 303.658,104.237 304.5,91.5C 306.827,91.6646 308.993,92.3313 311,93.5C 311.499,97.4862 311.666,101.486 311.5,105.5 Z"/></g>
<g><path style="opacity:1" fill="#c4d0ea" d="M 391.5,93.5 C 401.167,93.5 410.833,93.5 420.5,93.5C 420.5,93.8333 420.5,94.1667 420.5,94.5C 419.5,94.5 418.5,94.5 417.5,94.5C 409.167,94.5 400.833,94.5 392.5,94.5C 392.831,125.005 392.498,155.338 391.5,185.5C 391.5,154.833 391.5,124.167 391.5,93.5 Z"/></g>
<g><path style="opacity:1" fill="#29418a" d="M 391.5,93.5 C 391.5,124.167 391.5,154.833 391.5,185.5C 390.756,188.884 389.423,189.218 387.5,186.5C 387.5,155.833 387.5,125.167 387.5,94.5C 388.167,124.669 388.833,155.003 389.5,185.5C 390.167,154.669 390.833,124.003 391.5,93.5 Z"/></g>
<g><path style="opacity:1" fill="#1f3f9d" d="M 305.5,94.5 C 307.167,94.5 308.833,94.5 310.5,94.5C 308.289,118.325 306.622,118.325 305.5,94.5 Z"/></g>
<g><path style="opacity:1" fill="#314892" d="M 465.5,92.5 C 465.281,93.675 465.614,94.675 466.5,95.5C 472.36,97.4496 478.36,97.6162 484.5,96C 483.359,95.2588 483.359,94.4255 484.5,93.5C 485.365,92.4173 486.365,92.2506 487.5,93C 485.984,94.897 485.317,97.0637 485.5,99.5C 476.021,95.6221 472.021,98.9554 473.5,109.5C 473.975,112.082 473.308,114.082 471.5,115.5C 468.914,111.933 468.914,108.267 471.5,104.5C 471.255,102.337 470.255,100.67 468.5,99.5C 463.601,103.072 462.268,107.738 464.5,113.5C 463.223,112.306 462.556,110.64 462.5,108.5C 462.572,106.44 462.905,104.44 463.5,102.5C 461.955,101.548 460.288,101.215 458.5,101.5C 458.5,100.167 458.5,98.8333 458.5,97.5C 459.267,98.172 459.934,99.0053 460.5,100C 465.169,99.6871 466.169,97.6871 463.5,94C 463.836,92.9701 464.503,92.4701 465.5,92.5 Z"/></g>
<g><path style="opacity:1" fill="#e3e8f5" d="M 25.5,54.5 C 26.8333,54.5 28.1667,54.5 29.5,54.5C 26.4928,56.1745 23.1595,56.8412 19.5,56.5C 18.8573,114.846 17.8573,173.179 16.5,231.5C 18.4672,231.261 20.3005,231.594 22,232.5C 27.721,230.958 33.3876,229.958 39,229.5C 44.8126,230.499 50.6459,230.665 56.5,230C 57.7435,228.13 58.4101,225.964 58.5,223.5C 56.8735,218.351 56.3735,213.017 57,207.5C 60.6013,206.18 64.1013,206.18 67.5,207.5C 64.5,207.5 61.5,207.5 58.5,207.5C 58.6865,212.845 59.0199,218.178 59.5,223.5C 59.8685,226.533 59.2018,229.2 57.5,231.5C 54.4552,231.508 51.4552,231.841 48.5,232.5C 37.1667,233.833 25.8333,235.167 14.5,236.5C 14.5,226.167 14.5,215.833 14.5,205.5C 16.3739,155.673 17.7072,105.673 18.5,55.5C 21.0593,55.8016 23.3926,55.4682 25.5,54.5 Z"/></g>
<g><path style="opacity:0.914" fill="#385190" d="M 491.5,14.5 C 492.268,15.2625 492.768,16.2625 493,17.5C 493.832,100.334 493.666,183.001 492.5,265.5C 492.5,203.833 492.5,142.167 492.5,80.5C 492.5,79.5 492.5,78.5 492.5,77.5C 492.788,56.4733 492.454,35.4733 491.5,14.5 Z"/></g>
<g><path style="opacity:1" fill="#1f419b" d="M 54.5,157.5 C 55.8221,157.33 56.9887,157.663 58,158.5C 58.5617,164.703 59.395,170.87 60.5,177C 60.4161,180.605 59.4161,181.105 57.5,178.5C 57.1312,173.1 56.1312,168.1 54.5,163.5C 54.5,161.5 54.5,159.5 54.5,157.5 Z"/></g>
<g><path style="opacity:1" fill="#264495" d="M 254.5,143.5 C 254.5,146.167 254.5,148.833 254.5,151.5C 251.966,175.507 249.299,199.507 246.5,223.5C 246.666,219.154 246.499,214.821 246,210.5C 245.667,213.833 245.333,217.167 245,220.5C 243.005,215.1 243.172,209.934 245.5,205C 236.761,204.41 228.094,204.91 219.5,206.5C 219.5,205.167 219.5,203.833 219.5,202.5C 215.818,202.665 212.152,202.499 208.5,202C 207.183,199.063 207.183,196.23 208.5,193.5C 208.5,195.833 208.5,198.167 208.5,200.5C 220.498,201.5 232.498,202.5 244.5,203.5C 244.231,188.813 243.564,174.146 242.5,159.5C 242.5,158.833 242.5,158.167 242.5,157.5C 244.178,162.568 244.844,167.902 244.5,173.5C 246.167,173.5 247.833,173.5 249.5,173.5C 249.173,168.456 249.506,163.456 250.5,158.5C 251.192,159.025 251.692,159.692 252,160.5C 252.167,158.333 252.333,156.167 252.5,154C 250.533,149.718 249.533,144.384 249.5,138C 249.667,134.5 249.833,131 250,127.5C 250.333,127.167 250.667,126.833 251,126.5C 251.749,131.489 252.415,136.489 253,141.5C 253.278,142.416 253.778,143.082 254.5,143.5 Z"/></g>
<g><path style="opacity:1" fill="#93a1c8" d="M 300.5,177.5 C 299.167,177.5 297.833,177.5 296.5,177.5C 296.737,178.791 296.404,179.791 295.5,180.5C 295.5,179.167 295.5,177.833 295.5,176.5C 297.415,176.216 299.081,176.549 300.5,177.5 Z"/></g>
<g><path style="opacity:1" fill="#304891" d="M 472.5,149.5 C 472.005,155.661 470.671,161.661 468.5,167.5C 468.59,169.228 468.923,170.894 469.5,172.5C 467.541,174.554 466.041,176.887 465,179.5C 463.178,184.457 461.511,189.457 460,194.5C 459.623,195.942 458.79,196.942 457.5,197.5C 462.207,181.318 467.207,165.318 472.5,149.5 Z"/></g>
<g><path style="opacity:1" fill="#f9f7f2" d="M 472.5,147.5 C 472.5,148.167 472.5,148.833 472.5,149.5C 467.207,165.318 462.207,181.318 457.5,197.5C 452.04,214.337 447.04,231.337 442.5,248.5C 433.193,246.069 423.859,243.569 414.5,241C 414.043,240.586 413.709,240.086 413.5,239.5C 414.97,235.952 415.97,232.285 416.5,228.5C 421.972,211.63 427.306,194.63 432.5,177.5C 436.845,161.966 441.679,146.633 447,131.5C 455.936,134.866 465.103,137.533 474.5,139.5C 474.037,142.221 473.371,144.888 472.5,147.5 Z"/></g>
<g><path style="opacity:1" fill="#3d4f8e" d="M 208.5,188.5 C 208.838,184.849 207.172,183.183 203.5,183.5C 203.278,187.171 202.944,190.837 202.5,194.5C 202.444,196.64 201.777,198.306 200.5,199.5C 201.36,195.566 201.693,191.566 201.5,187.5C 202.451,186.081 202.784,184.415 202.5,182.5C 204.833,182.5 207.167,182.5 209.5,182.5C 209.795,184.735 209.461,186.735 208.5,188.5 Z"/></g>
<g><path style="opacity:1" fill="#e3e8f7" d="M 240.5,143.5 C 241.167,148.833 241.833,154.167 242.5,159.5C 243.564,174.146 244.231,188.813 244.5,203.5C 232.498,202.5 220.498,201.5 208.5,200.5C 208.5,198.167 208.5,195.833 208.5,193.5C 208.5,191.833 208.5,190.167 208.5,188.5C 209.461,186.735 209.795,184.735 209.5,182.5C 207.167,182.5 204.833,182.5 202.5,182.5C 202.784,184.415 202.451,186.081 201.5,187.5C 201.5,184.833 201.5,182.167 201.5,179.5C 204.448,179.223 207.281,179.556 210,180.5C 210.188,186.748 210.688,192.915 211.5,199C 221.827,200.026 232.161,200.859 242.5,201.5C 241.044,182.236 240.377,162.903 240.5,143.5 Z"/></g>
<g><path style="opacity:1" fill="#27428b" d="M 420.5,93.5 C 422.328,126.151 423.161,159.151 423,192.5C 424.333,191.833 425.667,191.167 427,190.5C 428.089,186.644 429.256,182.81 430.5,179C 430.836,177.97 431.503,177.47 432.5,177.5C 427.306,194.63 421.972,211.63 416.5,228.5C 416.746,224.849 416.746,221.349 416.5,218C 417.147,216.391 417.98,214.891 419,213.5C 419.333,213.833 419.667,214.167 420,214.5C 420.176,209.041 421.342,203.874 423.5,199C 423.167,197.833 422.833,196.667 422.5,195.5C 421.083,197.261 419.417,198.594 417.5,199.5C 417.833,198.167 418.167,196.833 418.5,195.5C 419.268,194.737 419.768,193.737 420,192.5C 420.5,159.835 420.667,127.168 420.5,94.5C 420.5,94.1667 420.5,93.8333 420.5,93.5 Z"/></g>
<g><path style="opacity:1" fill="#dee6f6" d="M 254.5,151.5 C 254.666,160.173 254.5,168.84 254,177.5C 251.319,195.663 249.486,213.997 248.5,232.5C 252.327,233.267 255.994,234.267 259.5,235.5C 255.143,235.414 250.81,235.08 246.5,234.5C 246.5,231.167 246.5,227.833 246.5,224.5C 246.5,224.167 246.5,223.833 246.5,223.5C 249.299,199.507 251.966,175.507 254.5,151.5 Z"/></g>
<g><path style="opacity:1" fill="#e0e5f4" d="M 339.5,171.5 C 339.612,195.517 340.279,219.517 341.5,243.5C 326.794,242.563 312.128,241.229 297.5,239.5C 297.182,234.968 297.515,230.634 298.5,226.5C 298.5,230.5 298.5,234.5 298.5,238.5C 303.844,238.334 309.177,238.501 314.5,239C 322.431,240.086 330.431,241.252 338.5,242.5C 338.224,218.743 338.558,195.077 339.5,171.5 Z"/></g>
<g><path style="opacity:1" fill="#374e94" d="M 300.5,177.5 C 300.613,191.026 299.946,204.36 298.5,217.5C 298.667,205.162 298.5,192.829 298,180.5C 296.656,194.374 294.823,208.04 292.5,221.5C 292.392,216.13 292.725,210.797 293.5,205.5C 294.046,197.156 294.713,188.822 295.5,180.5C 296.404,179.791 296.737,178.791 296.5,177.5C 297.833,177.5 299.167,177.5 300.5,177.5 Z"/></g>
<g><path style="opacity:1" fill="#626ea5" d="M 115.5,221.5 C 116.404,222.209 116.737,223.209 116.5,224.5C 112.215,225.295 107.881,225.628 103.5,225.5C 106.665,224.678 109.998,224.011 113.5,223.5C 114.713,223.253 115.38,222.586 115.5,221.5 Z"/></g>
<g><path style="opacity:1" fill="#8797ce" d="M 59.5,223.5 C 60.4731,225.948 60.8064,228.615 60.5,231.5C 59.5,231.5 58.5,231.5 57.5,231.5C 59.2018,229.2 59.8685,226.533 59.5,223.5 Z"/></g>
<g><path style="opacity:1" fill="#98a9ce" d="M 69.5,225.5 C 70.404,226.209 70.7373,227.209 70.5,228.5C 71.8333,228.5 73.1667,228.5 74.5,228.5C 73.0813,229.451 71.4147,229.784 69.5,229.5C 69.5,228.167 69.5,226.833 69.5,225.5 Z"/></g>
<g><path style="opacity:1" fill="#2b4486" d="M 14.5,205.5 C 14.5,215.833 14.5,226.167 14.5,236.5C 25.8333,235.167 37.1667,233.833 48.5,232.5C 46.9522,233.794 44.9522,234.461 42.5,234.5C 34.1378,235.254 25.8045,236.254 17.5,237.5C 15.9549,237.489 14.6216,237.156 13.5,236.5C 13.1724,225.986 13.5058,215.653 14.5,205.5 Z"/></g>
<g><path style="opacity:1" fill="#e1e8f6" d="M 293.5,205.5 C 292.725,210.797 292.392,216.13 292.5,221.5C 290.795,226.903 290.128,232.57 290.5,238.5C 283.992,238.132 277.658,237.465 271.5,236.5C 277.167,236.5 282.833,236.5 288.5,236.5C 289.108,228.126 290.108,219.793 291.5,211.5C 291.539,209.048 292.206,207.048 293.5,205.5 Z"/></g>
<g><path style="opacity:1" fill="#28438f" d="M 246.5,224.5 C 246.5,227.833 246.5,231.167 246.5,234.5C 250.81,235.08 255.143,235.414 259.5,235.5C 263.4,236.43 267.4,236.763 271.5,236.5C 277.658,237.465 283.992,238.132 290.5,238.5C 289.508,240.026 288.008,240.693 286,240.5C 272.792,239.098 259.625,237.598 246.5,236C 242.567,232.124 242.567,228.29 246.5,224.5 Z"/></g>
<g><path style="opacity:0.783" fill="#576ca8" d="M 481.5,280.5 C 479.723,281.6 477.723,282.434 475.5,283C 324.333,283.833 173.333,283.666 22.5,282.5C 173.167,282.667 323.834,282.5 474.5,282C 476.677,280.798 479.011,280.298 481.5,280.5 Z"/></g>
</svg>
