<?xml version="1.0" encoding="UTF-8"?>
<!DOCTYPE svg PUBLIC "-//W3C//DTD SVG 1.1//EN" "http://www.w3.org/Graphics/SVG/1.1/DTD/svg11.dtd">
<svg xmlns="http://www.w3.org/2000/svg" version="1.1" width="500px" height="500px" style="shape-rendering:geometricPrecision; text-rendering:geometricPrecision; image-rendering:optimizeQuality; fill-rule:evenodd; clip-rule:evenodd" xmlns:xlink="http://www.w3.org/1999/xlink">
<g><path style="opacity:1" fill="#1d419d" d="M -0.5,-0.5 C 166.167,-0.5 332.833,-0.5 499.5,-0.5C 499.5,166.167 499.5,332.833 499.5,499.5C 332.833,499.5 166.167,499.5 -0.5,499.5C -0.5,332.833 -0.5,166.167 -0.5,-0.5 Z"/></g>
<g><path style="opacity:1" fill="#f2f1ee" d="M 369.5,132.5 C 371.179,134 372.512,135.833 373.5,138C 367.462,141.013 361.796,144.513 356.5,148.5C 356.865,149.902 357.699,150.902 359,151.5C 363.387,149.723 367.554,147.557 371.5,145C 374.322,144.301 375.988,145.468 376.5,148.5C 376.023,149.478 375.357,150.311 374.5,151C 370.007,153.079 365.674,155.412 361.5,158C 362.542,159.918 363.708,161.751 365,163.5C 370.58,160.627 376.08,157.627 381.5,154.5C 384.092,156.161 384.759,158.328 383.5,161C 376.291,165.035 368.958,168.868 361.5,172.5C 356.01,164.196 351.01,155.529 346.5,146.5C 354.028,141.571 361.695,136.904 369.5,132.5 Z"/></g>
<g><path style="opacity:1" fill="#efeded" d="M 402.5,134.5 C 405.247,134.187 407.914,134.52 410.5,135.5C 407.389,142.722 404.556,150.056 402,157.5C 398.556,160.47 395.556,160.137 393,156.5C 389.199,149.895 385.699,143.228 382.5,136.5C 385.247,136.187 387.914,136.52 390.5,137.5C 392.412,141.66 394.579,145.66 397,149.5C 399.719,144.844 401.553,139.844 402.5,134.5 Z"/></g>
<g><path style="opacity:1" fill="#b2bcd6" d="M 176.5,141.5 C 166.889,139.526 156.889,138.859 146.5,139.5C 146.802,142.059 146.468,144.393 145.5,146.5C 145.5,143.833 145.5,141.167 145.5,138.5C 156.167,138.5 166.833,138.5 177.5,138.5C 177.737,139.791 177.404,140.791 176.5,141.5 Z"/></g>
<g><path style="opacity:1" fill="#f4f2ef" d="M 422.5,137.5 C 430.178,136.993 436.345,139.66 441,145.5C 441.784,148.76 441.617,151.927 440.5,155C 434.279,154.654 428.279,153.154 422.5,150.5C 421.06,153.228 421.726,155.395 424.5,157C 428.177,157.108 431.843,157.108 435.5,157C 436.938,157.219 438.271,157.719 439.5,158.5C 438.221,160.146 436.555,161.313 434.5,162C 420.279,164.438 413.779,158.604 415,144.5C 416.742,141.254 419.242,138.921 422.5,137.5 Z"/></g>
<g><path style="opacity:1" fill="#a1adce" d="M 141.5,186.5 C 140.504,171.009 140.17,155.342 140.5,139.5C 131.167,139.5 121.833,139.5 112.5,139.5C 112.5,177.167 112.5,214.833 112.5,252.5C 111.501,214.67 111.168,176.67 111.5,138.5C 121.5,138.5 131.5,138.5 141.5,138.5C 141.5,154.5 141.5,170.5 141.5,186.5 Z"/></g>
<g><path style="opacity:1" fill="#faf8f1" d="M 141.5,186.5 C 142.816,183.913 143.483,180.913 143.5,177.5C 144.12,167.159 144.786,156.825 145.5,146.5C 146.468,144.393 146.802,142.059 146.5,139.5C 156.889,138.859 166.889,139.526 176.5,141.5C 174.682,159.061 172.349,176.561 169.5,194C 172.235,213.506 174.902,233.006 177.5,252.5C 167.167,252.5 156.833,252.5 146.5,252.5C 145.347,238.178 144.347,223.845 143.5,209.5C 143.5,208.167 143.5,206.833 143.5,205.5C 142.5,205.5 141.5,205.5 140.5,205.5C 140.171,219.344 140.504,233.01 141.5,246.5C 141.5,248.5 141.5,250.5 141.5,252.5C 131.833,252.5 122.167,252.5 112.5,252.5C 112.5,214.833 112.5,177.167 112.5,139.5C 121.833,139.5 131.167,139.5 140.5,139.5C 140.17,155.342 140.504,171.009 141.5,186.5 Z"/></g>
<g><path style="opacity:1" fill="#4057a7" d="M 425.5,142.5 C 428.862,142.07 431.695,143.07 434,145.5C 434.667,146.833 434.667,148.167 434,149.5C 430.401,148.466 426.901,147.133 423.5,145.5C 424.193,144.482 424.859,143.482 425.5,142.5 Z"/></g>
<g><path style="opacity:1" fill="#faf7f1" d="M 72.5,147.5 C 74.8333,147.5 77.1667,147.5 79.5,147.5C 95.6593,205.805 111.659,264.139 127.5,322.5C 112.091,323.51 96.7577,325.176 81.5,327.5C 80.3362,320.19 79.3362,312.856 78.5,305.5C 75.4281,305.183 72.4281,305.516 69.5,306.5C 70.3867,313.794 71.0534,321.127 71.5,328.5C 56.1702,330.5 40.8369,332.5 25.5,334.5C 26.9,274.169 28.2333,213.835 29.5,153.5C 44.0987,152.386 58.432,150.386 72.5,147.5 Z"/></g>
<g><path style="opacity:1" fill="#f2f1ee" d="M 453.5,148.5 C 455.34,150.168 457.34,151.668 459.5,153C 458.833,153.667 458.167,154.333 457.5,155C 466.824,155.644 470.991,160.477 470,169.5C 466.627,174.25 462.794,178.583 458.5,182.5C 456.684,181.185 455.017,179.685 453.5,178C 456.667,174.167 459.833,170.333 463,166.5C 463.626,162.115 461.626,159.781 457,159.5C 455.373,159.625 453.873,160.125 452.5,161C 450.021,164.313 447.355,167.48 444.5,170.5C 442.663,169.162 440.997,167.662 439.5,166C 443.986,160.015 448.653,154.181 453.5,148.5 Z"/></g>
<g><path style="opacity:1" fill="#f9f7f1" d="M 305.5,283.5 C 306.477,280.713 306.81,277.713 306.5,274.5C 304.5,274.5 302.5,274.5 300.5,274.5C 300.5,275.833 300.5,277.167 300.5,278.5C 299.098,297.856 297.431,317.189 295.5,336.5C 280.823,335.261 266.156,333.928 251.5,332.5C 256.902,273.143 262.569,213.809 268.5,154.5C 290.929,156.11 313.263,158.61 335.5,162C 346.48,164.881 354.313,171.381 359,181.5C 360.037,185.078 360.537,188.744 360.5,192.5C 359.383,214.672 356.883,236.672 353,258.5C 351.067,262.698 348.401,266.365 345,269.5C 345.274,293.496 345.774,317.496 346.5,341.5C 331.835,340.167 317.168,338.834 302.5,337.5C 303.602,319.505 304.602,301.505 305.5,283.5 Z"/></g>
<g><path style="opacity:1" fill="#f9f6f1" d="M 248.5,287.5 C 248.5,291.5 248.5,295.5 248.5,299.5C 246.833,299.5 245.167,299.5 243.5,299.5C 233.451,299.494 223.451,298.827 213.5,297.5C 213.5,291.5 213.5,285.5 213.5,279.5C 211.5,279.5 209.5,279.5 207.5,279.5C 206.751,285.155 206.085,290.822 205.5,296.5C 194.143,296.049 182.809,295.216 171.5,294C 170.422,293.326 169.755,292.326 169.5,291C 180.16,246.541 190.66,202.041 201,157.5C 202.009,156.342 203.342,155.675 205,155.5C 216.798,156.978 228.632,157.978 240.5,158.5C 243.443,201.482 246.11,244.482 248.5,287.5 Z"/></g>
<g><path style="opacity:1" fill="#f1f0ed" d="M 485.5,172.5 C 487.306,174.089 488.639,176.089 489.5,178.5C 488.167,179.833 486.833,181.167 485.5,182.5C 486.167,183.833 486.833,185.167 487.5,186.5C 486.086,187.624 484.586,188.624 483,189.5C 482.059,187.939 480.892,186.605 479.5,185.5C 475.59,187.088 472.257,189.421 469.5,192.5C 472.284,196.235 471.284,198.068 466.5,198C 463.724,195.006 462.558,191.506 463,187.5C 466.577,184.627 470.411,182.127 474.5,180C 475.174,178.249 475.507,176.583 475.5,175C 477.681,172.922 479.681,173.089 481.5,175.5C 482.901,174.479 484.235,173.479 485.5,172.5 Z"/></g>
<g><path style="opacity:1" fill="#27469f" d="M 309.5,189.5 C 311.827,189.665 313.993,190.331 316,191.5C 315.464,209.535 314.13,227.535 312,245.5C 311.691,246.766 311.191,247.933 310.5,249C 308.527,249.495 306.527,249.662 304.5,249.5C 306.287,229.509 307.954,209.509 309.5,189.5 Z"/></g>
<g><path style="opacity:1" fill="#fbf8f1" d="M 363.5,191.5 C 372.833,191.5 382.167,191.5 391.5,191.5C 391.169,222.005 391.502,252.338 392.5,282.5C 392.62,283.586 393.287,284.253 394.5,284.5C 395.713,284.253 396.38,283.586 396.5,282.5C 397.498,252.338 397.831,222.005 397.5,191.5C 406.833,191.5 416.167,191.5 425.5,191.5C 425.667,224.502 425.5,257.502 425,290.5C 421.162,300.69 413.662,305.857 402.5,306C 391.213,307.908 380.546,306.242 370.5,301C 367.509,298.01 365.343,294.51 364,290.5C 363.5,257.502 363.333,224.502 363.5,191.5 Z"/></g>
<g><path style="opacity:1" fill="#c3cadd" d="M 363.5,191.5 C 372.986,190.506 382.652,190.173 392.5,190.5C 392.5,221.167 392.5,251.833 392.5,282.5C 391.502,252.338 391.169,222.005 391.5,191.5C 382.167,191.5 372.833,191.5 363.5,191.5 Z"/></g>
<g><path style="opacity:1" fill="#9caacd" d="M 425.5,191.5 C 416.167,191.5 406.833,191.5 397.5,191.5C 397.831,222.005 397.498,252.338 396.5,282.5C 396.5,251.833 396.5,221.167 396.5,190.5C 406.348,190.173 416.014,190.506 425.5,191.5 Z"/></g>
<g><path style="opacity:1" fill="#f3f1ee" d="M 483.5,195.5 C 490.216,195.375 494.049,198.709 495,205.5C 495.767,209.594 495.434,213.594 494,217.5C 492.89,219.037 491.39,219.703 489.5,219.5C 489.567,217.599 489.233,215.766 488.5,214C 491.386,209.836 491.053,206.003 487.5,202.5C 486.009,203.348 485.342,204.681 485.5,206.5C 486.465,210.809 486.631,215.143 486,219.5C 481.368,223.698 477.035,223.364 473,218.5C 470.517,213.401 469.517,208.068 470,202.5C 471.191,199.466 473.358,197.799 476.5,197.5C 476.62,199.199 476.954,200.865 477.5,202.5C 474.876,206.626 474.876,210.793 477.5,215C 478.448,215.483 479.448,215.649 480.5,215.5C 479.8,209.841 479.634,204.175 480,198.5C 481.145,197.364 482.312,196.364 483.5,195.5 Z"/></g>
<g><path style="opacity:1" fill="#304ba2" d="M 60.5,205.5 C 61.7251,206.152 62.3917,207.319 62.5,209C 66.6997,232.768 70.3663,256.601 73.5,280.5C 71.1667,280.5 68.8333,280.5 66.5,280.5C 65.1018,255.453 63.1018,230.453 60.5,205.5 Z"/></g>
<g><path style="opacity:1" fill="#314ca2" d="M 216.5,200.5 C 217.164,202.81 217.497,205.31 217.5,208C 216.564,225.158 215.898,242.325 215.5,259.5C 213.5,259.5 211.5,259.5 209.5,259.5C 211.942,239.846 214.276,220.179 216.5,200.5 Z"/></g>
<g><path style="opacity:1" fill="#f9f6f1" d="M 446.5,231.5 C 455.519,233.839 464.519,236.339 473.5,239C 473.957,239.414 474.291,239.914 474.5,240.5C 463.422,276.066 452.755,311.733 442.5,347.5C 436.011,346.727 429.678,345.227 423.5,343C 419.766,342.154 416.432,340.654 413.5,338.5C 424.351,302.758 435.351,267.091 446.5,231.5 Z"/></g>
<g><path style="opacity:1" fill="#b9c1d8" d="M 143.5,209.5 C 142.732,208.737 142.232,207.737 142,206.5C 141.5,219.829 141.333,233.163 141.5,246.5C 140.504,233.01 140.171,219.344 140.5,205.5C 141.5,205.5 142.5,205.5 143.5,205.5C 143.5,206.833 143.5,208.167 143.5,209.5 Z"/></g>
<g><path style="opacity:1" fill="#97a5cb" d="M 305.5,283.5 C 305.5,280.833 305.5,278.167 305.5,275.5C 304.167,275.5 302.833,275.5 301.5,275.5C 301.737,276.791 301.404,277.791 300.5,278.5C 300.5,277.167 300.5,275.833 300.5,274.5C 302.5,274.5 304.5,274.5 306.5,274.5C 306.81,277.713 306.477,280.713 305.5,283.5 Z"/></g>
<g><path style="opacity:1" fill="#a1accf" d="M 248.5,287.5 C 249.485,291.634 249.818,295.968 249.5,300.5C 247.265,300.795 245.265,300.461 243.5,299.5C 245.167,299.5 246.833,299.5 248.5,299.5C 248.5,295.5 248.5,291.5 248.5,287.5 Z"/></g>
</svg>
