<?xml version="1.0" encoding="UTF-8"?>
<!DOCTYPE svg PUBLIC "-//W3C//DTD SVG 1.1//EN" "http://www.w3.org/Graphics/SVG/1.1/DTD/svg11.dtd">
<svg xmlns="http://www.w3.org/2000/svg" version="1.1" width="364px" height="206px" style="shape-rendering:geometricPrecision; text-rendering:geometricPrecision; image-rendering:optimizeQuality; fill-rule:evenodd; clip-rule:evenodd" xmlns:xlink="http://www.w3.org/1999/xlink">
<g><path style="opacity:1" fill="#f6f7f8" d="M 13.5,-0.5 C 124.5,-0.5 235.5,-0.5 346.5,-0.5C 354.894,5.21647 360.56,12.8831 363.5,22.5C 363.5,75.1667 363.5,127.833 363.5,180.5C 360.753,189.761 355.42,197.261 347.5,203C 346.255,203.791 344.922,204.291 343.5,204.5C 344.355,203.469 345.022,202.303 345.5,201C 345.43,200.235 345.097,199.735 344.5,199.5C 348.304,196.528 351.637,193.028 354.5,189C 354.272,188.601 353.938,188.435 353.5,188.5C 353.5,187.833 353.833,187.5 354.5,187.5C 356.335,186.878 357.502,185.544 358,183.5C 358.667,129.833 358.667,76.1667 358,22.5C 356.814,17.2819 354.314,12.7819 350.5,9C 349.552,8.51722 348.552,8.35055 347.5,8.5C 345.224,6.64893 342.891,4.98227 340.5,3.5C 339.77,1.95496 338.437,1.12162 336.5,1C 232.666,0.167471 128.999,0.334138 25.5,1.5C 24.0048,1.98869 22.6715,2.65536 21.5,3.5C 16.9391,4.94619 13.2724,7.61286 10.5,11.5C 8.20432,13.4006 6.37099,15.7339 5,18.5C 4.02655,20.3921 3.35989,22.3921 3,24.5C 2.1683,75.6683 2.33497,126.668 3.5,177.5C 3.77117,181.605 5.10451,185.272 7.5,188.5C 6.88258,188.611 6.38258,188.944 6,189.5C 4.23961,185.606 2.40628,181.772 0.5,178C 1.32678,125.862 1.82678,73.6953 2,21.5C 4.11951,18.3025 3.95284,15.3025 1.5,12.5C 4.82063,7.51376 8.82063,3.18042 13.5,-0.5 Z"/></g>
<g><path style="opacity:1" fill="#6281e0" d="M 10.5,11.5 C 10.2488,13.1703 9.58218,14.6703 8.5,16C 9.74247,16.3114 10.7425,15.8114 11.5,14.5C 12.7053,16.8591 12.372,19.0257 10.5,21C 11.9227,22.412 11.756,23.5787 10,24.5C 8.81181,23.4366 8.31181,22.1033 8.5,20.5C 7.5,20.5 6.5,20.5 5.5,20.5C 4.39783,26.4476 3.73117,32.4476 3.5,38.5C 3.5,84.8333 3.5,131.167 3.5,177.5C 2.33497,126.668 2.1683,75.6683 3,24.5C 3.35989,22.3921 4.02655,20.3921 5,18.5C 6.37099,15.7339 8.20432,13.4006 10.5,11.5 Z"/></g>
<g><path style="opacity:1" fill="#4770e9" d="M 21.5,3.5 C 22.8333,3.5 24.1667,3.5 25.5,3.5C 129.501,3.33334 233.501,3.5 337.5,4C 340.857,6.67882 344.523,8.84549 348.5,10.5C 352.307,12.7747 354.641,16.1081 355.5,20.5C 352.47,19.2804 349.804,19.947 347.5,22.5C 346.571,21.3112 346.238,19.9778 346.5,18.5C 344.139,18.6741 341.806,19.0074 339.5,19.5C 339.684,22.3213 338.351,23.9879 335.5,24.5C 334.833,23.8333 334.167,23.1667 333.5,22.5C 331.979,22.8797 330.313,23.0464 328.5,23C 328.67,24.5695 329.003,26.4028 329.5,28.5C 327.146,28.838 324.813,29.338 322.5,30C 323.167,31.3333 323.833,32.6667 324.5,34C 326.24,35.6945 328.24,36.8611 330.5,37.5C 330.5,35.8333 330.5,34.1667 330.5,32.5C 332.199,32.3398 333.866,32.5065 335.5,33C 334.349,35.4641 333.349,37.9641 332.5,40.5C 330.188,39.6805 327.854,38.8471 325.5,38C 325.833,37.6667 326.167,37.3333 326.5,37C 324.91,35.9542 323.41,34.7875 322,33.5C 320.293,35.0375 318.793,36.7041 317.5,38.5C 315.972,37.1979 314.972,35.5313 314.5,33.5C 313.527,30.865 311.86,28.865 309.5,27.5C 309.389,26.8826 309.056,26.3826 308.5,26C 305.304,25.1955 302.304,25.3622 299.5,26.5C 294.204,28.7659 292.37,32.7659 294,38.5C 296.818,43.9474 301.318,46.2808 307.5,45.5C 308.791,45.2627 309.791,45.596 310.5,46.5C 311.833,47.9335 313.333,49.2668 315,50.5C 316.812,47.7198 318.979,45.2198 321.5,43C 327.094,41.0868 329.261,42.9202 328,48.5C 325.46,50.7047 323.293,53.2047 321.5,56C 322.71,57.0391 323.71,58.2058 324.5,59.5C 325.473,61.0683 325.64,62.735 325,64.5C 324.107,63.2888 323.274,63.2888 322.5,64.5C 323.5,65.5 324.5,66.5 325.5,67.5C 326.182,66.7573 326.849,66.0906 327.5,65.5C 326.887,68.9694 328.221,70.9694 331.5,71.5C 331.248,76.9884 331.915,82.3218 333.5,87.5C 338.463,87.1024 339.463,88.7691 336.5,92.5C 333.232,93.487 329.898,93.8204 326.5,93.5C 326.5,95.5 326.5,97.5 326.5,99.5C 324.155,106.24 321.822,112.906 319.5,119.5C 318.59,121.019 317.757,122.685 317,124.5C 316.667,122.5 316.333,120.5 316,118.5C 314.667,117.167 313.333,117.167 312,118.5C 311.832,100.995 311.332,83.6618 310.5,66.5C 310.5,65.8333 310.167,65.5 309.5,65.5C 302.167,65.5 294.833,65.5 287.5,65.5C 286.698,66.9516 286.198,68.6183 286,70.5C 285.802,68.6183 285.302,66.9516 284.5,65.5C 277.167,65.5 269.833,65.5 262.5,65.5C 261.835,62.1976 260.835,58.8642 259.5,55.5C 259.846,54.1508 260.179,52.8175 260.5,51.5C 264.778,48.3547 269.445,45.6881 274.5,43.5C 275.298,43.0431 275.631,42.3764 275.5,41.5C 275.369,40.6236 275.702,39.9569 276.5,39.5C 277.518,40.1925 278.518,40.8592 279.5,41.5C 281.717,42.3686 284.05,42.702 286.5,42.5C 288.095,36.7175 290.095,31.0508 292.5,25.5C 290.5,24.1667 288.5,24.1667 286.5,25.5C 285.458,28.4232 284.125,31.0898 282.5,33.5C 280.738,32.3115 279.738,30.6449 279.5,28.5C 279.799,26.396 279.466,24.396 278.5,22.5C 275.557,23.2435 272.557,23.7435 269.5,24C 269.167,24.3333 268.833,24.6667 268.5,25C 270.204,27.2375 271.204,29.7375 271.5,32.5C 270.5,32.5 269.5,32.5 268.5,32.5C 268.5,32.1667 268.5,31.8333 268.5,31.5C 267.498,29.9891 266.831,28.3224 266.5,26.5C 266.167,25.1667 265.833,23.8333 265.5,22.5C 263.444,21.7839 261.277,21.1172 259,20.5C 258.517,21.448 258.351,22.448 258.5,23.5C 257.07,23.5792 255.736,23.2458 254.5,22.5C 253.494,22.9377 253.494,23.6043 254.5,24.5C 252.714,26.9224 251.048,26.9224 249.5,24.5C 247.035,25.9219 244.369,26.9219 241.5,27.5C 243.423,28.3078 245.423,28.8078 247.5,29C 244.976,30.6901 242.976,32.8568 241.5,35.5C 243.078,36.2978 244.744,36.7978 246.5,37C 246.957,39.9557 248.623,41.7891 251.5,42.5C 251.657,43.8734 251.49,45.2068 251,46.5C 249.644,45.6198 248.144,45.2865 246.5,45.5C 246.785,43.712 246.452,42.0453 245.5,40.5C 244.833,41.1667 244.167,41.8333 243.5,42.5C 233.928,40.381 224.262,38.881 214.5,38C 206.323,37.1772 198.323,37.3439 190.5,38.5C 189.751,46.8263 189.084,55.1597 188.5,63.5C 187.224,65.5625 186.39,67.8958 186,70.5C 184.387,91.8593 182.553,113.193 180.5,134.5C 179.679,137.641 179.179,140.975 179,144.5C 178.802,142.618 178.302,140.952 177.5,139.5C 177.118,131.661 176.451,123.995 175.5,116.5C 175.658,113.098 175.324,109.764 174.5,106.5C 174.65,97.1425 174.317,87.8092 173.5,78.5C 173.5,75.8333 173.5,73.1667 173.5,70.5C 173.892,60.94 173.225,51.6066 171.5,42.5C 170.365,40.7868 168.698,40.1201 166.5,40.5C 159.682,39.2402 152.682,38.2402 145.5,37.5C 143.631,37.5068 141.964,37.8401 140.5,38.5C 140.5,39.1667 140.5,39.8333 140.5,40.5C 140.5,40.8333 140.5,41.1667 140.5,41.5C 138.057,48.9349 136.057,56.6015 134.5,64.5C 133.542,64.9528 132.708,65.6195 132,66.5C 129.204,78.3492 126.371,90.0158 123.5,101.5C 121.947,96.9903 121.114,92.3236 121,87.5C 120.617,86.944 120.117,86.6107 119.5,86.5C 119.753,81.0218 119.086,75.6884 117.5,70.5C 117.667,69.1667 117.833,67.8333 118,66.5C 118.914,67.6537 119.747,67.487 120.5,66C 119.531,61.2633 119.197,56.43 119.5,51.5C 121.411,43.0472 122.411,34.3806 122.5,25.5C 114.316,25.1743 106.316,25.5076 98.5,26.5C 98.1667,26.5 97.8333,26.5 97.5,26.5C 96.8333,26.5 96.1667,26.5 95.5,26.5C 95.1667,26.5 94.8333,26.5 94.5,26.5C 86.8132,26.102 79.1465,25.102 71.5,23.5C 70.4763,24.8532 69.143,25.5198 67.5,25.5C 67.41,27.6963 67.0767,29.863 66.5,32C 67.4764,34.1181 68.3097,36.2848 69,38.5C 69.2088,52.6881 69.7088,66.8547 70.5,81C 70.2172,84.8102 68.8839,85.3102 66.5,82.5C 65.8333,79.8333 65.1667,77.1667 64.5,74.5C 63.8165,74.1373 63.1499,73.8039 62.5,73.5C 62.1667,71.5 61.8333,69.5 61.5,67.5C 60.3633,63.5828 59.53,59.5828 59,55.5C 58.1482,54.4293 57.3149,53.4293 56.5,52.5C 55.1806,48.9113 54.1806,45.2446 53.5,41.5C 54.0141,37.2115 52.8474,33.5449 50,30.5C 47.9911,31.604 45.8244,32.2707 43.5,32.5C 36.5095,33.1244 29.5095,33.6244 22.5,34C 18.8625,34.7588 15.5291,35.9255 12.5,37.5C 11.5267,45.6599 10.86,53.9932 10.5,62.5C 9.85071,99.7514 8.85071,137.085 7.5,174.5C 6.52333,177.287 6.19,180.287 6.5,183.5C 5.71003,182.391 5.21003,181.058 5,179.5C 4.33333,145.833 4.33333,112.167 5,78.5C 6.04631,77.228 6.54631,75.728 6.5,74C 4.97635,62.074 3.97635,50.2407 3.5,38.5C 3.73117,32.4476 4.39783,26.4476 5.5,20.5C 6.5,20.5 7.5,20.5 8.5,20.5C 8.31181,22.1033 8.81181,23.4366 10,24.5C 11.756,23.5787 11.9227,22.412 10.5,21C 12.372,19.0257 12.7053,16.8591 11.5,14.5C 10.7425,15.8114 9.74247,16.3114 8.5,16C 9.58218,14.6703 10.2488,13.1703 10.5,11.5C 13.2724,7.61286 16.9391,4.94619 21.5,3.5 Z"/></g>
<g><path style="opacity:1" fill="#4e76de" d="M 265.5,22.5 C 258.939,24.5299 252.772,27.5299 247,31.5C 247.985,35.2668 249.485,38.9335 251.5,42.5C 248.623,41.7891 246.957,39.9557 246.5,37C 244.744,36.7978 243.078,36.2978 241.5,35.5C 242.976,32.8568 244.976,30.6901 247.5,29C 245.423,28.8078 243.423,28.3078 241.5,27.5C 244.369,26.9219 247.035,25.9219 249.5,24.5C 251.048,26.9224 252.714,26.9224 254.5,24.5C 253.494,23.6043 253.494,22.9377 254.5,22.5C 255.736,23.2458 257.07,23.5792 258.5,23.5C 258.351,22.448 258.517,21.448 259,20.5C 261.277,21.1172 263.444,21.7839 265.5,22.5 Z"/></g>
<g><path style="opacity:1" fill="#e8f2fe" d="M 103.5,26.5 C 109.5,26.5 115.5,26.5 121.5,26.5C 120.369,34.8211 119.369,43.1544 118.5,51.5C 118.044,55.6643 117.378,59.6643 116.5,63.5C 116.489,51.3065 117.489,39.3065 119.5,27.5C 113.974,27.8214 108.64,27.4881 103.5,26.5 Z"/></g>
<g><path style="opacity:1" fill="#758edd" d="M 299.5,26.5 C 302.304,25.3622 305.304,25.1955 308.5,26C 309.056,26.3826 309.389,26.8826 309.5,27.5C 306.236,26.6758 302.902,26.3424 299.5,26.5 Z"/></g>
<g><path style="opacity:1" fill="#607cd4" d="M 98.5,26.5 C 106.316,25.5076 114.316,25.1743 122.5,25.5C 122.411,34.3806 121.411,43.0472 119.5,51.5C 119.167,51.5 118.833,51.5 118.5,51.5C 119.369,43.1544 120.369,34.8211 121.5,26.5C 115.5,26.5 109.5,26.5 103.5,26.5C 102.167,26.5 100.833,26.5 99.5,26.5C 99.1667,26.5 98.8333,26.5 98.5,26.5 Z"/></g>
<g><path style="opacity:1" fill="#4b70da" d="M 25.5,3.5 C 128.332,2.50054 231.332,2.16721 334.5,2.5C 336.565,2.51715 338.565,2.85048 340.5,3.5C 342.891,4.98227 345.224,6.64893 347.5,8.5C 347.833,9.16667 348.167,9.83333 348.5,10.5C 344.523,8.84549 340.857,6.67882 337.5,4C 233.501,3.5 129.501,3.33334 25.5,3.5 Z"/></g>
<g><path style="opacity:1" fill="#5973be" d="M 25.5,1.5 C 128.668,1.16721 231.668,1.50054 334.5,2.5C 231.332,2.16721 128.332,2.50054 25.5,3.5C 24.1667,3.5 22.8333,3.5 21.5,3.5C 22.6715,2.65536 24.0048,1.98869 25.5,1.5 Z"/></g>
<g><path style="opacity:1" fill="#e9f7fe" d="M 25.5,1.5 C 128.999,0.334138 232.666,0.167471 336.5,1C 338.437,1.12162 339.77,1.95496 340.5,3.5C 338.565,2.85048 336.565,2.51715 334.5,2.5C 231.668,1.50054 128.668,1.16721 25.5,1.5 Z"/></g>
<g><path style="opacity:1" fill="#f0f5fa" d="M 279.5,41.5 C 277.128,36.4267 274.461,31.4267 271.5,26.5C 274.91,24.8361 277.577,25.5027 279.5,28.5C 279.738,30.6449 280.738,32.3115 282.5,33.5C 284.125,31.0898 285.458,28.4232 286.5,25.5C 288.5,24.1667 290.5,24.1667 292.5,25.5C 290.095,31.0508 288.095,36.7175 286.5,42.5C 284.05,42.702 281.717,42.3686 279.5,41.5 Z"/></g>
<g><path style="opacity:1" fill="#eff4fa" d="M 299.5,26.5 C 302.902,26.3424 306.236,26.6758 309.5,27.5C 311.86,28.865 313.527,30.865 314.5,33.5C 314.5,35.5 314.5,37.5 314.5,39.5C 309.397,38.8795 304.397,37.8795 299.5,36.5C 299.33,37.8221 299.663,38.9887 300.5,40C 304.687,40.0712 308.687,40.7378 312.5,42C 311.045,43.6257 309.378,44.7924 307.5,45.5C 301.318,46.2808 296.818,43.9474 294,38.5C 292.37,32.7659 294.204,28.7659 299.5,26.5 Z"/></g>
<g><path style="opacity:1" fill="#5d74d4" d="M 266.5,26.5 C 266.831,28.3224 267.498,29.9891 268.5,31.5C 267.85,31.1961 267.183,30.8627 266.5,30.5C 262.813,32.5332 259.147,34.5332 255.5,36.5C 254.167,35.1667 254.167,33.8333 255.5,32.5C 259.184,30.4717 262.85,28.4717 266.5,26.5 Z"/></g>
<g><path style="opacity:1" fill="#6078c9" d="M 301.5,30.5 C 303.527,30.3379 305.527,30.5045 307.5,31C 308.731,32.1827 308.731,33.3493 307.5,34.5C 305.833,33.8333 304.167,33.1667 302.5,32.5C 301.702,32.0431 301.369,31.3764 301.5,30.5 Z"/></g>
<g><path style="opacity:1" fill="#5c7ad4" d="M 53.5,41.5 C 52.2318,39.0948 51.5651,36.4282 51.5,33.5C 38.7208,34.1777 26.0542,35.511 13.5,37.5C 13.1667,37.5 12.8333,37.5 12.5,37.5C 15.5291,35.9255 18.8625,34.7588 22.5,34C 29.5095,33.6244 36.5095,33.1244 43.5,32.5C 45.8244,32.2707 47.9911,31.604 50,30.5C 52.8474,33.5449 54.0141,37.2115 53.5,41.5 Z"/></g>
<g><path style="opacity:1" fill="#f9f9f4" d="M 53.5,41.5 C 54.1806,45.2446 55.1806,48.9113 56.5,52.5C 57.2931,56.8797 58.2931,61.2131 59.5,65.5C 59.6199,67.7345 59.2865,69.9011 58.5,72C 60.7579,77.0159 62.5912,82.1825 64,87.5C 64.3768,88.9423 65.2101,89.9423 66.5,90.5C 66.5484,97.1657 68.2151,103.166 71.5,108.5C 71.9804,111.685 71.3137,114.519 69.5,117C 70.7659,117.309 71.9326,117.809 73,118.5C 73.9904,129.469 76.9904,139.802 82,149.5C 82.5022,152.513 83.0022,155.513 83.5,158.5C 81.8967,158.312 80.5634,158.812 79.5,160C 81.7094,161.144 84.0428,161.977 86.5,162.5C 86.5,163.167 86.5,163.833 86.5,164.5C 77.7362,165.945 69.0695,167.278 60.5,168.5C 60.1667,168.5 59.8333,168.5 59.5,168.5C 56.8333,168.5 54.1667,168.5 51.5,168.5C 51.4613,164.267 50.7947,160.267 49.5,156.5C 49.5,156.167 49.5,155.833 49.5,155.5C 48.4479,153.744 46.7812,153.077 44.5,153.5C 42.7281,156.192 41.7281,159.359 41.5,163C 42.2865,165.099 42.6199,167.266 42.5,169.5C 32.0216,169.955 21.6883,170.622 11.5,171.5C 11.5,153.833 11.5,136.167 11.5,118.5C 11.5,118.167 11.5,117.833 11.5,117.5C 12.3238,113.688 12.8238,109.688 13,105.5C 13.5,82.8358 13.6666,60.1691 13.5,37.5C 26.0542,35.511 38.7208,34.1777 51.5,33.5C 51.5651,36.4282 52.2318,39.0948 53.5,41.5 Z"/></g>
<g><path style="opacity:1" fill="#f1f4f9" d="M 265.5,22.5 C 265.833,23.8333 266.167,25.1667 266.5,26.5C 262.85,28.4717 259.184,30.4717 255.5,32.5C 254.167,33.8333 254.167,35.1667 255.5,36.5C 259.147,34.5332 262.813,32.5332 266.5,30.5C 267.183,30.8627 267.85,31.1961 268.5,31.5C 268.5,31.8333 268.5,32.1667 268.5,32.5C 268.804,33.1499 269.137,33.8165 269.5,34.5C 266.327,36.5872 262.994,38.4205 259.5,40C 257.833,43.3333 258.833,44.6667 262.5,44C 265.706,41.966 269.04,40.1326 272.5,38.5C 273.735,39.3398 274.735,40.3398 275.5,41.5C 275.631,42.3764 275.298,43.0431 274.5,43.5C 269.445,45.6881 264.778,48.3547 260.5,51.5C 259.167,51.8333 257.833,52.1667 256.5,52.5C 255.325,48.8174 253.659,45.4841 251.5,42.5C 249.485,38.9335 247.985,35.2668 247,31.5C 252.772,27.5299 258.939,24.5299 265.5,22.5 Z"/></g>
<g><path style="opacity:1" fill="#5474dc" d="M 279.5,28.5 C 277.577,25.5027 274.91,24.8361 271.5,26.5C 274.461,31.4267 277.128,36.4267 279.5,41.5C 278.518,40.8592 277.518,40.1925 276.5,39.5C 275.702,39.9569 275.369,40.6236 275.5,41.5C 274.735,40.3398 273.735,39.3398 272.5,38.5C 269.04,40.1326 265.706,41.966 262.5,44C 258.833,44.6667 257.833,43.3333 259.5,40C 262.994,38.4205 266.327,36.5872 269.5,34.5C 269.137,33.8165 268.804,33.1499 268.5,32.5C 269.5,32.5 270.5,32.5 271.5,32.5C 271.204,29.7375 270.204,27.2375 268.5,25C 268.833,24.6667 269.167,24.3333 269.5,24C 272.557,23.7435 275.557,23.2435 278.5,22.5C 279.466,24.396 279.799,26.396 279.5,28.5 Z"/></g>
<g><path style="opacity:1" fill="#637ddb" d="M 190.5,38.5 C 198.323,37.3439 206.323,37.1772 214.5,38C 224.262,38.881 233.928,40.381 243.5,42.5C 244.167,41.8333 244.833,41.1667 245.5,40.5C 246.452,42.0453 246.785,43.712 246.5,45.5C 228.688,41.9704 210.688,39.637 192.5,38.5C 191.833,38.5 191.167,38.5 190.5,38.5 Z"/></g>
<g><path style="opacity:1" fill="#89a2eb" d="M 72.5,26.5 C 72.8312,54.0051 72.4979,81.3384 71.5,108.5C 71.4431,107.391 71.1098,106.391 70.5,105.5C 71.1667,79.1667 71.8333,52.8333 72.5,26.5 Z"/></g>
<g><path style="opacity:1" fill="#faf9f3" d="M 92.5,26.5 C 93.1667,26.5 93.8333,26.5 94.5,26.5C 94.5,38.1667 94.5,49.8333 94.5,61.5C 94.6724,65.9707 95.5057,66.3041 97,62.5C 97.4997,55.1742 97.6663,47.8409 97.5,40.5C 99.8489,40.5417 101.182,39.3751 101.5,37C 99.7727,33.7242 99.106,30.2242 99.5,26.5C 100.833,26.5 102.167,26.5 103.5,26.5C 108.64,27.4881 113.974,27.8214 119.5,27.5C 117.489,39.3065 116.489,51.3065 116.5,63.5C 116.5,64.1667 116.5,64.8333 116.5,65.5C 115.2,78.3355 116.2,91.1689 119.5,104C 119.057,105.825 118.723,107.658 118.5,109.5C 112.5,109.5 106.5,109.5 100.5,109.5C 99.3,106.167 99.3,102.833 100.5,99.5C 98.5458,91.6437 96.8791,83.9771 95.5,76.5C 95.1667,76.5 94.8333,76.5 94.5,76.5C 93.5064,85.6517 93.1731,94.985 93.5,104.5C 90.0791,104.238 89.0791,105.572 90.5,108.5C 84.9462,109.806 79.4462,109.806 74,108.5C 73.3333,82.1667 73.3333,55.8333 74,29.5C 80.0647,27.8816 86.2313,26.8816 92.5,26.5 Z"/></g>
<g><path style="opacity:1" fill="#586fbe" d="M 95.5,26.5 C 96.1667,26.5 96.8333,26.5 97.5,26.5C 96.7875,33.1426 96.4542,39.8092 96.5,46.5C 95.5093,40.021 95.176,33.3543 95.5,26.5 Z"/></g>
<g><path style="opacity:1" fill="#e8eefb" d="M 97.5,26.5 C 97.8333,26.5 98.1667,26.5 98.5,26.5C 98.8333,26.5 99.1667,26.5 99.5,26.5C 99.106,30.2242 99.7727,33.7242 101.5,37C 101.182,39.3751 99.8489,40.5417 97.5,40.5C 97.6663,47.8409 97.4997,55.1742 97,62.5C 95.5057,66.3041 94.6724,65.9707 94.5,61.5C 96.2377,56.7831 96.9044,51.7831 96.5,46.5C 96.4542,39.8092 96.7875,33.1426 97.5,26.5 Z"/></g>
<g><path style="opacity:1" fill="#5675cf" d="M 140.5,38.5 C 141.964,37.8401 143.631,37.5068 145.5,37.5C 152.682,38.2402 159.682,39.2402 166.5,40.5C 160.484,40.4075 154.484,40.0742 148.5,39.5C 146.052,38.5269 143.385,38.1936 140.5,38.5 Z"/></g>
<g><path style="opacity:1" fill="#6983cd" d="M 314.5,33.5 C 314.972,35.5313 315.972,37.1979 317.5,38.5C 315.157,41.2072 312.823,43.8739 310.5,46.5C 309.791,45.596 308.791,45.2627 307.5,45.5C 309.378,44.7924 311.045,43.6257 312.5,42C 308.687,40.7378 304.687,40.0712 300.5,40C 299.663,38.9887 299.33,37.8221 299.5,36.5C 304.397,37.8795 309.397,38.8795 314.5,39.5C 314.5,37.5 314.5,35.5 314.5,33.5 Z"/></g>
<g><path style="opacity:1" fill="#b2c2f2" d="M 140.5,38.5 C 143.385,38.1936 146.052,38.5269 148.5,39.5C 145.721,39.2786 143.054,39.612 140.5,40.5C 140.5,39.8333 140.5,39.1667 140.5,38.5 Z"/></g>
<g><path style="opacity:1" fill="#eff3fa" d="M 332.5,40.5 C 334.293,43.2587 334.793,46.2587 334,49.5C 332,52.1667 330,54.8333 328,57.5C 327.184,58.8228 326.017,59.4894 324.5,59.5C 323.71,58.2058 322.71,57.0391 321.5,56C 323.293,53.2047 325.46,50.7047 328,48.5C 329.261,42.9202 327.094,41.0868 321.5,43C 318.979,45.2198 316.812,47.7198 315,50.5C 313.333,49.2668 311.833,47.9335 310.5,46.5C 312.823,43.8739 315.157,41.2072 317.5,38.5C 318.793,36.7041 320.293,35.0375 322,33.5C 323.41,34.7875 324.91,35.9542 326.5,37C 326.167,37.3333 325.833,37.6667 325.5,38C 327.854,38.8471 330.188,39.6805 332.5,40.5 Z"/></g>
<g><path style="opacity:1" fill="#6481d3" d="M 251.5,42.5 C 253.659,45.4841 255.325,48.8174 256.5,52.5C 253.675,49.3254 250.341,46.9921 246.5,45.5C 248.144,45.2865 249.644,45.6198 251,46.5C 251.49,45.2068 251.657,43.8734 251.5,42.5 Z"/></g>
<g><path style="opacity:1" fill="#94a7df" d="M 94.5,26.5 C 94.8333,26.5 95.1667,26.5 95.5,26.5C 95.176,33.3543 95.5093,40.021 96.5,46.5C 96.9044,51.7831 96.2377,56.7831 94.5,61.5C 94.5,49.8333 94.5,38.1667 94.5,26.5 Z"/></g>
<g><path style="opacity:1" fill="#ddf1fc" d="M 190.5,38.5 C 191.167,38.5 191.833,38.5 192.5,38.5C 191.895,52.9876 190.728,67.321 189,81.5C 187.938,84.9273 186.771,88.2606 185.5,91.5C 186.62,82.1774 187.62,72.8441 188.5,63.5C 189.084,55.1597 189.751,46.8263 190.5,38.5 Z"/></g>
<g><path style="opacity:1" fill="#d8e0fa" d="M 140.5,41.5 C 138.87,52.2635 137.037,62.9302 135,73.5C 134.337,77.0353 132.837,80.0353 130.5,82.5C 131.831,76.5188 133.165,70.5188 134.5,64.5C 136.057,56.6015 138.057,48.9349 140.5,41.5 Z"/></g>
<g><path style="opacity:1" fill="#5575dd" d="M 332.5,40.5 C 334.912,40.6941 335.912,42.0274 335.5,44.5C 337.288,44.2148 338.955,44.5481 340.5,45.5C 339.147,46.5237 338.48,47.857 338.5,49.5C 343.013,49.4603 344.013,47.7937 341.5,44.5C 341.833,43.5 342.5,42.8333 343.5,42.5C 344.5,43.5 345.5,44.5 346.5,45.5C 343.908,47.2445 343.908,48.9112 346.5,50.5C 344.742,50.8769 343.075,51.5435 341.5,52.5C 340.742,51.1886 339.742,50.6886 338.5,51C 337.167,53 335.833,55 334.5,57C 329.981,58.2102 327.648,61.0435 327.5,65.5C 326.849,66.0906 326.182,66.7573 325.5,67.5C 324.5,66.5 323.5,65.5 322.5,64.5C 323.274,63.2888 324.107,63.2888 325,64.5C 325.64,62.735 325.473,61.0683 324.5,59.5C 326.017,59.4894 327.184,58.8228 328,57.5C 330,54.8333 332,52.1667 334,49.5C 334.793,46.2587 334.293,43.2587 332.5,40.5 Z"/></g>
<g><path style="opacity:1" fill="#f9f9f4" d="M 148.5,39.5 C 154.484,40.0742 160.484,40.4075 166.5,40.5C 168.698,40.1201 170.365,40.7868 171.5,42.5C 171.5,45.5 171.5,48.5 171.5,51.5C 171.5,58.8333 171.5,66.1667 171.5,73.5C 171.623,83.1835 172.123,92.8501 173,102.5C 173.21,104.058 173.71,105.391 174.5,106.5C 175.324,109.764 175.658,113.098 175.5,116.5C 175.44,126.85 175.774,137.183 176.5,147.5C 174.833,147.5 173.167,147.5 171.5,147.5C 165.484,147.407 159.484,147.074 153.5,146.5C 152.791,145.596 151.791,145.263 150.5,145.5C 150.5,140.833 150.5,136.167 150.5,131.5C 148.585,131.216 146.919,131.549 145.5,132.5C 143.586,135.684 142.92,139.351 143.5,143.5C 135.16,142.916 126.826,142.249 118.5,141.5C 120.682,132.589 122.349,123.589 123.5,114.5C 124.15,112.565 124.483,110.565 124.5,108.5C 125.958,102.545 127.291,96.5449 128.5,90.5C 129.924,88.4855 130.59,86.1522 130.5,83.5C 130.5,83.1667 130.5,82.8333 130.5,82.5C 132.837,80.0353 134.337,77.0353 135,73.5C 137.037,62.9302 138.87,52.2635 140.5,41.5C 140.5,41.1667 140.5,40.8333 140.5,40.5C 143.054,39.612 145.721,39.2786 148.5,39.5 Z"/></g>
<g><path style="opacity:1" fill="#f9f9f4" d="M 192.5,38.5 C 210.688,39.637 228.688,41.9704 246.5,45.5C 250.341,46.9921 253.675,49.3254 256.5,52.5C 256.5,52.8333 256.5,53.1667 256.5,53.5C 256.954,56.8651 257.62,60.1985 258.5,63.5C 258.43,64.7716 258.097,65.9383 257.5,67C 260.003,68.5494 260.003,70.2161 257.5,72C 257.957,72.414 258.291,72.914 258.5,73.5C 256.668,88.1734 255.001,102.84 253.5,117.5C 252.5,117.5 251.5,117.5 250.5,117.5C 250.509,115.692 250.009,114.025 249,112.5C 248.833,113.667 248.667,114.833 248.5,116C 249.336,118.49 250.002,120.99 250.5,123.5C 248.326,123.08 246.326,123.08 244.5,123.5C 245.333,125.167 246.167,126.833 247,128.5C 247.202,141.859 247.702,155.193 248.5,168.5C 248.113,170.274 247.447,171.941 246.5,173.5C 247.246,174.736 247.579,176.07 247.5,177.5C 242.587,176.895 237.587,176.895 232.5,177.5C 231.833,177.5 231.167,177.5 230.5,177.5C 226.971,175.577 222.971,174.911 218.5,175.5C 219.144,160.175 219.477,144.842 219.5,129.5C 217.234,129.141 215.401,129.808 214,131.5C 213.667,137.5 213.333,143.5 213,149.5C 212.282,148.549 211.449,148.383 210.5,149C 211.146,152.081 211.479,155.248 211.5,158.5C 211.607,163.704 210.941,168.704 209.5,173.5C 199.436,173.653 189.436,172.986 179.5,171.5C 181.066,159.232 181.733,146.898 181.5,134.5C 183.081,120.189 184.414,105.855 185.5,91.5C 186.771,88.2606 187.938,84.9273 189,81.5C 190.728,67.321 191.895,52.9876 192.5,38.5 Z"/></g>
<g><path style="opacity:1" fill="#7280d9" d="M 56.5,52.5 C 57.3149,53.4293 58.1482,54.4293 59,55.5C 59.53,59.5828 60.3633,63.5828 61.5,67.5C 60.8333,66.8333 60.1667,66.1667 59.5,65.5C 58.2931,61.2131 57.2931,56.8797 56.5,52.5 Z"/></g>
<g><path style="opacity:1" fill="#5474d4" d="M 171.5,42.5 C 173.225,51.6066 173.892,60.94 173.5,70.5C 172.833,64.1667 172.167,57.8333 171.5,51.5C 171.5,48.5 171.5,45.5 171.5,42.5 Z"/></g>
<g><path style="opacity:1" fill="#5373dc" d="M 346.5,66.5 C 342.778,65.6799 340.445,67.0132 339.5,70.5C 338.833,70.1667 338.167,69.8333 337.5,69.5C 336.134,68.0802 334.8,66.5802 333.5,65C 336.038,60.9471 339.205,60.1138 343,62.5C 345.598,61.5362 346.098,59.8696 344.5,57.5C 345.665,56.4164 346.998,55.5831 348.5,55C 347.695,53.8873 347.028,52.7206 346.5,51.5C 347.859,50.9935 348.859,49.9935 349.5,48.5C 349.833,49.1667 350.167,49.8333 350.5,50.5C 349.945,53.1022 349.779,55.7689 350,58.5C 349.586,58.0426 349.086,57.7093 348.5,57.5C 347.692,59.4233 347.192,61.4233 347,63.5C 346.25,64.1258 345.416,64.6258 344.5,65C 345.416,65.2784 346.082,65.7784 346.5,66.5 Z"/></g>
<g><path style="opacity:1" fill="#5f77dc" d="M 342.5,87.5 C 343.122,86.3734 343.955,85.3734 345,84.5C 345.141,80.4112 345.308,76.4112 345.5,72.5C 346.086,72.7093 346.586,73.0426 347,73.5C 347.027,76.911 347.194,80.2443 347.5,83.5C 348.868,84.5937 350.035,84.2603 351,82.5C 352.378,76.5298 351.211,71.1965 347.5,66.5C 349.176,65.8166 349.843,64.4832 349.5,62.5C 350.978,62.238 352.311,62.5713 353.5,63.5C 353.171,69.7793 353.004,76.1127 353,82.5C 350.239,85.5768 346.739,87.2435 342.5,87.5 Z"/></g>
<g><path style="opacity:1" fill="#6f8bd5" d="M 222.5,65.5 C 223.822,65.33 224.989,65.6634 226,66.5C 226.864,73.4083 226.364,80.075 224.5,86.5C 224.539,81.8156 224.872,77.1489 225.5,72.5C 225.167,70.8333 224.833,69.1667 224.5,67.5C 223.817,67.8627 223.15,68.1961 222.5,68.5C 222.5,67.5 222.5,66.5 222.5,65.5 Z"/></g>
<g><path style="opacity:1" fill="#faf9f4" d="M 284.5,134.5 C 285.779,135.715 286.779,135.382 287.5,133.5C 288.497,111.34 288.831,89.0062 288.5,66.5C 294.758,66.1903 300.924,66.5236 307,67.5C 307.667,92.5 307.667,117.5 307,142.5C 305.812,143.563 305.312,144.897 305.5,146.5C 305.167,147.167 304.833,147.833 304.5,148.5C 294.175,152.52 283.508,153.52 272.5,151.5C 270.131,150.31 268.131,148.643 266.5,146.5C 265.234,143.699 264.401,140.699 264,137.5C 263.5,114.169 263.333,90.8357 263.5,67.5C 270.085,66.9693 276.585,66.9693 283,67.5C 283.168,90.0037 283.668,112.337 284.5,134.5 Z"/></g>
<g><path style="opacity:1" fill="#5872b9" d="M 356.5,23.5 C 357.665,75.3317 357.832,127.332 357,179.5C 356.768,180.737 356.268,181.737 355.5,182.5C 356.483,129.523 356.816,76.5231 356.5,23.5 Z"/></g>
<g><path style="opacity:1" fill="#6c96dc" d="M 12.5,37.5 C 12.0737,64.1652 11.7403,90.8319 11.5,117.5C 11.5,117.833 11.5,118.167 11.5,118.5C 11.1667,118.5 10.8333,118.5 10.5,118.5C 10.5,99.8333 10.5,81.1667 10.5,62.5C 10.86,53.9932 11.5267,45.6599 12.5,37.5 Z"/></g>
<g><path style="opacity:1" fill="#ebe5fa" d="M 59.5,65.5 C 60.1667,66.1667 60.8333,66.8333 61.5,67.5C 61.8333,69.5 62.1667,71.5 62.5,73.5C 63.6816,79.2253 65.015,84.8919 66.5,90.5C 65.2101,89.9423 64.3768,88.9423 64,87.5C 62.5912,82.1825 60.7579,77.0159 58.5,72C 59.2865,69.9011 59.6199,67.7345 59.5,65.5 Z"/></g>
<g><path style="opacity:1" fill="#c1cdf6" d="M 171.5,51.5 C 172.167,57.8333 172.833,64.1667 173.5,70.5C 173.5,73.1667 173.5,75.8333 173.5,78.5C 172.833,76.8333 172.167,75.1667 171.5,73.5C 171.5,66.1667 171.5,58.8333 171.5,51.5 Z"/></g>
<g><path style="opacity:1" fill="#f5f0fd" d="M 256.5,53.5 C 259.227,57.3162 260.56,61.6496 260.5,66.5C 259.7,74.4946 259.034,82.4946 258.5,90.5C 257.234,97.6365 256.401,104.97 256,112.5C 255.195,116.776 253.362,120.443 250.5,123.5C 250.002,120.99 249.336,118.49 248.5,116C 248.667,114.833 248.833,113.667 249,112.5C 250.009,114.025 250.509,115.692 250.5,117.5C 251.5,117.5 252.5,117.5 253.5,117.5C 255.001,102.84 256.668,88.1734 258.5,73.5C 258.291,72.914 257.957,72.414 257.5,72C 260.003,70.2161 260.003,68.5494 257.5,67C 258.097,65.9383 258.43,64.7716 258.5,63.5C 257.62,60.1985 256.954,56.8651 256.5,53.5 Z"/></g>
<g><path style="opacity:1" fill="#728bd9" d="M 284.5,65.5 C 285.302,66.9516 285.802,68.6183 286,70.5C 286.198,68.6183 286.698,66.9516 287.5,65.5C 287.5,88.1667 287.5,110.833 287.5,133.5C 286.779,135.382 285.779,135.715 284.5,134.5C 284.5,111.5 284.5,88.5 284.5,65.5 Z"/></g>
<g><path style="opacity:1" fill="#e8f2fe" d="M 287.5,65.5 C 294.833,65.5 302.167,65.5 309.5,65.5C 309.815,91.2113 309.482,116.878 308.5,142.5C 308.262,144.404 307.262,145.738 305.5,146.5C 305.312,144.897 305.812,143.563 307,142.5C 307.667,117.5 307.667,92.5 307,67.5C 300.924,66.5236 294.758,66.1903 288.5,66.5C 288.831,89.0062 288.497,111.34 287.5,133.5C 287.5,110.833 287.5,88.1667 287.5,65.5 Z"/></g>
<g><path style="opacity:1" fill="#4c70dc" d="M 310.5,66.5 C 311.332,83.6618 311.832,100.995 312,118.5C 313.333,117.167 314.667,117.167 316,118.5C 316.333,120.5 316.667,122.5 317,124.5C 317.757,122.685 318.59,121.019 319.5,119.5C 318.741,124.43 317.408,129.097 315.5,133.5C 315.665,129.818 315.499,126.152 315,122.5C 314.558,120.321 313.558,119.655 312,120.5C 311.833,123.667 311.667,126.833 311.5,130C 311.515,133.576 312.182,136.742 313.5,139.5C 312.791,140.404 311.791,140.737 310.5,140.5C 310.5,115.833 310.5,91.1667 310.5,66.5 Z"/></g>
<g><path style="opacity:1" fill="#eff4fa" d="M 346.5,50.5 C 346.5,50.8333 346.5,51.1667 346.5,51.5C 347.028,52.7206 347.695,53.8873 348.5,55C 346.998,55.5831 345.665,56.4164 344.5,57.5C 346.098,59.8696 345.598,61.5362 343,62.5C 339.205,60.1138 336.038,60.9471 333.5,65C 334.8,66.5802 336.134,68.0802 337.5,69.5C 337.539,70.5832 337.873,71.5832 338.5,72.5C 335.9,75.2937 335.9,78.127 338.5,81C 339.6,81.4317 340.267,80.9317 340.5,79.5C 339.698,76.5514 339.364,73.5514 339.5,70.5C 340.445,67.0132 342.778,65.6799 346.5,66.5C 346.833,66.5 347.167,66.5 347.5,66.5C 351.211,71.1965 352.378,76.5298 351,82.5C 350.035,84.2603 348.868,84.5937 347.5,83.5C 347.194,80.2443 347.027,76.911 347,73.5C 346.586,73.0426 346.086,72.7093 345.5,72.5C 345.308,76.4112 345.141,80.4112 345,84.5C 343.955,85.3734 343.122,86.3734 342.5,87.5C 337.071,87.5741 333.904,84.9075 333,79.5C 332.821,76.4465 332.321,73.4465 331.5,70.5C 329.918,68.9853 328.584,67.3186 327.5,65.5C 327.648,61.0435 329.981,58.2102 334.5,57C 335.833,55 337.167,53 338.5,51C 339.742,50.6886 340.742,51.1886 341.5,52.5C 343.075,51.5435 344.742,50.8769 346.5,50.5 Z"/></g>
<g><path style="opacity:1" fill="#e8f7fd" d="M 222.5,65.5 C 223.919,64.5489 225.585,64.2155 227.5,64.5C 227.616,72.4836 227.949,80.4836 228.5,88.5C 225.92,94.4677 224.753,100.801 225,107.5C 224.13,111.056 221.963,112.556 218.5,112C 217.262,111.31 217.262,110.81 218.5,110.5C 220.39,110.703 221.89,110.037 223,108.5C 223.611,103.504 224.111,98.504 224.5,93.5C 224.5,91.1667 224.5,88.8333 224.5,86.5C 226.364,80.075 226.864,73.4083 226,66.5C 224.989,65.6634 223.822,65.33 222.5,65.5 Z"/></g>
<g><path style="opacity:1" fill="#5274da" d="M 118.5,51.5 C 118.833,51.5 119.167,51.5 119.5,51.5C 119.197,56.43 119.531,61.2633 120.5,66C 119.747,67.487 118.914,67.6537 118,66.5C 117.833,67.8333 117.667,69.1667 117.5,70.5C 119.086,75.6884 119.753,81.0218 119.5,86.5C 118.833,84.1667 118.167,81.8333 117.5,79.5C 116.617,74.8969 116.283,70.2303 116.5,65.5C 116.5,64.8333 116.5,64.1667 116.5,63.5C 117.378,59.6643 118.044,55.6643 118.5,51.5 Z"/></g>
<g><path style="opacity:1" fill="#5071dd" d="M 224.5,86.5 C 224.5,88.8333 224.5,91.1667 224.5,93.5C 223.113,95.8766 222.279,98.5432 222,101.5C 221.5,94.8417 221.334,88.175 221.5,81.5C 222.08,77.19 222.414,72.8566 222.5,68.5C 223.15,68.1961 223.817,67.8627 224.5,67.5C 224.833,69.1667 225.167,70.8333 225.5,72.5C 224.872,77.1489 224.539,81.8156 224.5,86.5 Z"/></g>
<g><path style="opacity:1" fill="#e8f9fe" d="M 12.5,37.5 C 12.8333,37.5 13.1667,37.5 13.5,37.5C 13.6666,60.1691 13.5,82.8358 13,105.5C 12.8238,109.688 12.3238,113.688 11.5,117.5C 11.7403,90.8319 12.0737,64.1652 12.5,37.5 Z"/></g>
<g><path style="opacity:1" fill="#6b84c8" d="M 337.5,69.5 C 338.167,69.8333 338.833,70.1667 339.5,70.5C 339.364,73.5514 339.698,76.5514 340.5,79.5C 340.267,80.9317 339.6,81.4317 338.5,81C 335.9,78.127 335.9,75.2937 338.5,72.5C 337.873,71.5832 337.539,70.5832 337.5,69.5 Z"/></g>
<g><path style="opacity:1" fill="#93a8e2" d="M 94.5,76.5 C 94.8333,76.5 95.1667,76.5 95.5,76.5C 96.254,81.4635 96.5874,86.4635 96.5,91.5C 95.8333,98.1667 95.1667,104.833 94.5,111.5C 94.5,99.8333 94.5,88.1667 94.5,76.5 Z"/></g>
<g><path style="opacity:1" fill="#b5c1f4" d="M 117.5,79.5 C 118.167,81.8333 118.833,84.1667 119.5,86.5C 119.5,88.5 119.5,90.5 119.5,92.5C 117.946,88.4333 117.28,84.1 117.5,79.5 Z"/></g>
<g><path style="opacity:1" fill="#eaf2fe" d="M 262.5,65.5 C 269.833,65.5 277.167,65.5 284.5,65.5C 284.5,88.5 284.5,111.5 284.5,134.5C 283.668,112.337 283.168,90.0037 283,67.5C 276.585,66.9693 270.085,66.9693 263.5,67.5C 263.333,90.8357 263.5,114.169 264,137.5C 264.401,140.699 265.234,143.699 266.5,146.5C 264.331,144.66 262.998,142.326 262.5,139.5C 262.5,114.833 262.5,90.1667 262.5,65.5 Z"/></g>
<g><path style="opacity:1" fill="#5171dc" d="M 94.5,26.5 C 93.8333,26.5 93.1667,26.5 92.5,26.5C 85.8333,26.5 79.1667,26.5 72.5,26.5C 71.8333,52.8333 71.1667,79.1667 70.5,105.5C 69.5321,100.346 68.1988,95.346 66.5,90.5C 65.015,84.8919 63.6816,79.2253 62.5,73.5C 63.1499,73.8039 63.8165,74.1373 64.5,74.5C 65.1667,77.1667 65.8333,79.8333 66.5,82.5C 68.8839,85.3102 70.2172,84.8102 70.5,81C 69.7088,66.8547 69.2088,52.6881 69,38.5C 68.3097,36.2848 67.4764,34.1181 66.5,32C 67.0767,29.863 67.41,27.6963 67.5,25.5C 69.143,25.5198 70.4763,24.8532 71.5,23.5C 79.1465,25.102 86.8132,26.102 94.5,26.5 Z"/></g>
<g><path style="opacity:1" fill="#517dd3" d="M 188.5,63.5 C 187.62,72.8441 186.62,82.1774 185.5,91.5C 184.414,105.855 183.081,120.189 181.5,134.5C 181.167,134.5 180.833,134.5 180.5,134.5C 182.553,113.193 184.387,91.8593 186,70.5C 186.39,67.8958 187.224,65.5625 188.5,63.5 Z"/></g>
<g><path style="opacity:1" fill="#acbbec" d="M 130.5,83.5 C 130.59,86.1522 129.924,88.4855 128.5,90.5C 128.41,87.8478 129.076,85.5145 130.5,83.5 Z"/></g>
<g><path style="opacity:1" fill="#4e72dc" d="M 134.5,64.5 C 133.165,70.5188 131.831,76.5188 130.5,82.5C 130.5,82.8333 130.5,83.1667 130.5,83.5C 129.076,85.5145 128.41,87.8478 128.5,90.5C 127.291,96.5449 125.958,102.545 124.5,108.5C 123.1,107.9 122.1,106.9 121.5,105.5C 121.201,101.072 120.535,96.7391 119.5,92.5C 119.5,90.5 119.5,88.5 119.5,86.5C 120.117,86.6107 120.617,86.944 121,87.5C 121.114,92.3236 121.947,96.9903 123.5,101.5C 126.371,90.0158 129.204,78.3492 132,66.5C 132.708,65.6195 133.542,64.9528 134.5,64.5 Z"/></g>
<g><path style="opacity:1" fill="#5677da" d="M 327.5,65.5 C 328.584,67.3186 329.918,68.9853 331.5,70.5C 332.321,73.4465 332.821,76.4465 333,79.5C 333.904,84.9075 337.071,87.5741 342.5,87.5C 341.061,89.588 340.394,91.9214 340.5,94.5C 339.448,94.3505 338.448,94.5172 337.5,95C 339.81,95.4966 342.143,95.6633 344.5,95.5C 344.5,96.5 344.5,97.5 344.5,98.5C 341.598,97.4222 338.598,96.7556 335.5,96.5C 333.162,94.9605 330.495,94.2938 327.5,94.5C 327.784,96.4147 327.451,98.0813 326.5,99.5C 326.5,97.5 326.5,95.5 326.5,93.5C 329.898,93.8204 333.232,93.487 336.5,92.5C 339.463,88.7691 338.463,87.1024 333.5,87.5C 331.915,82.3218 331.248,76.9884 331.5,71.5C 328.221,70.9694 326.887,68.9694 327.5,65.5 Z"/></g>
<g><path style="opacity:1" fill="#e6eefc" d="M 171.5,73.5 C 172.167,75.1667 172.833,76.8333 173.5,78.5C 174.317,87.8092 174.65,97.1425 174.5,106.5C 173.71,105.391 173.21,104.058 173,102.5C 172.123,92.8501 171.623,83.1835 171.5,73.5 Z"/></g>
<g><path style="opacity:1" fill="#eef2fd" d="M 72.5,26.5 C 79.1667,26.5 85.8333,26.5 92.5,26.5C 86.2313,26.8816 80.0647,27.8816 74,29.5C 73.3333,55.8333 73.3333,82.1667 74,108.5C 79.4462,109.806 84.9462,109.806 90.5,108.5C 89.0791,105.572 90.0791,104.238 93.5,104.5C 93.1731,94.985 93.5064,85.6517 94.5,76.5C 94.5,88.1667 94.5,99.8333 94.5,111.5C 87.5,111.5 80.5,111.5 73.5,111.5C 73.2155,113.415 73.5489,115.081 74.5,116.5C 78.1847,129.913 81.8513,143.247 85.5,156.5C 86.1495,158.435 86.4828,160.435 86.5,162.5C 84.0428,161.977 81.7094,161.144 79.5,160C 80.5634,158.812 81.8967,158.312 83.5,158.5C 83.0022,155.513 82.5022,152.513 82,149.5C 76.9904,139.802 73.9904,129.469 73,118.5C 71.9326,117.809 70.7659,117.309 69.5,117C 71.3137,114.519 71.9804,111.685 71.5,108.5C 72.4979,81.3384 72.8312,54.0051 72.5,26.5 Z"/></g>
<g><path style="opacity:1" fill="#6a82d6" d="M 221.5,81.5 C 221.334,88.175 221.5,94.8417 222,101.5C 222.279,98.5432 223.113,95.8766 224.5,93.5C 224.111,98.504 223.611,103.504 223,108.5C 221.89,110.037 220.39,110.703 218.5,110.5C 218.711,100.611 219.711,90.9443 221.5,81.5 Z"/></g>
<g><path style="opacity:1" fill="#eae6fb" d="M 66.5,90.5 C 68.1988,95.346 69.5321,100.346 70.5,105.5C 71.1098,106.391 71.4431,107.391 71.5,108.5C 68.2151,103.166 66.5484,97.1657 66.5,90.5 Z"/></g>
<g><path style="opacity:1" fill="#e8effa" d="M 152.5,72.5 C 153.661,86.3272 153.827,100.327 153,114.5C 152.096,119.461 149.763,120.461 146,117.5C 145.833,116.667 145.667,115.833 145.5,115C 147.145,102.878 148.645,90.7115 150,78.5C 151.319,76.7128 152.152,74.7128 152.5,72.5 Z"/></g>
<g><path style="opacity:1" fill="#7388ca" d="M 150.5,91.5 C 151.477,94.2869 151.81,97.2869 151.5,100.5C 151.5,105.833 151.5,111.167 151.5,116.5C 150.167,116.5 148.833,116.5 147.5,116.5C 147.232,114.901 147.566,113.568 148.5,112.5C 148.281,113.675 148.614,114.675 149.5,115.5C 150.657,112.216 150.824,108.882 150,105.5C 149.79,107.058 149.29,108.391 148.5,109.5C 149.167,103.5 149.833,97.5 150.5,91.5 Z"/></g>
<g><path style="opacity:1" fill="#9faee4" d="M 151.5,100.5 C 151.81,97.2869 151.477,94.2869 150.5,91.5C 151.221,80.9576 151.887,81.1243 152.5,92C 152.498,95.0208 152.164,97.8541 151.5,100.5 Z"/></g>
<g><path style="opacity:1" fill="#e8e4f7" d="M 39.5,89.5 C 39.5,91.1667 39.5,92.8333 39.5,94.5C 38.8442,95.6216 38.5108,96.9549 38.5,98.5C 39.7593,110.517 41.426,122.184 43.5,133.5C 43.2942,135.549 42.4609,135.883 41,134.5C 38.4182,118.609 36.9182,102.609 36.5,86.5C 37.5,86.5 38.5,86.5 39.5,86.5C 39.5,87.5 39.5,88.5 39.5,89.5 Z"/></g>
<g><path style="opacity:1" fill="#5c74c0" d="M 96.5,91.5 C 96.7129,98.1741 97.0462,104.841 97.5,111.5C 105.5,111.5 113.5,111.5 121.5,111.5C 121.5,109.5 121.5,107.5 121.5,105.5C 122.1,106.9 123.1,107.9 124.5,108.5C 124.483,110.565 124.15,112.565 123.5,114.5C 123.167,114.5 122.833,114.5 122.5,114.5C 106.868,112.515 90.8683,111.849 74.5,112.5C 74.5,113.833 74.5,115.167 74.5,116.5C 73.5489,115.081 73.2155,113.415 73.5,111.5C 80.5,111.5 87.5,111.5 94.5,111.5C 95.1667,104.833 95.8333,98.1667 96.5,91.5 Z"/></g>
<g><path style="opacity:1" fill="#ebf3fd" d="M 116.5,65.5 C 116.283,70.2303 116.617,74.8969 117.5,79.5C 117.28,84.1 117.946,88.4333 119.5,92.5C 120.535,96.7391 121.201,101.072 121.5,105.5C 121.5,107.5 121.5,109.5 121.5,111.5C 113.5,111.5 105.5,111.5 97.5,111.5C 97.0462,104.841 96.7129,98.1741 96.5,91.5C 96.5874,86.4635 96.254,81.4635 95.5,76.5C 96.8791,83.9771 98.5458,91.6437 100.5,99.5C 99.3,102.833 99.3,106.167 100.5,109.5C 106.5,109.5 112.5,109.5 118.5,109.5C 118.723,107.658 119.057,105.825 119.5,104C 116.2,91.1689 115.2,78.3355 116.5,65.5 Z"/></g>
<g><path style="opacity:1" fill="#6f85db" d="M 260.5,51.5 C 260.179,52.8175 259.846,54.1508 259.5,55.5C 260.835,58.8642 261.835,62.1976 262.5,65.5C 262.5,90.1667 262.5,114.833 262.5,139.5C 262.167,139.5 261.833,139.5 261.5,139.5C 260.694,122.21 260.194,104.877 260,87.5C 259.768,88.7375 259.268,89.7375 258.5,90.5C 259.034,82.4946 259.7,74.4946 260.5,66.5C 260.56,61.6496 259.227,57.3162 256.5,53.5C 256.5,53.1667 256.5,52.8333 256.5,52.5C 257.833,52.1667 259.167,51.8333 260.5,51.5 Z"/></g>
<g><path style="opacity:1" fill="#faf9f3" d="M 335.5,96.5 C 338.865,98.4623 342.532,99.9623 346.5,101C 347.76,102.814 347.76,104.647 346.5,106.5C 344.696,105.284 343.029,104.284 341.5,103.5C 341.167,104.667 340.833,105.833 340.5,107C 341.744,110.53 342.744,114.196 343.5,118C 342.683,119.49 341.85,120.99 341,122.5C 339.456,119.736 338.289,119.903 337.5,123C 338.669,129.176 338.336,135.343 336.5,141.5C 335.784,143.482 334.617,145.149 333,146.5C 332.28,148.112 332.446,149.612 333.5,151C 329.737,161.358 326.403,171.025 323.5,180C 324.712,181.107 324.379,181.607 322.5,181.5C 319.88,178.621 316.546,177.288 312.5,177.5C 312.318,175.409 312.652,173.409 313.5,171.5C 312.675,170.614 311.675,170.281 310.5,170.5C 310.5,172.167 310.5,173.833 310.5,175.5C 309.167,175.5 307.833,175.5 306.5,175.5C 306.956,172.356 307.956,169.356 309.5,166.5C 314.138,169.543 315.138,168.876 312.5,164.5C 313.209,160.923 314.209,160.756 315.5,164C 316.448,164.483 317.448,164.649 318.5,164.5C 317.103,160.674 315.77,156.841 314.5,153C 316.905,149.725 318.239,146.058 318.5,142C 317.94,138.158 317.773,134.324 318,130.5C 318.415,128.709 319.415,127.376 321,126.5C 321.333,124.167 321.667,121.833 322,119.5C 325.276,118.273 327.109,115.94 327.5,112.5C 328.5,112.5 329.5,112.5 330.5,112.5C 330.238,113.978 330.571,115.311 331.5,116.5C 331.833,115.5 332.167,114.5 332.5,113.5C 331.558,110.863 330.558,108.196 329.5,105.5C 328.534,107.396 328.201,109.396 328.5,111.5C 327.5,111.5 326.5,111.5 325.5,111.5C 326.167,107.833 326.833,104.167 327.5,100.5C 330.971,100.101 331.304,98.6006 328.5,96C 330.797,95.9822 333.131,96.1489 335.5,96.5 Z"/></g>
<g><path style="opacity:1" fill="#dbf2fc" d="M 39.5,89.5 C 41.9672,101.29 44.1338,113.29 46,125.5C 46.6924,126.025 47.1924,126.692 47.5,127.5C 47.0409,130.275 46.3743,132.275 45.5,133.5C 43.4988,120.46 41.4988,107.46 39.5,94.5C 39.5,92.8333 39.5,91.1667 39.5,89.5 Z"/></g>
<g><path style="opacity:1" fill="#5470d2" d="M 148.5,112.5 C 148.5,111.5 148.5,110.5 148.5,109.5C 149.29,108.391 149.79,107.058 150,105.5C 150.824,108.882 150.657,112.216 149.5,115.5C 148.614,114.675 148.281,113.675 148.5,112.5 Z"/></g>
<g><path style="opacity:1" fill="#768bd3" d="M 39.5,94.5 C 41.4988,107.46 43.4988,120.46 45.5,133.5C 44.8333,133.5 44.1667,133.5 43.5,133.5C 41.426,122.184 39.7593,110.517 38.5,98.5C 38.5108,96.9549 38.8442,95.6216 39.5,94.5 Z"/></g>
<g><path style="opacity:1" fill="#4770e9" d="M 355.5,20.5 C 356.404,21.209 356.737,22.209 356.5,23.5C 356.816,76.5231 356.483,129.523 355.5,182.5C 354.883,182.389 354.383,182.056 354,181.5C 352.86,184.102 352.027,186.769 351.5,189.5C 350.386,192.404 348.386,194.404 345.5,195.5C 342.654,195.59 340.321,196.756 338.5,199C 233.834,199.5 129.167,199.667 24.5,199.5C 24.1667,199.5 23.8333,199.5 23.5,199.5C 23.5858,198.504 23.2524,197.671 22.5,197C 23.3081,196.692 23.9747,196.192 24.5,195.5C 22.8872,194.573 21.2205,193.739 19.5,193C 19.9574,192.586 20.2907,192.086 20.5,191.5C 18.3435,190.21 16.0101,189.376 13.5,189C 12.7239,186.013 11.0572,185.18 8.5,186.5C 7.57481,185.643 6.90814,184.643 6.5,183.5C 6.19,180.287 6.52333,177.287 7.5,174.5C 8.5,174.5 9.5,174.5 10.5,174.5C 12.1667,174.5 13.8333,174.5 15.5,174.5C 25.912,174.156 36.2453,173.156 46.5,171.5C 46.687,165.788 46.3537,160.121 45.5,154.5C 46.9587,154.433 48.2921,154.766 49.5,155.5C 49.5,155.833 49.5,156.167 49.5,156.5C 49.3343,160.846 49.501,165.179 50,169.5C 53.3605,170.658 56.5272,170.325 59.5,168.5C 59.8333,168.5 60.1667,168.5 60.5,168.5C 69.1517,167.854 77.8184,167.521 86.5,167.5C 86.5,166.5 86.5,165.5 86.5,164.5C 86.5,163.833 86.5,163.167 86.5,162.5C 86.4828,160.435 86.1495,158.435 85.5,156.5C 84.538,149.09 84.538,141.757 85.5,134.5C 83.8693,136.059 83.036,138.059 83,140.5C 82.6667,140.167 82.3333,139.833 82,139.5C 81.9536,133.858 80.7869,128.525 78.5,123.5C 81.6518,118.942 80.3185,116.609 74.5,116.5C 74.5,115.167 74.5,113.833 74.5,112.5C 90.8683,111.849 106.868,112.515 122.5,114.5C 120.007,124.129 118.007,133.796 116.5,143.5C 125.674,144.957 135.008,146.29 144.5,147.5C 143.001,148.904 143.334,149.57 145.5,149.5C 150.166,148.76 154.833,148.093 159.5,147.5C 159.5,148.5 159.5,149.5 159.5,150.5C 165.484,149.926 171.484,149.593 177.5,149.5C 177.99,156.38 177.324,163.047 175.5,169.5C 175.64,171.03 176.307,172.03 177.5,172.5C 179.717,173.369 182.05,173.702 184.5,173.5C 188.545,175.177 192.878,175.844 197.5,175.5C 197.833,175.5 198.167,175.5 198.5,175.5C 205.33,176.426 212.33,177.093 219.5,177.5C 221.5,177.5 223.5,177.5 225.5,177.5C 231.939,179.073 238.606,180.073 245.5,180.5C 247.369,180.493 249.036,180.16 250.5,179.5C 251.331,165.006 251.831,150.339 252,135.5C 252.333,135.167 252.667,134.833 253,134.5C 253.667,135.833 254.333,137.167 255,138.5C 255.71,137.027 256.876,136.36 258.5,136.5C 258.5,138.167 258.5,139.833 258.5,141.5C 257.325,141.281 256.325,141.614 255.5,142.5C 257.636,143.472 258.803,145.139 259,147.5C 260.061,144.834 260.894,142.167 261.5,139.5C 261.833,139.5 262.167,139.5 262.5,139.5C 262.998,142.326 264.331,144.66 266.5,146.5C 268.131,148.643 270.131,150.31 272.5,151.5C 275.938,152.823 279.771,153.49 284,153.5C 290.336,153.791 296.502,152.958 302.5,151C 303.756,150.583 304.423,149.75 304.5,148.5C 304.833,147.833 305.167,147.167 305.5,146.5C 307.262,145.738 308.262,144.404 308.5,142.5C 310.318,140.922 311.318,141.422 311.5,144C 309.669,149.001 308.335,154.168 307.5,159.5C 307.5,159.833 307.5,160.167 307.5,160.5C 305.933,161.681 305.099,163.347 305,165.5C 302.38,164.077 299.88,164.243 297.5,166C 299.473,166.495 301.473,166.662 303.5,166.5C 302.316,169.148 300.982,171.815 299.5,174.5C 299.637,176.107 300.304,177.441 301.5,178.5C 309.123,179.631 316.623,181.297 324,183.5C 325.376,183.316 326.209,182.649 326.5,181.5C 330.088,166.787 334.421,152.454 339.5,138.5C 341.104,137.713 341.771,136.38 341.5,134.5C 344.595,134.374 346.428,132.707 347,129.5C 347.01,125.53 347.01,121.864 347,118.5C 347.893,119.711 348.726,119.711 349.5,118.5C 350.046,117.228 350.379,115.894 350.5,114.5C 349.45,109.177 349.45,103.843 350.5,98.5C 348.833,98.5 347.167,98.5 345.5,98.5C 345.167,98.5 344.833,98.5 344.5,98.5C 344.5,97.5 344.5,96.5 344.5,95.5C 342.143,95.6633 339.81,95.4966 337.5,95C 338.448,94.5172 339.448,94.3505 340.5,94.5C 340.394,91.9214 341.061,89.588 342.5,87.5C 346.739,87.2435 350.239,85.5768 353,82.5C 353.004,76.1127 353.171,69.7793 353.5,63.5C 352.311,62.5713 350.978,62.238 349.5,62.5C 349.843,64.4832 349.176,65.8166 347.5,66.5C 347.167,66.5 346.833,66.5 346.5,66.5C 346.082,65.7784 345.416,65.2784 344.5,65C 345.416,64.6258 346.25,64.1258 347,63.5C 347.192,61.4233 347.692,59.4233 348.5,57.5C 349.086,57.7093 349.586,58.0426 350,58.5C 349.779,55.7689 349.945,53.1022 350.5,50.5C 350.167,49.8333 349.833,49.1667 349.5,48.5C 348.859,49.9935 347.859,50.9935 346.5,51.5C 346.5,51.1667 346.5,50.8333 346.5,50.5C 343.908,48.9112 343.908,47.2445 346.5,45.5C 345.5,44.5 344.5,43.5 343.5,42.5C 342.5,42.8333 341.833,43.5 341.5,44.5C 344.013,47.7937 343.013,49.4603 338.5,49.5C 338.48,47.857 339.147,46.5237 340.5,45.5C 338.955,44.5481 337.288,44.2148 335.5,44.5C 335.912,42.0274 334.912,40.6941 332.5,40.5C 333.349,37.9641 334.349,35.4641 335.5,33C 333.866,32.5065 332.199,32.3398 330.5,32.5C 330.5,34.1667 330.5,35.8333 330.5,37.5C 328.24,36.8611 326.24,35.6945 324.5,34C 323.833,32.6667 323.167,31.3333 322.5,30C 324.813,29.338 327.146,28.838 329.5,28.5C 329.003,26.4028 328.67,24.5695 328.5,23C 330.313,23.0464 331.979,22.8797 333.5,22.5C 334.167,23.1667 334.833,23.8333 335.5,24.5C 338.351,23.9879 339.684,22.3213 339.5,19.5C 341.806,19.0074 344.139,18.6741 346.5,18.5C 346.238,19.9778 346.571,21.3112 347.5,22.5C 349.804,19.947 352.47,19.2804 355.5,20.5 Z"/></g>
<g><path style="opacity:1" fill="#eaf8fe" d="M 347.5,8.5 C 348.552,8.35055 349.552,8.51722 350.5,9C 354.314,12.7819 356.814,17.2819 358,22.5C 358.667,76.1667 358.667,129.833 358,183.5C 357.502,185.544 356.335,186.878 354.5,187.5C 355.038,185.883 355.371,184.216 355.5,182.5C 356.268,181.737 356.768,180.737 357,179.5C 357.832,127.332 357.665,75.3317 356.5,23.5C 356.737,22.209 356.404,21.209 355.5,20.5C 354.641,16.1081 352.307,12.7747 348.5,10.5C 348.167,9.83333 347.833,9.16667 347.5,8.5 Z"/></g>
<g><path style="opacity:1" fill="#5272e3" d="M 261.5,139.5 C 260.894,142.167 260.061,144.834 259,147.5C 258.803,145.139 257.636,143.472 255.5,142.5C 256.325,141.614 257.325,141.281 258.5,141.5C 258.5,139.833 258.5,138.167 258.5,136.5C 256.876,136.36 255.71,137.027 255,138.5C 254.333,137.167 253.667,135.833 253,134.5C 252.667,134.833 252.333,135.167 252,135.5C 251.831,150.339 251.331,165.006 250.5,179.5C 250.886,165.626 250.219,151.96 248.5,138.5C 248.334,134.154 248.501,129.821 249,125.5C 249.717,124.956 250.217,124.289 250.5,123.5C 253.362,120.443 255.195,116.776 256,112.5C 256.401,104.97 257.234,97.6365 258.5,90.5C 259.268,89.7375 259.768,88.7375 260,87.5C 260.194,104.877 260.694,122.21 261.5,139.5 Z"/></g>
<g><path style="opacity:1" fill="#5c76df" d="M 74.5,116.5 C 80.3185,116.609 81.6518,118.942 78.5,123.5C 80.7869,128.525 81.9536,133.858 82,139.5C 82.3333,139.833 82.6667,140.167 83,140.5C 83.036,138.059 83.8693,136.059 85.5,134.5C 84.538,141.757 84.538,149.09 85.5,156.5C 81.8513,143.247 78.1847,129.913 74.5,116.5 Z"/></g>
<g><path style="opacity:1" fill="#eef2fa" d="M 335.5,96.5 C 338.598,96.7556 341.598,97.4222 344.5,98.5C 344.833,98.5 345.167,98.5 345.5,98.5C 346.568,99.4345 347.901,99.7678 349.5,99.5C 346.164,112.516 342.831,125.516 339.5,138.5C 334.421,152.454 330.088,166.787 326.5,181.5C 325.039,182.686 323.705,182.686 322.5,181.5C 324.379,181.607 324.712,181.107 323.5,180C 326.403,171.025 329.737,161.358 333.5,151C 332.446,149.612 332.28,148.112 333,146.5C 334.617,145.149 335.784,143.482 336.5,141.5C 338.336,135.343 338.669,129.176 337.5,123C 338.289,119.903 339.456,119.736 341,122.5C 341.85,120.99 342.683,119.49 343.5,118C 342.744,114.196 341.744,110.53 340.5,107C 340.833,105.833 341.167,104.667 341.5,103.5C 343.029,104.284 344.696,105.284 346.5,106.5C 347.76,104.647 347.76,102.814 346.5,101C 342.532,99.9623 338.865,98.4623 335.5,96.5 Z"/></g>
<g><path style="opacity:1" fill="#486feb" d="M 315.5,133.5 C 314.549,130.955 313.549,130.955 312.5,133.5C 313.348,135.409 313.682,137.409 313.5,139.5C 312.182,136.742 311.515,133.576 311.5,130C 311.667,126.833 311.833,123.667 312,120.5C 313.558,119.655 314.558,120.321 315,122.5C 315.499,126.152 315.665,129.818 315.5,133.5 Z"/></g>
<g><path style="opacity:1" fill="#5076e1" d="M 345.5,98.5 C 347.167,98.5 348.833,98.5 350.5,98.5C 349.45,103.843 349.45,109.177 350.5,114.5C 350.379,115.894 350.046,117.228 349.5,118.5C 348.726,119.711 347.893,119.711 347,118.5C 347.01,121.864 347.01,125.53 347,129.5C 346.428,132.707 344.595,134.374 341.5,134.5C 341.771,136.38 341.104,137.713 339.5,138.5C 342.831,125.516 346.164,112.516 349.5,99.5C 347.901,99.7678 346.568,99.4345 345.5,98.5 Z"/></g>
<g><path style="opacity:1" fill="#b5c7f8" d="M 145.5,132.5 C 146.919,131.549 148.585,131.216 150.5,131.5C 150.5,136.167 150.5,140.833 150.5,145.5C 151.791,145.263 152.791,145.596 153.5,146.5C 152.167,146.5 150.833,146.5 149.5,146.5C 149.5,141.833 149.5,137.167 149.5,132.5C 148.167,132.5 146.833,132.5 145.5,132.5 Z"/></g>
<g><path style="opacity:1" fill="#4976db" d="M 10.5,62.5 C 10.5,81.1667 10.5,99.8333 10.5,118.5C 9.69532,137.237 9.69532,155.903 10.5,174.5C 9.5,174.5 8.5,174.5 7.5,174.5C 8.85071,137.085 9.85071,99.7514 10.5,62.5 Z"/></g>
<g><path style="opacity:1" fill="#f4f4fe" d="M 250.5,123.5 C 250.217,124.289 249.717,124.956 249,125.5C 248.501,129.821 248.334,134.154 248.5,138.5C 248.865,152.166 249.198,165.832 249.5,179.5C 243.64,179.283 237.973,178.617 232.5,177.5C 237.587,176.895 242.587,176.895 247.5,177.5C 247.579,176.07 247.246,174.736 246.5,173.5C 247.447,171.941 248.113,170.274 248.5,168.5C 247.702,155.193 247.202,141.859 247,128.5C 246.167,126.833 245.333,125.167 244.5,123.5C 246.326,123.08 248.326,123.08 250.5,123.5 Z"/></g>
<g><path style="opacity:1" fill="#6985d9" d="M 309.5,65.5 C 310.167,65.5 310.5,65.8333 310.5,66.5C 310.5,91.1667 310.5,115.833 310.5,140.5C 311.791,140.737 312.791,140.404 313.5,139.5C 313.682,137.409 313.348,135.409 312.5,133.5C 313.549,130.955 314.549,130.955 315.5,133.5C 313.887,142.592 311.22,151.258 307.5,159.5C 308.335,154.168 309.669,149.001 311.5,144C 311.318,141.422 310.318,140.922 308.5,142.5C 309.482,116.878 309.815,91.2113 309.5,65.5 Z"/></g>
<g><path style="opacity:1" fill="#e1ebfc" d="M 122.5,114.5 C 122.833,114.5 123.167,114.5 123.5,114.5C 122.349,123.589 120.682,132.589 118.5,141.5C 126.826,142.249 135.16,142.916 143.5,143.5C 142.92,139.351 143.586,135.684 145.5,132.5C 144.705,136.785 144.372,141.119 144.5,145.5C 135.171,144.773 125.838,144.106 116.5,143.5C 118.007,133.796 120.007,124.129 122.5,114.5 Z"/></g>
<g><path style="opacity:1" fill="#afc3f3" d="M 175.5,116.5 C 176.451,123.995 177.118,131.661 177.5,139.5C 177.5,142.5 177.5,145.5 177.5,148.5C 175.265,148.795 173.265,148.461 171.5,147.5C 173.167,147.5 174.833,147.5 176.5,147.5C 175.774,137.183 175.44,126.85 175.5,116.5 Z"/></g>
<g><path style="opacity:1" fill="#4f74dc" d="M 145.5,132.5 C 146.833,132.5 148.167,132.5 149.5,132.5C 149.5,137.167 149.5,141.833 149.5,146.5C 150.833,146.5 152.167,146.5 153.5,146.5C 159.484,147.074 165.484,147.407 171.5,147.5C 173.265,148.461 175.265,148.795 177.5,148.5C 177.5,145.5 177.5,142.5 177.5,139.5C 178.302,140.952 178.802,142.618 179,144.5C 179.179,140.975 179.679,137.641 180.5,134.5C 180.5,138.167 180.5,141.833 180.5,145.5C 179.778,145.918 179.278,146.584 179,147.5C 178.501,151.821 178.334,156.154 178.5,160.5C 178.495,164.534 178.162,168.534 177.5,172.5C 176.307,172.03 175.64,171.03 175.5,169.5C 177.324,163.047 177.99,156.38 177.5,149.5C 171.484,149.593 165.484,149.926 159.5,150.5C 159.5,149.5 159.5,148.5 159.5,147.5C 154.833,148.093 150.166,148.76 145.5,149.5C 143.334,149.57 143.001,148.904 144.5,147.5C 135.008,146.29 125.674,144.957 116.5,143.5C 125.838,144.106 135.171,144.773 144.5,145.5C 144.372,141.119 144.705,136.785 145.5,132.5 Z"/></g>
<g><path style="opacity:1" fill="#6a94d8" d="M 180.5,145.5 C 180.153,150.68 179.487,155.68 178.5,160.5C 178.334,156.154 178.501,151.821 179,147.5C 179.278,146.584 179.778,145.918 180.5,145.5 Z"/></g>
<g><path style="opacity:1" fill="#5673d0" d="M 304.5,148.5 C 304.423,149.75 303.756,150.583 302.5,151C 296.502,152.958 290.336,153.791 284,153.5C 279.771,153.49 275.938,152.823 272.5,151.5C 283.508,153.52 294.175,152.52 304.5,148.5 Z"/></g>
<g><path style="opacity:1" fill="#f3f4f9" d="M 335.5,96.5 C 333.131,96.1489 330.797,95.9822 328.5,96C 331.304,98.6006 330.971,100.101 327.5,100.5C 326.833,104.167 326.167,107.833 325.5,111.5C 326.5,111.5 327.5,111.5 328.5,111.5C 328.201,109.396 328.534,107.396 329.5,105.5C 330.558,108.196 331.558,110.863 332.5,113.5C 332.167,114.5 331.833,115.5 331.5,116.5C 330.571,115.311 330.238,113.978 330.5,112.5C 329.5,112.5 328.5,112.5 327.5,112.5C 327.109,115.94 325.276,118.273 322,119.5C 321.667,121.833 321.333,124.167 321,126.5C 319.415,127.376 318.415,128.709 318,130.5C 317.773,134.324 317.94,138.158 318.5,142C 318.239,146.058 316.905,149.725 314.5,153C 315.77,156.841 317.103,160.674 318.5,164.5C 317.448,164.649 316.448,164.483 315.5,164C 314.209,160.756 313.209,160.923 312.5,164.5C 315.138,168.876 314.138,169.543 309.5,166.5C 307.956,169.356 306.956,172.356 306.5,175.5C 307.833,175.5 309.167,175.5 310.5,175.5C 310.5,173.833 310.5,172.167 310.5,170.5C 311.675,170.281 312.675,170.614 313.5,171.5C 312.652,173.409 312.318,175.409 312.5,177.5C 316.546,177.288 319.88,178.621 322.5,181.5C 316.28,179.455 309.947,177.789 303.5,176.5C 304.829,171.185 306.162,165.852 307.5,160.5C 307.5,160.167 307.5,159.833 307.5,159.5C 311.22,151.258 313.887,142.592 315.5,133.5C 317.408,129.097 318.741,124.43 319.5,119.5C 321.822,112.906 324.155,106.24 326.5,99.5C 327.451,98.0813 327.784,96.4147 327.5,94.5C 330.495,94.2938 333.162,94.9605 335.5,96.5 Z"/></g>
<g><path style="opacity:1" fill="#e4f0fc" d="M 230.5,177.5 C 228.833,177.5 227.167,177.5 225.5,177.5C 223.5,177.5 221.5,177.5 219.5,177.5C 218.791,176.596 217.791,176.263 216.5,176.5C 216.131,163.913 216.798,151.413 218.5,139C 218.167,136.167 217.833,133.333 217.5,130.5C 216.757,131.908 215.923,133.241 215,134.5C 214.501,139.823 214.334,145.156 214.5,150.5C 213.194,155.616 212.527,160.949 212.5,166.5C 212.5,169.5 212.5,172.5 212.5,175.5C 207.833,175.5 203.167,175.5 198.5,175.5C 198.167,175.5 197.833,175.5 197.5,175.5C 193.361,174.437 189.028,173.77 184.5,173.5C 182.05,173.702 179.717,173.369 177.5,172.5C 178.162,168.534 178.495,164.534 178.5,160.5C 179.487,155.68 180.153,150.68 180.5,145.5C 180.5,141.833 180.5,138.167 180.5,134.5C 180.833,134.5 181.167,134.5 181.5,134.5C 181.733,146.898 181.066,159.232 179.5,171.5C 189.436,172.986 199.436,173.653 209.5,173.5C 210.941,168.704 211.607,163.704 211.5,158.5C 211.479,155.248 211.146,152.081 210.5,149C 211.449,148.383 212.282,148.549 213,149.5C 213.333,143.5 213.667,137.5 214,131.5C 215.401,129.808 217.234,129.141 219.5,129.5C 219.477,144.842 219.144,160.175 218.5,175.5C 222.971,174.911 226.971,175.577 230.5,177.5 Z"/></g>
<g><path style="opacity:1" fill="#8b94da" d="M 248.5,138.5 C 250.219,151.96 250.886,165.626 250.5,179.5C 249.036,180.16 247.369,180.493 245.5,180.5C 238.606,180.073 231.939,179.073 225.5,177.5C 227.167,177.5 228.833,177.5 230.5,177.5C 231.167,177.5 231.833,177.5 232.5,177.5C 237.973,178.617 243.64,179.283 249.5,179.5C 249.198,165.832 248.865,152.166 248.5,138.5 Z"/></g>
<g><path style="opacity:1" fill="#959be5" d="M 214.5,150.5 C 214.745,156.084 214.078,161.417 212.5,166.5C 212.527,160.949 213.194,155.616 214.5,150.5 Z"/></g>
<g><path style="opacity:1" fill="#6179d5" d="M 86.5,164.5 C 86.5,165.5 86.5,166.5 86.5,167.5C 77.8184,167.521 69.1517,167.854 60.5,168.5C 69.0695,167.278 77.7362,165.945 86.5,164.5 Z"/></g>
<g><path style="opacity:1" fill="#e1edfd" d="M 10.5,118.5 C 10.8333,118.5 11.1667,118.5 11.5,118.5C 11.5,136.167 11.5,153.833 11.5,171.5C 21.6883,170.622 32.0216,169.955 42.5,169.5C 42.6199,167.266 42.2865,165.099 41.5,163C 41.7281,159.359 42.7281,156.192 44.5,153.5C 44.5,159.167 44.5,164.833 44.5,170.5C 34.5714,170.97 24.9047,172.303 15.5,174.5C 13.8333,174.5 12.1667,174.5 10.5,174.5C 9.69532,155.903 9.69532,137.237 10.5,118.5 Z"/></g>
<g><path style="opacity:1" fill="#5c7fd9" d="M 49.5,156.5 C 50.7947,160.267 51.4613,164.267 51.5,168.5C 54.1667,168.5 56.8333,168.5 59.5,168.5C 56.5272,170.325 53.3605,170.658 50,169.5C 49.501,165.179 49.3343,160.846 49.5,156.5 Z"/></g>
<g><path style="opacity:1" fill="#677ed7" d="M 44.5,153.5 C 46.7812,153.077 48.4479,153.744 49.5,155.5C 48.2921,154.766 46.9587,154.433 45.5,154.5C 46.3537,160.121 46.687,165.788 46.5,171.5C 36.2453,173.156 25.912,174.156 15.5,174.5C 24.9047,172.303 34.5714,170.97 44.5,170.5C 44.5,164.833 44.5,159.167 44.5,153.5 Z"/></g>
<g><path style="opacity:1" fill="#6582d3" d="M 184.5,173.5 C 189.028,173.77 193.361,174.437 197.5,175.5C 192.878,175.844 188.545,175.177 184.5,173.5 Z"/></g>
<g><path style="opacity:1" fill="#5e7fdb" d="M 219.5,177.5 C 212.33,177.093 205.33,176.426 198.5,175.5C 203.167,175.5 207.833,175.5 212.5,175.5C 212.5,172.5 212.5,169.5 212.5,166.5C 214.078,161.417 214.745,156.084 214.5,150.5C 214.334,145.156 214.501,139.823 215,134.5C 215.923,133.241 216.757,131.908 217.5,130.5C 217.833,133.333 218.167,136.167 218.5,139C 216.798,151.413 216.131,163.913 216.5,176.5C 217.791,176.263 218.791,176.596 219.5,177.5 Z"/></g>
<g><path style="opacity:1" fill="#4f72dd" d="M 307.5,160.5 C 306.162,165.852 304.829,171.185 303.5,176.5C 309.947,177.789 316.28,179.455 322.5,181.5C 323.705,182.686 325.039,182.686 326.5,181.5C 326.209,182.649 325.376,183.316 324,183.5C 316.623,181.297 309.123,179.631 301.5,178.5C 300.304,177.441 299.637,176.107 299.5,174.5C 300.982,171.815 302.316,169.148 303.5,166.5C 301.473,166.662 299.473,166.495 297.5,166C 299.88,164.243 302.38,164.077 305,165.5C 305.099,163.347 305.933,161.681 307.5,160.5 Z"/></g>
<g><path style="opacity:1" fill="#6581da" d="M 355.5,182.5 C 355.371,184.216 355.038,185.883 354.5,187.5C 353.833,187.5 353.5,187.833 353.5,188.5C 352.833,188.833 352.167,189.167 351.5,189.5C 352.027,186.769 352.86,184.102 354,181.5C 354.383,182.056 354.883,182.389 355.5,182.5 Z"/></g>
<g><path style="opacity:1" fill="#4b71e1" d="M 3.5,38.5 C 3.97635,50.2407 4.97635,62.074 6.5,74C 6.54631,75.728 6.04631,77.228 5,78.5C 4.33333,112.167 4.33333,145.833 5,179.5C 5.21003,181.058 5.71003,182.391 6.5,183.5C 6.90814,184.643 7.57481,185.643 8.5,186.5C 11.0572,185.18 12.7239,186.013 13.5,189C 16.0101,189.376 18.3435,190.21 20.5,191.5C 20.2907,192.086 19.9574,192.586 19.5,193C 21.2205,193.739 22.8872,194.573 24.5,195.5C 23.9747,196.192 23.3081,196.692 22.5,197C 23.2524,197.671 23.5858,198.504 23.5,199.5C 21.7179,198.28 19.7179,197.614 17.5,197.5C 17.1667,197.5 16.8333,197.5 16.5,197.5C 12.5,195.5 9.5,192.5 7.5,188.5C 5.10451,185.272 3.77117,181.605 3.5,177.5C 3.5,131.167 3.5,84.8333 3.5,38.5 Z"/></g>
<g><path style="opacity:1" fill="#4c70dd" d="M 345.5,195.5 C 343.272,198.45 340.272,200.116 336.5,200.5C 232.332,200.833 128.332,200.499 24.5,199.5C 129.167,199.667 233.834,199.5 338.5,199C 340.321,196.756 342.654,195.59 345.5,195.5 Z"/></g>
<g><path style="opacity:1" fill="#e3eefe" d="M 353.5,188.5 C 353.938,188.435 354.272,188.601 354.5,189C 351.637,193.028 348.304,196.528 344.5,199.5C 341.699,200.377 339.032,201.544 336.5,203C 232.833,203.667 129.167,203.667 25.5,203C 22.4465,202.821 19.4465,202.321 16.5,201.5C 17.3629,200.274 17.3629,198.94 16.5,197.5C 16.8333,197.5 17.1667,197.5 17.5,197.5C 19.0904,199.234 21.0904,200.4 23.5,201C 128.001,201.833 232.334,201.666 336.5,200.5C 340.272,200.116 343.272,198.45 345.5,195.5C 348.386,194.404 350.386,192.404 351.5,189.5C 352.167,189.167 352.833,188.833 353.5,188.5 Z"/></g>
<g><path style="opacity:1" fill="#5572c8" d="M 17.5,197.5 C 19.7179,197.614 21.7179,198.28 23.5,199.5C 23.8333,199.5 24.1667,199.5 24.5,199.5C 128.332,200.499 232.332,200.833 336.5,200.5C 232.334,201.666 128.001,201.833 23.5,201C 21.0904,200.4 19.0904,199.234 17.5,197.5 Z"/></g>
<g><path style="opacity:1" fill="#faf9f4" d="M 1.5,12.5 C 3.95284,15.3025 4.11951,18.3025 2,21.5C 1.82678,73.6953 1.32678,125.862 0.5,178C 2.40628,181.772 4.23961,185.606 6,189.5C 6.38258,188.944 6.88258,188.611 7.5,188.5C 9.5,192.5 12.5,195.5 16.5,197.5C 17.3629,198.94 17.3629,200.274 16.5,201.5C 19.4465,202.321 22.4465,202.821 25.5,203C 129.167,203.667 232.833,203.667 336.5,203C 339.032,201.544 341.699,200.377 344.5,199.5C 345.097,199.735 345.43,200.235 345.5,201C 345.022,202.303 344.355,203.469 343.5,204.5C 343.5,204.833 343.5,205.167 343.5,205.5C 234.5,205.5 125.5,205.5 16.5,205.5C 13.0676,203.248 9.73422,200.748 6.5,198C 4.02355,194.855 1.69021,191.688 -0.5,188.5C -0.5,130.5 -0.5,72.5 -0.5,14.5C 0.166667,13.8333 0.833333,13.1667 1.5,12.5 Z"/></g>
</svg>
