<?xml version="1.0" encoding="UTF-8" standalone="no" ?>
<!DOCTYPE svg PUBLIC "-//W3C//DTD SVG 1.1//EN" "http://www.w3.org/Graphics/SVG/1.1/DTD/svg11.dtd">
<svg xmlns="http://www.w3.org/2000/svg" xmlns:xlink="http://www.w3.org/1999/xlink" version="1.1" width="1080" height="1080" viewBox="0 0 1080 1080" xml:space="preserve">
<desc>Created with Fabric.js 5.2.4</desc>
<defs>
</defs>
<rect x="0" y="0" width="100%" height="100%" fill="transparent"></rect>
<g transform="matrix(1 0 0 1 540 540)" id="392e3c87-5e25-46ab-ad1f-ce01007c3167"  >
</g>
<g transform="matrix(1 0 0 1 540 540)" id="b268fef1-e138-43f1-8556-0a917a8012ef"  >
<rect style="stroke: none; stroke-width: 1; stroke-dasharray: none; stroke-linecap: butt; stroke-dashoffset: 0; stroke-linejoin: miter; stroke-miterlimit: 4; fill: rgb(255,255,255); fill-rule: nonzero; opacity: 1; visibility: hidden;" vector-effect="non-scaling-stroke"  x="-540" y="-540" rx="0" ry="0" width="1080" height="1080" />
</g>
<g transform="matrix(1 0 0 1 240.94 354.61)"  >
<path style="stroke: none; stroke-width: 1; stroke-dasharray: none; stroke-linecap: butt; stroke-dashoffset: 0; stroke-linejoin: miter; stroke-miterlimit: 4; fill: rgb(124,107,254); fill-rule: nonzero; opacity: 1;" vector-effect="non-scaling-stroke"  transform=" translate(-300.94, -264.62)" d="M 153.99839 343.96646 C 149.7603752993565 345.29370401759917 145.1361833517523 344.2562704932923 141.87133874864224 341.24576638223937 C 138.6064941455322 338.23526227118646 137.19824022818997 333.71019427280964 138.17816 329.37867 C 145.40186 299.32606 172.86977 225.83225 272.93626 194.92083 C 316.28148 181.53109999999998 357.84983 181.30253 396.43616 194.23641 C 428.17974 204.83271000000002 449.25282 221.41458 459.33306 229.42917 C 464.66631795441083 233.6485599033516 465.56928785421263 241.39251042442007 461.3499 246.72577 Q 461.31221 246.77333000000002 461.27412 246.82055 C 456.94510319639886 252.16540330801777 449.13030204847416 253.05248684716537 443.71344 248.81392 C 425.45052 234.42427 370.02925 190.70884999999998 280.20644 218.45592 C 192.50012 245.54917 168.67559 308.922 162.49613 334.8498 C 161.5403235490734 339.2121531653426 158.28292010419955 342.7068013730549 153.99841 343.96643 Z" stroke-linecap="round" />
</g>
<g transform="matrix(1 0 0 1 270.3 463.49)"  >
<path style="stroke: none; stroke-width: 1; stroke-dasharray: none; stroke-linecap: butt; stroke-dashoffset: 0; stroke-linejoin: miter; stroke-miterlimit: 4; fill: rgb(124,107,254); fill-rule: nonzero; opacity: 1;" vector-effect="non-scaling-stroke"  transform=" translate(-330.29, -373.49)" d="M 426.73845 514.18533 C 425.74441078246224 514.5065566200103 424.713621677935 514.7003247836975 423.67079 514.76199 C 345.49573 518.9724699999999 295.75753000000003 454.02669999999995 293.71548 451.31899 L 293.33694 450.69399 C 292.09053 448.76059 261.99510000000004 402.97148 275.24413000000004 366.6062 C 281.32970000000006 349.98112 294.78858 338.31183 315.36061000000007 331.95695 C 334.49347000000006 326.04664 350.14961000000005 327.79467 363.47567000000004 337.31047 C 374.40249000000006 345.06353 381.40531000000004 356.62539000000004 388.19273000000004 367.79012 C 402.30921000000006 390.97235 410.96046 402.7669 437.79238000000004 395.96206 C 449.57368 392.97188 455.07465 383.76084000000003 457.58776000000006 376.58569 C 464.3541000000001 357.06094 458.3573200000001 330.44308 442.4918200000001 310.30505 C 421.9944500000001 284.17888 364.6322400000001 240.7848 293.8576300000001 262.64771 C 263.63450000000006 271.9839 238.9000900000001 290.38209 222.3359700000001 315.71558000000005 C 208.61387000000008 336.73988 200.63664000000009 362.85209000000003 200.46175000000008 387.2032300000001 C 200.18640000000008 432.54399000000006 237.34586000000007 492.19450000000006 237.69824000000008 492.73482000000007 C 239.4262342740174 495.49866973976646 239.98551606094853 498.8357636430116 239.25304914242304 502.0119755075303 C 238.52058222389758 505.188187372049 236.5563668061631 507.94333702842033 233.79251000000008 509.6713200000001 Q 233.73557000000008 509.7070100000001 233.6781900000001 509.7419600000001 C 227.84420467509074 513.3805381941573 220.16981995179256 511.66309683194316 216.44319000000007 505.8849600000001 C 214.76596000000006 503.1572700000001 175.08753000000007 439.5553200000001 175.40719000000007 387.1528300000001 C 175.85219000000006 330.3529400000001 210.36855000000008 262.5644800000001 286.5613000000001 239.0278300000001 C 321.7793000000001 228.1486800000001 358.7898100000001 229.9772000000001 393.6188400000001 244.2572300000001 C 420.6140000000001 255.3929800000001 445.5978400000001 273.82715000000013 462.1157300000001 294.8764700000001 C 483.2132600000001 321.7446200000001 490.6462000000001 356.9143200000001 481.0418500000001 384.3638100000001 C 474.6389400000001 402.6634400000001 461.38307000000015 415.2901300000001 443.7665300000001 419.8046600000001 C 397.8527400000001 431.4839200000001 379.8662900000001 402.0782100000001 366.7484400000001 380.6277200000001 C 353.2782000000001 358.6369100000001 345.82729000000006 348.32634000000013 322.5461700000001 355.5180800000001 C 309.7627100000001 359.46701000000013 301.88727000000006 365.7947700000001 298.5750300000001 374.8860800000001 C 294.06781000000007 387.3140800000001 298.3394300000001 403.2436800000001 302.7165100000001 414.4110800000001 Q 302.78451000000007 414.5862100000001 302.8528300000001 414.76049000000006 C 308.46445399010895 428.9546771909565 317.2217705898126 441.69154974101605 328.46602000000007 452.01299000000006 C 346.4781500000001 468.6465800000001 379.91710000000006 492.35999000000004 422.5358800000001 490.07338000000004 C 429.3206541819814 489.65190303283146 435.16247855743774 494.81036671726014 435.5839700000001 501.59514 Q 435.5876300000001 501.65414000000004 435.59073000000006 501.71322000000004 C 435.7964299158605 507.39301963677286 432.1679561422304 512.5051683194008 426.7384200000001 514.1852200000001 Z" stroke-linecap="round" />
</g>
<g transform="matrix(1 0 0 1 270.48 498.68)"  >
<path style="stroke: none; stroke-width: 1; stroke-dasharray: none; stroke-linecap: butt; stroke-dashoffset: 0; stroke-linejoin: miter; stroke-miterlimit: 4; fill: rgb(124,107,254); fill-rule: nonzero; opacity: 1;" vector-effect="non-scaling-stroke"  transform=" translate(-330.48, -408.68)" d="M 331.94027 537.53418 C 328.6473679846613 538.5533137931477 325.0808586074493 538.1806526934395 322.06976 536.50282 C 283.51261 514.6571200000001 256.44505999999996 485.27456000000006 236.95376 444.09239 L 236.87530999999998 443.83839 C 224.59114 416.38065 217.19630999999998 374.42939 233.50808999999998 338.97274 C 245.55028 312.81039999999996 268.15449 294.42109999999997 300.57872999999995 284.40497 C 338.92906999999997 272.55821 374.63786999999996 281.28044 403.94512 309.50750999999997 C 417.2736574040469 322.5353218848496 428.112587882101 337.88633249454546 435.92915 354.80600000000004 C 438.5219251247512 361.1405106771107 435.5455636698971 368.38292628744455 429.2478174116148 371.06376578884135 C 422.9500711533325 373.7446052902382 415.66686274533805 370.8695076104249 412.89848 364.60974999999996 C 406.2802017807743 350.48822992045336 397.14198864984866 337.6921147245868 385.93236 326.8494599999999 C 363.34247 305.35735999999997 337.08225000000004 299.00246 307.79036 308.05093 C 282.47744 315.87031 265.04714 329.69377 256.12442000000004 349.14276 C 243.25693000000004 377.13656000000003 249.88185000000004 412.09217 259.49502000000007 433.6052 C 276.68147000000005 470.02787 300.52044000000006 495.86368000000004 334.45592000000005 515.05659 C 337.28704063723654 516.6532374888167 339.36793977800704 519.3091492231846 340.2408429534626 522.4400544137661 C 341.11374612891825 525.5709596043478 340.70714958484007 528.9203905448443 339.11050000000006 531.75151 Q 339.06350000000003 531.83479 339.0152100000001 531.91741 C 337.434462555617 534.601750112985 334.91316326004835 536.6034007622303 331.94027 537.53418 Z" stroke-linecap="round" />
</g>
<g transform="matrix(1 0 0 1 276 488.47)"  >
<circle style="stroke: none; stroke-width: 1; stroke-dasharray: none; stroke-linecap: butt; stroke-dashoffset: 0; stroke-linejoin: miter; stroke-miterlimit: 4; fill: rgb(124,107,254); fill-rule: nonzero; opacity: 1;" vector-effect="non-scaling-stroke"  cx="0" cy="0" r="15.94905" />
</g>
<g transform="matrix(1 0 0 1 596.63 643.16)"  >
<path style="stroke: none; stroke-width: 1; stroke-dasharray: none; stroke-linecap: butt; stroke-dashoffset: 0; stroke-linejoin: miter; stroke-miterlimit: 4; fill: rgb(124,107,254); fill-rule: nonzero; opacity: 1;" vector-effect="non-scaling-stroke"  transform=" translate(-656.63, -553.16)" d="M 623.57559 593.22447 C 623.2460699122704 593.2244549842435 622.9170179182472 593.1996483074081 622.59122 593.15026 C 620.8848597601622 592.8971213665961 619.3506503723471 591.9719543071609 618.33047 590.58092 L 609.56973 578.702 C 608.5462339941909 577.3147798604627 608.1158795086626 575.5777261845409 608.3733813139526 573.8731392522557 C 608.6308831192425 572.1685523199706 609.5551376821658 570.6361313728534 610.9427300000001 569.61314 L 685.8421400000001 514.3729000000001 C 687.2295528908379 513.3494475562613 688.9667355350986 512.9191262257908 690.6714544075859 513.1766199151174 C 692.3761732800733 513.434113604444 693.9087569683026 514.358325282336 694.93199 515.7459000000001 L 703.6917500000001 527.6238300000001 C 705.8226219160065 530.5128887840331 705.2083642550011 534.5822903869486 702.3196800000001 536.7136700000001 L 627.42032 591.954 C 626.3082217041393 592.7789777888485 624.9602744285947 593.2243995935426 623.57559 593.22447 Z" stroke-linecap="round" />
</g>
<g transform="matrix(1 0 0 1 642.54 608.2)"  >
<path style="stroke: none; stroke-width: 1; stroke-dasharray: none; stroke-linecap: butt; stroke-dashoffset: 0; stroke-linejoin: miter; stroke-miterlimit: 4; fill: rgb(47,46,65); fill-rule: nonzero; opacity: 1;" vector-effect="non-scaling-stroke"  transform=" translate(-702.55, -518.2)" d="M 676.76876 548.74834 L 665.30524 533.2051 C 663.3383720175228 530.5382494256207 663.9058197257593 526.7818783894312 666.57267 524.81501 L 710.43373 486.38508 C 713.1005805743793 484.4182120175229 716.8569516105688 484.9856597257593 718.82382 487.65251 L 739.78734 512.69575 C 741.7542079824772 515.3626005743793 741.1867602742407 519.1189716105688 738.51991 521.08584 L 685.15885 550.01577 C 682.4919994256207 551.9826379824772 678.7356283894312 551.4151902742407 676.76876 548.74834 Z" stroke-linecap="round" />
</g>
<g transform="matrix(1 0 0 1 679.87 736.95)"  >
<path style="stroke: none; stroke-width: 1; stroke-dasharray: none; stroke-linecap: butt; stroke-dashoffset: 0; stroke-linejoin: miter; stroke-miterlimit: 4; fill: rgb(124,107,254); fill-rule: nonzero; opacity: 1;" vector-effect="non-scaling-stroke"  transform=" translate(-739.87, -646.95)" d="M 747.24551 714.95592 L 732.48672 714.95592 C 728.8985893128569 714.9517704949991 725.9908695050008 712.0440506871431 725.98672 708.45592 L 725.98672 585.44127 C 725.9908695050008 581.8531393128569 728.8985893128569 578.9454195050009 732.48672 578.94127 L 747.24551 578.94127 C 750.8336406871431 578.9454195050008 753.7413604949991 581.8531393128569 753.74551 585.44127 L 753.74551 708.45592 C 753.7413604949991 712.0440506871431 750.8336406871431 714.9517704949992 747.24551 714.95592 Z" stroke-linecap="round" />
</g>
<g transform="matrix(1 0 0 1 709.06 736.95)"  >
<path style="stroke: none; stroke-width: 1; stroke-dasharray: none; stroke-linecap: butt; stroke-dashoffset: 0; stroke-linejoin: miter; stroke-miterlimit: 4; fill: rgb(124,107,254); fill-rule: nonzero; opacity: 1;" vector-effect="non-scaling-stroke"  transform=" translate(-769.06, -646.95)" d="M 776.4379 714.95592 L 761.67813 714.95592 C 758.0899993128569 714.9517704949991 755.1822795050009 712.0440506871431 755.17813 708.45592 L 755.17813 585.44127 C 755.1822795050008 581.8531393128569 758.0899993128569 578.9454195050009 761.67813 578.94127 L 776.4379 578.94127 C 780.0260306871431 578.9454195050008 782.9337504949991 581.8531393128569 782.9379 585.44127 L 782.9379 708.45592 C 782.9337504949991 712.0440506871431 780.0260306871431 714.9517704949992 776.4379 714.95592 Z" stroke-linecap="round" />
</g>
<g transform="matrix(1 0 0 1 692.81 804.17)"  >
<rect style="stroke: none; stroke-width: 1; stroke-dasharray: none; stroke-linecap: butt; stroke-dashoffset: 0; stroke-linejoin: miter; stroke-miterlimit: 4; fill: rgb(63,61,86); fill-rule: nonzero; opacity: 1;" vector-effect="non-scaling-stroke"  x="-162.015" y="-1.12" rx="0" ry="0" width="324.03" height="2.24" />
</g>
<g transform="matrix(1 0 0 1 688.09 470.45)"  >
<circle style="stroke: none; stroke-width: 1; stroke-dasharray: none; stroke-linecap: butt; stroke-dashoffset: 0; stroke-linejoin: miter; stroke-miterlimit: 4; fill: rgb(124,107,254); fill-rule: nonzero; opacity: 1;" vector-effect="non-scaling-stroke"  cx="0" cy="0" r="53.51916" />
</g>
<g transform="matrix(1 0 0 1 703.26 645.49)"  >
<path style="stroke: none; stroke-width: 1; stroke-dasharray: none; stroke-linecap: butt; stroke-dashoffset: 0; stroke-linejoin: miter; stroke-miterlimit: 4; fill: rgb(47,46,65); fill-rule: nonzero; opacity: 1;" vector-effect="non-scaling-stroke"  transform=" translate(-763.26, -555.49)" d="M 830.94449 651.87926 L 799.95041 514.23375 L 799.95041 481.71227 C 799.9502995483357 477.2940377527397 796.3686422472603 473.7123804516643 791.95041 473.71227 L 762.25992 473.71227 L 762.25992 452.79918 C 762.2599491745385 450.67743913758517 761.4171038203787 448.6425908833732 759.9168064685027 447.1422935314973 C 758.4165091166268 445.64199617962134 756.3816608624147 444.79915082546137 754.25992 444.79918 L 738.25992 444.79918 C 736.138178324513 444.79914817315876 734.1033285292531 445.64199267558956 732.6030306024213 447.1422906024213 C 731.1027326755896 448.64258852925303 730.2598881731587 450.677438324513 730.25992 452.79918 L 730.25992 473.71227 L 700.56943 473.71227 C 696.1511977527398 473.7123804516643 692.5695404516644 477.2940377527397 692.56943 481.71227 L 692.56943 652.79918 C 692.5697285681046 653.8250516150822 692.7681237846342 654.8412137890098 693.15372 655.7918599999999 C 693.8980311453018 659.3079326331818 696.9392773090156 661.8665992101481 700.53085 661.9984 L 825.95535 666.18 C 833.4512 666.37682 836.85245 656.62779 830.94449 651.87926 Z" stroke-linecap="round" />
</g>
<g transform="matrix(1 0 0 1 681.73 472.43)"  >
<path style="stroke: none; stroke-width: 1; stroke-dasharray: none; stroke-linecap: butt; stroke-dashoffset: 0; stroke-linejoin: miter; stroke-miterlimit: 4; fill: rgb(47,46,65); fill-rule: nonzero; opacity: 1;" vector-effect="non-scaling-stroke"  transform=" translate(-741.73, -382.44)" d="M 748.60294 399.4608 C 745.29727 399.36803000000003 741.18301 399.2528 738.01407 396.93736 C 736.1039699490317 395.4851847618131 734.9327434985503 393.26353997879283 734.81387 390.86705 C 734.6970993569778 389.160229725122 735.3854255841493 387.49704323318076 736.67422 386.37193 C 738.33145 384.9735 740.7504 384.64635000000004 743.35196 385.411 L 740.65274 365.68443 L 742.63516 365.41295 L 745.80704 388.60338 L 744.15274 387.84459000000004 C 742.23379 386.96373000000006 739.60098 386.51647 737.96524 387.89928000000003 C 737.1503815514318 388.6321927750937 736.7242182367042 389.703381415462 736.8129 390.79576000000003 C 736.9109117360068 392.5788811145312 737.779976039224 394.23110198856557 739.19376 395.32213 C 741.66055 397.12389 744.93985 397.35729000000003 748.65958 397.4608 Z" stroke-linecap="round" />
</g>
<g transform="matrix(1 0 0 1 665.47 458.39)"  >
<rect style="stroke: none; stroke-width: 1; stroke-dasharray: none; stroke-linecap: butt; stroke-dashoffset: 0; stroke-linejoin: miter; stroke-miterlimit: 4; fill: rgb(47,46,65); fill-rule: nonzero; opacity: 1;" vector-effect="non-scaling-stroke"  x="-5.385" y="-1" rx="0" ry="0" width="10.77" height="2" />
</g>
<g transform="matrix(1 0 0 1 699.47 458.39)"  >
<rect style="stroke: none; stroke-width: 1; stroke-dasharray: none; stroke-linecap: butt; stroke-dashoffset: 0; stroke-linejoin: miter; stroke-miterlimit: 4; fill: rgb(47,46,65); fill-rule: nonzero; opacity: 1;" vector-effect="non-scaling-stroke"  x="-5.385" y="-1" rx="0" ry="0" width="10.77" height="2" />
</g>
<g transform="matrix(1 0 0 1 829.56 436.59)"  >
<path style="stroke: none; stroke-width: 1; stroke-dasharray: none; stroke-linecap: butt; stroke-dashoffset: 0; stroke-linejoin: miter; stroke-miterlimit: 4; fill: rgb(47,46,65); fill-rule: nonzero; opacity: 1;" vector-effect="non-scaling-stroke"  transform=" translate(-873.17, -373.41)" d="M 701.2213 345.85375 C 691.7147 340.09227 687.2375800000001 329.16294 687.2293000000001 318.35356 C 687.2189784823067 306.69190763880545 692.344544580691 295.61742638134626 701.2415000000001 288.0783 C 711.0331500000001 279.60979000000003 724.0728900000001 275.46546 736.8118700000001 274.41243000000003 C 752.2250100000001 273.13836000000003 767.5378700000001 276.48855000000003 782.2574800000001 280.76448000000005 C 798.0188 285.34303000000006 813.4626900000001 291.10388000000006 829.5966400000001 294.30926000000005 C 845.2531200000001 297.41978000000006 860.9507900000001 297.72652000000005 876.3649200000001 293.22846000000004 C 890.5917800000001 289.07687000000004 905.0327000000001 281.74081000000007 920.2286500000001 283.01216000000005 C 933.3533800000001 284.11023000000006 943.3206500000001 292.8443500000001 950.0256500000002 303.63516000000004 C 963.3373500000001 325.05876000000006 964.3887600000002 353.81355 983.5321800000002 371.65363 C 991.8091800000002 379.36709 1002.5917000000002 382.86127000000005 1013.3686100000001 385.47294 C 1023.70261 387.97728 1034.72628 389.58186 1044.20928 394.65009 C 1054.37799 400.08481 1060.53394 410.29974999999996 1058.9431200000001 422.00439 C 1057.13631 435.2981 1047.6766400000001 446.73959 1037.2618300000001 454.54905 C 1015.0578612306876 470.9885415626253 986.6271384576271 476.54504639901853 959.86755 469.675 C 932.23517 462.34432000000004 909.77975 440.92883 880.34001 439.58678000000003 C 863.9165 438.83809 847.74588 443.31239000000005 831.32469 442.57051 C 819.94411 442.05636000000004 807.6945900000001 437.84897 799.76799 429.38541000000004 C 795.9626835454458 425.4252763365981 793.5852067902713 420.3102186012889 793.01111 414.84822 C 792.83176 412.94257000000005 789.83 412.92385 790.01111 414.84822 C 791.13642 426.80514000000005 799.93767 435.63697 810.44111 440.49249000000003 C 815.969785345362 443.029381160172 821.8727217669733 444.65443881873796 827.92081 445.30459 C 835.95686 446.19215 844.14986 445.35252 852.1491199999999 444.47553 C 860.60412 443.54852999999997 869.0731199999999 442.40677999999997 877.59691 442.50892 C 885.3775803417246 442.63246784376344 893.088021173017 444.00371841765644 900.4342 446.57038 C 914.5398200000001 451.40838 927.24703 459.43516999999997 940.72245 465.68665 C 953.7647 471.73715999999996 967.4223099999999 475.48845 981.8680899999999 475.5815 C 995.7918761436475 475.65084175029693 1009.5648053055996 472.6971258522369 1022.2357 466.92434000000003 C 1034.71348 461.24001000000004 1046.43898 452.75496000000004 1054.20785 441.31653000000006 C 1061.49174 430.59217000000007 1065.316 416.5233600000001 1058.7609400000001 404.51737 C 1053.6232900000002 395.10745000000003 1043.8247700000002 390.34563 1033.9449900000002 387.41397 C 1022.9927500000002 384.16407 1011.5459900000002 382.6797 1000.8251900000002 378.63256 C 995.2222597380658 376.61885870782294 990.0679775923636 373.52726240144517 985.6534000000003 369.53235 C 980.9176915080011 364.9361835451151 977.0160677381517 359.5525754750489 974.1224000000003 353.62144 C 967.9847200000003 341.64835 964.8486200000003 328.49818 959.6796400000003 316.13095 C 954.8916400000003 304.67515 948.3395000000003 293.12874999999997 937.7859400000003 286.06876 C 932.1142148968488 282.3168074475534 925.5234894741485 280.1893254131461 918.7285300000003 279.91704 C 911.2108000000003 279.57704 903.7400500000003 281.30282 896.5950000000004 283.47758999999996 C 889.0340000000003 285.77896 881.6555900000004 288.65344 874.0374500000004 290.77153 C 866.0128693509531 293.00583937516717 857.6937031844467 293.9993818849783 849.3686400000004 293.71768 C 832.2466400000004 293.15981999999997 815.7068400000004 288.07358 799.4975100000004 282.94545 C 771.1019200000004 273.96197 739.5215100000004 264.34478 710.9729200000004 278.19239 C 699.8492300000004 283.58798 690.4269200000003 292.64063999999996 686.4544100000004 304.52774999999997 C 682.9394100000004 315.04587 683.4251100000004 327.31474999999995 688.8440500000004 337.11398999999994 C 691.4129083590087 341.77499111600827 695.1583294096878 345.6814576831537 699.7071200000004 348.4441499999999 C 701.3625200000004 349.44740999999993 702.8720000000004 346.85414999999995 701.2212800000003 345.8537399999999 Z" stroke-linecap="round" />
</g>
<g transform="matrix(1 0 0 1 716.58 654.17)"  >
<path style="stroke: none; stroke-width: 1; stroke-dasharray: none; stroke-linecap: butt; stroke-dashoffset: 0; stroke-linejoin: miter; stroke-miterlimit: 4; fill: rgb(124,107,254); fill-rule: nonzero; opacity: 1;" vector-effect="non-scaling-stroke"  transform=" translate(-776.58, -564.17)" d="M 783.96036 613.29869 L 769.20059 613.29869 C 765.6124593128569 613.2945404949991 762.7047395050008 610.3868206871431 762.70059 606.79869 L 762.70059 521.54381 C 762.7047395050008 517.9556793128569 765.6124593128569 515.0479595050009 769.20059 515.04381 L 783.96036 515.04381 C 787.5484906871432 515.0479595050008 790.4562104949991 517.9556793128569 790.46036 521.54381 L 790.46036 606.79869 C 790.4562104949991 610.3868206871431 787.5484906871432 613.2945404949992 783.96036 613.29869 Z" stroke-linecap="round" />
</g>
<g transform="matrix(1 0 0 1 695.27 431.68)"  >
<path style="stroke: none; stroke-width: 1; stroke-dasharray: none; stroke-linecap: butt; stroke-dashoffset: 0; stroke-linejoin: miter; stroke-miterlimit: 4; fill: rgb(0,0,0); fill-rule: nonzero; opacity: 1;" vector-effect="non-scaling-stroke"  transform=" translate(-755.27, -341.68)" d="M 726.9884 332.61173 C 727.6591630838515 337.40585272813775 730.9898195888424 341.4052322838514 735.5834200732402 342.93244230112 C 740.1770205576379 344.4596523183885 745.2392888351719 343.2506240014448 748.6469999999999 339.81245 L 746.13992 339.15055 C 748.989734523674 346.4409467093084 755.6240943587768 351.5684448200654 763.3974494952706 352.4883779265377 C 771.1708046317643 353.40831103300997 778.8187564470832 349.9710446296008 783.29157 343.54724 C 784.42116 341.97783 781.82004 340.47854 780.70116 342.03308 C 776.847689580324 347.4279972416064 770.3666449995408 350.3023245516125 763.7811502940284 349.53706263385584 C 757.1956555885159 348.77180071609916 751.5464286287553 344.4878853224134 749.0327599999999 338.35308 C 748.8798930472167 337.84698028992153 748.4753637528673 337.4564506447671 747.9641959901376 337.32149605929277 C 747.4530282274077 337.1865414738185 746.9084451673106 337.3264937670703 746.52568 337.69118 C 743.8691268842431 340.3758673317582 739.9018820398359 341.2864692528442 736.3404829472978 340.0289888236487 C 732.7790838547597 338.77150839445324 730.2631385913696 335.5717823208985 729.8812399999999 331.81426 C 729.6135599999999 329.91041 726.7224899999999 330.72048 726.9884 332.61178 Z" stroke-linecap="round" />
</g>
<g transform="matrix(1 0 0 1 568.21 660.67)"  >
<path style="stroke: none; stroke-width: 1; stroke-dasharray: none; stroke-linecap: butt; stroke-dashoffset: 0; stroke-linejoin: miter; stroke-miterlimit: 4; fill: rgb(29,65,157); fill-rule: nonzero; opacity: 1;" vector-effect="non-scaling-stroke"  transform=" translate(-628.2, -570.25)" d="M 632.42429 545.597 L 632.11148 545.80907 L 626.30382 537.24231 C 625.4123712053159 535.9273424007204 624.0350630365296 535.0203611394564 622.4748900356323 534.7208933649462 C 620.914717034735 534.421425590436 619.2994816064288 534.7540023653828 617.98452 535.64546 L 617.98452 535.64546 L 599.83461 547.9498199999999 C 598.5196424007204 548.841268794684 597.6126611394565 550.2185769634704 597.3131933649462 551.7787499643676 C 597.013725590436 553.3389229652649 597.3463023653828 554.9541583935711 598.23776 556.2691199999999 L 630.0991 603.26712 C 630.9905486762434 604.5820847723728 632.3678549355512 605.4890640710252 633.9280255065894 605.7885317391028 C 635.4881960776275 606.0879994071805 637.1034291535138 605.755424467242 638.41839 604.86397 L 638.41839 604.86397 L 656.5682300000001 592.55967 C 657.8831975992797 591.668221205316 658.7901788605436 590.2909130365296 659.0896466350539 588.7307400356323 C 659.3891144095641 587.170567034735 659.0565376346173 585.5553316064288 658.1650800000001 584.24037 L 658.1650800000001 584.24037 L 636.2453900000002 551.9070899999999 L 636.5582000000002 551.6950199999999 Z" stroke-linecap="round" />
</g>
<g transform="matrix(1 0 0 1 568.36 660.14)"  >
<path style="stroke: none; stroke-width: 1; stroke-dasharray: none; stroke-linecap: butt; stroke-dashoffset: 0; stroke-linejoin: miter; stroke-miterlimit: 4; fill: rgb(255,255,255); fill-rule: nonzero; opacity: 1;" vector-effect="non-scaling-stroke"  transform=" translate(-628.36, -570.15)" d="M 619.35741 537.87 L 617.0642899999999 539.42457 C 617.6345030281091 539.8043802279856 617.9782025943568 540.4431481033705 617.9809933892958 541.1282692008208 C 617.9837841842348 541.8133902982711 617.6452998937483 542.4549370039416 617.0781999999999 542.83938 L 607.0141299999999 549.66211 C 606.447076166784 550.0464629338388 605.7258993554636 550.1233226354592 605.090577355365 549.8671133778083 C 604.4552553552663 549.6109041201574 603.9891568021102 549.0552463606821 603.8473799999999 548.38504 L 601.7052699999999 549.83724 C 600.7547545172712 550.4816199482796 600.099148985961 551.4771989356982 599.8826794382801 552.6049604954167 C 599.6662098905992 553.7327220551351 599.9066084255742 554.9002856196814 600.55099 555.8507999999999 L 600.55099 555.8507999999999 L 631.3443 601.2733699999999 C 631.9886780908006 602.2238848170499 632.9842553284742 602.8794901391636 634.1120152568217 603.0959597336782 C 635.239775185169 603.3124293281927 636.4073371948787 603.0720310585637 637.35785 602.4276499999999 L 637.35785 602.4276499999999 L 655.00947 590.4610899999999 C 656.9888099813214 589.1192385764518 657.5055984608027 586.4268819898482 656.1637499999999 584.4475399999999 L 656.1637499999999 584.4475399999999 L 625.37029 539.0247399999998 C 624.7259084938376 538.0742261314272 623.7303287827237 537.4186226323866 622.602567329437 537.202154980499 C 621.4748058761502 536.9856873286113 620.3072431629013 537.2260874529172 619.35673 537.8704699999998 L 619.35673 537.8704699999998 Z" stroke-linecap="round" />
</g>
<g transform="matrix(1 0 0 1 240.94 354.61)"  >
<path style="stroke: none; stroke-width: 1; stroke-dasharray: none; stroke-linecap: butt; stroke-dashoffset: 0; stroke-linejoin: miter; stroke-miterlimit: 4; fill: rgb(243,18,96); fill-rule: nonzero; opacity: 1;" vector-effect="non-scaling-stroke"  transform=" translate(-300.94, -264.62)" d="M 153.99839 343.96646 C 149.7603752993565 345.29370401759917 145.1361833517523 344.2562704932923 141.87133874864224 341.24576638223937 C 138.6064941455322 338.23526227118646 137.19824022818997 333.71019427280964 138.17816 329.37867 C 145.40186 299.32606 172.86977 225.83225 272.93626 194.92083 C 316.28148 181.53109999999998 357.84983 181.30253 396.43616 194.23641 C 428.17974 204.83271000000002 449.25282 221.41458 459.33306 229.42917 C 464.66631795441083 233.6485599033516 465.56928785421263 241.39251042442007 461.3499 246.72577 Q 461.31221 246.77333000000002 461.27412 246.82055 C 456.94510319639886 252.16540330801777 449.13030204847416 253.05248684716537 443.71344 248.81392 C 425.45052 234.42427 370.02925 190.70884999999998 280.20644 218.45592 C 192.50012 245.54917 168.67559 308.922 162.49613 334.8498 C 161.5403235490734 339.2121531653426 158.28292010419955 342.7068013730549 153.99841 343.96643 Z" stroke-linecap="round" />
</g>
<g transform="matrix(1 0 0 1 270.3 463.49)"  >
<path style="stroke: none; stroke-width: 1; stroke-dasharray: none; stroke-linecap: butt; stroke-dashoffset: 0; stroke-linejoin: miter; stroke-miterlimit: 4; fill: rgb(243,18,96); fill-rule: nonzero; opacity: 1;" vector-effect="non-scaling-stroke"  transform=" translate(-330.29, -373.49)" d="M 426.73845 514.18533 C 425.74441078246224 514.5065566200103 424.713621677935 514.7003247836975 423.67079 514.76199 C 345.49573 518.9724699999999 295.75753000000003 454.02669999999995 293.71548 451.31899 L 293.33694 450.69399 C 292.09053 448.76059 261.99510000000004 402.97148 275.24413000000004 366.6062 C 281.32970000000006 349.98112 294.78858 338.31183 315.36061000000007 331.95695 C 334.49347000000006 326.04664 350.14961000000005 327.79467 363.47567000000004 337.31047 C 374.40249000000006 345.06353 381.40531000000004 356.62539000000004 388.19273000000004 367.79012 C 402.30921000000006 390.97235 410.96046 402.7669 437.79238000000004 395.96206 C 449.57368 392.97188 455.07465 383.76084000000003 457.58776000000006 376.58569 C 464.3541000000001 357.06094 458.3573200000001 330.44308 442.4918200000001 310.30505 C 421.9944500000001 284.17888 364.6322400000001 240.7848 293.8576300000001 262.64771 C 263.63450000000006 271.9839 238.9000900000001 290.38209 222.3359700000001 315.71558000000005 C 208.61387000000008 336.73988 200.63664000000009 362.85209000000003 200.46175000000008 387.2032300000001 C 200.18640000000008 432.54399000000006 237.34586000000007 492.19450000000006 237.69824000000008 492.73482000000007 C 239.4262342740174 495.49866973976646 239.98551606094853 498.8357636430116 239.25304914242304 502.0119755075303 C 238.52058222389758 505.188187372049 236.5563668061631 507.94333702842033 233.79251000000008 509.6713200000001 Q 233.73557000000008 509.7070100000001 233.6781900000001 509.7419600000001 C 227.84420467509074 513.3805381941573 220.16981995179256 511.66309683194316 216.44319000000007 505.8849600000001 C 214.76596000000006 503.1572700000001 175.08753000000007 439.5553200000001 175.40719000000007 387.1528300000001 C 175.85219000000006 330.3529400000001 210.36855000000008 262.5644800000001 286.5613000000001 239.0278300000001 C 321.7793000000001 228.1486800000001 358.7898100000001 229.9772000000001 393.6188400000001 244.2572300000001 C 420.6140000000001 255.3929800000001 445.5978400000001 273.82715000000013 462.1157300000001 294.8764700000001 C 483.2132600000001 321.7446200000001 490.6462000000001 356.9143200000001 481.0418500000001 384.3638100000001 C 474.6389400000001 402.6634400000001 461.38307000000015 415.2901300000001 443.7665300000001 419.8046600000001 C 397.8527400000001 431.4839200000001 379.8662900000001 402.0782100000001 366.7484400000001 380.6277200000001 C 353.2782000000001 358.6369100000001 345.82729000000006 348.32634000000013 322.5461700000001 355.5180800000001 C 309.7627100000001 359.46701000000013 301.88727000000006 365.7947700000001 298.5750300000001 374.8860800000001 C 294.06781000000007 387.3140800000001 298.3394300000001 403.2436800000001 302.7165100000001 414.4110800000001 Q 302.78451000000007 414.5862100000001 302.8528300000001 414.76049000000006 C 308.46445399010895 428.9546771909565 317.2217705898126 441.69154974101605 328.46602000000007 452.01299000000006 C 346.4781500000001 468.6465800000001 379.91710000000006 492.35999000000004 422.5358800000001 490.07338000000004 C 429.3206541819814 489.65190303283146 435.16247855743774 494.81036671726014 435.5839700000001 501.59514 Q 435.5876300000001 501.65414000000004 435.59073000000006 501.71322000000004 C 435.7964299158605 507.39301963677286 432.1679561422304 512.5051683194008 426.7384200000001 514.1852200000001 Z" stroke-linecap="round" />
</g>
<g transform="matrix(1 0 0 1 270.48 498.68)"  >
<path style="stroke: none; stroke-width: 1; stroke-dasharray: none; stroke-linecap: butt; stroke-dashoffset: 0; stroke-linejoin: miter; stroke-miterlimit: 4; fill: rgb(243,18,96); fill-rule: nonzero; opacity: 1;" vector-effect="non-scaling-stroke"  transform=" translate(-330.48, -408.68)" d="M 331.94027 537.53418 C 328.6473679846613 538.5533137931477 325.0808586074493 538.1806526934395 322.06976 536.50282 C 283.51261 514.6571200000001 256.44505999999996 485.27456000000006 236.95376 444.09239 L 236.87530999999998 443.83839 C 224.59114 416.38065 217.19630999999998 374.42939 233.50808999999998 338.97274 C 245.55028 312.81039999999996 268.15449 294.42109999999997 300.57872999999995 284.40497 C 338.92906999999997 272.55821 374.63786999999996 281.28044 403.94512 309.50750999999997 C 417.2736574040469 322.5353218848496 428.112587882101 337.88633249454546 435.92915 354.80600000000004 C 438.5219251247512 361.1405106771107 435.5455636698971 368.38292628744455 429.2478174116148 371.06376578884135 C 422.9500711533325 373.7446052902382 415.66686274533805 370.8695076104249 412.89848 364.60974999999996 C 406.2802017807743 350.48822992045336 397.14198864984866 337.6921147245868 385.93236 326.8494599999999 C 363.34247 305.35735999999997 337.08225000000004 299.00246 307.79036 308.05093 C 282.47744 315.87031 265.04714 329.69377 256.12442000000004 349.14276 C 243.25693000000004 377.13656000000003 249.88185000000004 412.09217 259.49502000000007 433.6052 C 276.68147000000005 470.02787 300.52044000000006 495.86368000000004 334.45592000000005 515.05659 C 337.28704063723654 516.6532374888167 339.36793977800704 519.3091492231846 340.2408429534626 522.4400544137661 C 341.11374612891825 525.5709596043478 340.70714958484007 528.9203905448443 339.11050000000006 531.75151 Q 339.06350000000003 531.83479 339.0152100000001 531.91741 C 337.434462555617 534.601750112985 334.91316326004835 536.6034007622303 331.94027 537.53418 Z" stroke-linecap="round" />
</g>
<g transform="matrix(1 0 0 1 276 488.47)"  >
<circle style="stroke: none; stroke-width: 1; stroke-dasharray: none; stroke-linecap: butt; stroke-dashoffset: 0; stroke-linejoin: miter; stroke-miterlimit: 4; fill: rgb(230,230,230); fill-rule: nonzero; opacity: 1;" vector-effect="non-scaling-stroke"  cx="0" cy="0" r="15.94905" />
</g>
<g transform="matrix(1 0 0 1 596.63 643.16)"  >
<path style="stroke: none; stroke-width: 1; stroke-dasharray: none; stroke-linecap: butt; stroke-dashoffset: 0; stroke-linejoin: miter; stroke-miterlimit: 4; fill: rgb(243,18,96); fill-rule: nonzero; opacity: 1;" vector-effect="non-scaling-stroke"  transform=" translate(-656.63, -553.16)" d="M 623.57559 593.22447 C 623.2460699122704 593.2244549842435 622.9170179182472 593.1996483074081 622.59122 593.15026 C 620.8848597601622 592.8971213665961 619.3506503723471 591.9719543071609 618.33047 590.58092 L 609.56973 578.702 C 608.5462339941909 577.3147798604627 608.1158795086626 575.5777261845409 608.3733813139526 573.8731392522557 C 608.6308831192425 572.1685523199706 609.5551376821658 570.6361313728534 610.9427300000001 569.61314 L 685.8421400000001 514.3729000000001 C 687.2295528908379 513.3494475562613 688.9667355350986 512.9191262257908 690.6714544075859 513.1766199151174 C 692.3761732800733 513.434113604444 693.9087569683026 514.358325282336 694.93199 515.7459000000001 L 703.6917500000001 527.6238300000001 C 705.8226219160065 530.5128887840331 705.2083642550011 534.5822903869486 702.3196800000001 536.7136700000001 L 627.42032 591.954 C 626.3082217041393 592.7789777888485 624.9602744285947 593.2243995935426 623.57559 593.22447 Z" stroke-linecap="round" />
</g>
<g transform="matrix(1 0 0 1 642.54 608.2)"  >
<path style="stroke: none; stroke-width: 1; stroke-dasharray: none; stroke-linecap: butt; stroke-dashoffset: 0; stroke-linejoin: miter; stroke-miterlimit: 4; fill: rgb(47,46,65); fill-rule: nonzero; opacity: 1;" vector-effect="non-scaling-stroke"  transform=" translate(-702.55, -518.2)" d="M 676.76876 548.74834 L 665.30524 533.2051 C 663.3383720175228 530.5382494256207 663.9058197257593 526.7818783894312 666.57267 524.81501 L 710.43373 486.38508 C 713.1005805743793 484.4182120175229 716.8569516105688 484.9856597257593 718.82382 487.65251 L 739.78734 512.69575 C 741.7542079824772 515.3626005743793 741.1867602742407 519.1189716105688 738.51991 521.08584 L 685.15885 550.01577 C 682.4919994256207 551.9826379824772 678.7356283894312 551.4151902742407 676.76876 548.74834 Z" stroke-linecap="round" />
</g>
<g transform="matrix(1 0 0 1 679.87 736.95)"  >
<path style="stroke: none; stroke-width: 1; stroke-dasharray: none; stroke-linecap: butt; stroke-dashoffset: 0; stroke-linejoin: miter; stroke-miterlimit: 4; fill: rgb(243,18,96); fill-rule: nonzero; opacity: 1;" vector-effect="non-scaling-stroke"  transform=" translate(-739.87, -646.95)" d="M 747.24551 714.95592 L 732.48672 714.95592 C 728.8985893128569 714.9517704949991 725.9908695050008 712.0440506871431 725.98672 708.45592 L 725.98672 585.44127 C 725.9908695050008 581.8531393128569 728.8985893128569 578.9454195050009 732.48672 578.94127 L 747.24551 578.94127 C 750.8336406871431 578.9454195050008 753.7413604949991 581.8531393128569 753.74551 585.44127 L 753.74551 708.45592 C 753.7413604949991 712.0440506871431 750.8336406871431 714.9517704949992 747.24551 714.95592 Z" stroke-linecap="round" />
</g>
<g transform="matrix(1 0 0 1 709.06 736.95)"  >
<path style="stroke: none; stroke-width: 1; stroke-dasharray: none; stroke-linecap: butt; stroke-dashoffset: 0; stroke-linejoin: miter; stroke-miterlimit: 4; fill: rgb(243,18,96); fill-rule: nonzero; opacity: 1;" vector-effect="non-scaling-stroke"  transform=" translate(-769.06, -646.95)" d="M 776.4379 714.95592 L 761.67813 714.95592 C 758.0899993128569 714.9517704949991 755.1822795050009 712.0440506871431 755.17813 708.45592 L 755.17813 585.44127 C 755.1822795050008 581.8531393128569 758.0899993128569 578.9454195050009 761.67813 578.94127 L 776.4379 578.94127 C 780.0260306871431 578.9454195050008 782.9337504949991 581.8531393128569 782.9379 585.44127 L 782.9379 708.45592 C 782.9337504949991 712.0440506871431 780.0260306871431 714.9517704949992 776.4379 714.95592 Z" stroke-linecap="round" />
</g>
<g transform="matrix(1 0 0 1 692.81 804.17)"  >
<rect style="stroke: none; stroke-width: 1; stroke-dasharray: none; stroke-linecap: butt; stroke-dashoffset: 0; stroke-linejoin: miter; stroke-miterlimit: 4; fill: rgb(63,61,86); fill-rule: nonzero; opacity: 1;" vector-effect="non-scaling-stroke"  x="-162.015" y="-1.12" rx="0" ry="0" width="324.03" height="2.24" />
</g>
<g transform="matrix(1 0 0 1 688.09 470.45)"  >
<circle style="stroke: none; stroke-width: 1; stroke-dasharray: none; stroke-linecap: butt; stroke-dashoffset: 0; stroke-linejoin: miter; stroke-miterlimit: 4; fill: rgb(243,18,96); fill-rule: nonzero; opacity: 1;" vector-effect="non-scaling-stroke"  cx="0" cy="0" r="53.51916" />
</g>
<g transform="matrix(1 0 0 1 703.26 645.49)"  >
<path style="stroke: none; stroke-width: 1; stroke-dasharray: none; stroke-linecap: butt; stroke-dashoffset: 0; stroke-linejoin: miter; stroke-miterlimit: 4; fill: rgb(47,46,65); fill-rule: nonzero; opacity: 1;" vector-effect="non-scaling-stroke"  transform=" translate(-763.26, -555.49)" d="M 830.94449 651.87926 L 799.95041 514.23375 L 799.95041 481.71227 C 799.9502995483357 477.2940377527397 796.3686422472603 473.7123804516643 791.95041 473.71227 L 762.25992 473.71227 L 762.25992 452.79918 C 762.2599491745385 450.67743913758517 761.4171038203787 448.6425908833732 759.9168064685027 447.1422935314973 C 758.4165091166268 445.64199617962134 756.3816608624147 444.79915082546137 754.25992 444.79918 L 738.25992 444.79918 C 736.138178324513 444.79914817315876 734.1033285292531 445.64199267558956 732.6030306024213 447.1422906024213 C 731.1027326755896 448.64258852925303 730.2598881731587 450.677438324513 730.25992 452.79918 L 730.25992 473.71227 L 700.56943 473.71227 C 696.1511977527398 473.7123804516643 692.5695404516644 477.2940377527397 692.56943 481.71227 L 692.56943 652.79918 C 692.5697285681046 653.8250516150822 692.7681237846342 654.8412137890098 693.15372 655.7918599999999 C 693.8980311453018 659.3079326331818 696.9392773090156 661.8665992101481 700.53085 661.9984 L 825.95535 666.18 C 833.4512 666.37682 836.85245 656.62779 830.94449 651.87926 Z" stroke-linecap="round" />
</g>
<g transform="matrix(1 0 0 1 681.73 472.43)"  >
<path style="stroke: none; stroke-width: 1; stroke-dasharray: none; stroke-linecap: butt; stroke-dashoffset: 0; stroke-linejoin: miter; stroke-miterlimit: 4; fill: rgb(47,46,65); fill-rule: nonzero; opacity: 1;" vector-effect="non-scaling-stroke"  transform=" translate(-741.73, -382.44)" d="M 748.60294 399.4608 C 745.29727 399.36803000000003 741.18301 399.2528 738.01407 396.93736 C 736.1039699490317 395.4851847618131 734.9327434985503 393.26353997879283 734.81387 390.86705 C 734.6970993569778 389.160229725122 735.3854255841493 387.49704323318076 736.67422 386.37193 C 738.33145 384.9735 740.7504 384.64635000000004 743.35196 385.411 L 740.65274 365.68443 L 742.63516 365.41295 L 745.80704 388.60338 L 744.15274 387.84459000000004 C 742.23379 386.96373000000006 739.60098 386.51647 737.96524 387.89928000000003 C 737.1503815514318 388.6321927750937 736.7242182367042 389.703381415462 736.8129 390.79576000000003 C 736.9109117360068 392.5788811145312 737.779976039224 394.23110198856557 739.19376 395.32213 C 741.66055 397.12389 744.93985 397.35729000000003 748.65958 397.4608 Z" stroke-linecap="round" />
</g>
<g transform="matrix(1 0 0 1 665.47 458.39)"  >
<rect style="stroke: none; stroke-width: 1; stroke-dasharray: none; stroke-linecap: butt; stroke-dashoffset: 0; stroke-linejoin: miter; stroke-miterlimit: 4; fill: rgb(47,46,65); fill-rule: nonzero; opacity: 1;" vector-effect="non-scaling-stroke"  x="-5.385" y="-1" rx="0" ry="0" width="10.77" height="2" />
</g>
<g transform="matrix(1 0 0 1 699.47 458.39)"  >
<rect style="stroke: none; stroke-width: 1; stroke-dasharray: none; stroke-linecap: butt; stroke-dashoffset: 0; stroke-linejoin: miter; stroke-miterlimit: 4; fill: rgb(47,46,65); fill-rule: nonzero; opacity: 1;" vector-effect="non-scaling-stroke"  x="-5.385" y="-1" rx="0" ry="0" width="10.77" height="2" />
</g>
<g transform="matrix(1 0 0 1 813.17 463.41)"  >
<path style="stroke: none; stroke-width: 1; stroke-dasharray: none; stroke-linecap: butt; stroke-dashoffset: 0; stroke-linejoin: miter; stroke-miterlimit: 4; fill: rgb(47,46,65); fill-rule: nonzero; opacity: 1;" vector-effect="non-scaling-stroke"  transform=" translate(-873.17, -373.41)" d="M 701.2213 345.85375 C 691.7147 340.09227 687.2375800000001 329.16294 687.2293000000001 318.35356 C 687.2189784823067 306.69190763880545 692.344544580691 295.61742638134626 701.2415000000001 288.0783 C 711.0331500000001 279.60979000000003 724.0728900000001 275.46546 736.8118700000001 274.41243000000003 C 752.2250100000001 273.13836000000003 767.5378700000001 276.48855000000003 782.2574800000001 280.76448000000005 C 798.0188 285.34303000000006 813.4626900000001 291.10388000000006 829.5966400000001 294.30926000000005 C 845.2531200000001 297.41978000000006 860.9507900000001 297.72652000000005 876.3649200000001 293.22846000000004 C 890.5917800000001 289.07687000000004 905.0327000000001 281.74081000000007 920.2286500000001 283.01216000000005 C 933.3533800000001 284.11023000000006 943.3206500000001 292.8443500000001 950.0256500000002 303.63516000000004 C 963.3373500000001 325.05876000000006 964.3887600000002 353.81355 983.5321800000002 371.65363 C 991.8091800000002 379.36709 1002.5917000000002 382.86127000000005 1013.3686100000001 385.47294 C 1023.70261 387.97728 1034.72628 389.58186 1044.20928 394.65009 C 1054.37799 400.08481 1060.53394 410.29974999999996 1058.9431200000001 422.00439 C 1057.13631 435.2981 1047.6766400000001 446.73959 1037.2618300000001 454.54905 C 1015.0578612306876 470.9885415626253 986.6271384576271 476.54504639901853 959.86755 469.675 C 932.23517 462.34432000000004 909.77975 440.92883 880.34001 439.58678000000003 C 863.9165 438.83809 847.74588 443.31239000000005 831.32469 442.57051 C 819.94411 442.05636000000004 807.6945900000001 437.84897 799.76799 429.38541000000004 C 795.9626835454458 425.4252763365981 793.5852067902713 420.3102186012889 793.01111 414.84822 C 792.83176 412.94257000000005 789.83 412.92385 790.01111 414.84822 C 791.13642 426.80514000000005 799.93767 435.63697 810.44111 440.49249000000003 C 815.969785345362 443.029381160172 821.8727217669733 444.65443881873796 827.92081 445.30459 C 835.95686 446.19215 844.14986 445.35252 852.1491199999999 444.47553 C 860.60412 443.54852999999997 869.0731199999999 442.40677999999997 877.59691 442.50892 C 885.3775803417246 442.63246784376344 893.088021173017 444.00371841765644 900.4342 446.57038 C 914.5398200000001 451.40838 927.24703 459.43516999999997 940.72245 465.68665 C 953.7647 471.73715999999996 967.4223099999999 475.48845 981.8680899999999 475.5815 C 995.7918761436475 475.65084175029693 1009.5648053055996 472.6971258522369 1022.2357 466.92434000000003 C 1034.71348 461.24001000000004 1046.43898 452.75496000000004 1054.20785 441.31653000000006 C 1061.49174 430.59217000000007 1065.316 416.5233600000001 1058.7609400000001 404.51737 C 1053.6232900000002 395.10745000000003 1043.8247700000002 390.34563 1033.9449900000002 387.41397 C 1022.9927500000002 384.16407 1011.5459900000002 382.6797 1000.8251900000002 378.63256 C 995.2222597380658 376.61885870782294 990.0679775923636 373.52726240144517 985.6534000000003 369.53235 C 980.9176915080011 364.9361835451151 977.0160677381517 359.5525754750489 974.1224000000003 353.62144 C 967.9847200000003 341.64835 964.8486200000003 328.49818 959.6796400000003 316.13095 C 954.8916400000003 304.67515 948.3395000000003 293.12874999999997 937.7859400000003 286.06876 C 932.1142148968488 282.3168074475534 925.5234894741485 280.1893254131461 918.7285300000003 279.91704 C 911.2108000000003 279.57704 903.7400500000003 281.30282 896.5950000000004 283.47758999999996 C 889.0340000000003 285.77896 881.6555900000004 288.65344 874.0374500000004 290.77153 C 866.0128693509531 293.00583937516717 857.6937031844467 293.9993818849783 849.3686400000004 293.71768 C 832.2466400000004 293.15981999999997 815.7068400000004 288.07358 799.4975100000004 282.94545 C 771.1019200000004 273.96197 739.5215100000004 264.34478 710.9729200000004 278.19239 C 699.8492300000004 283.58798 690.4269200000003 292.64063999999996 686.4544100000004 304.52774999999997 C 682.9394100000004 315.04587 683.4251100000004 327.31474999999995 688.8440500000004 337.11398999999994 C 691.4129083590087 341.77499111600827 695.1583294096878 345.6814576831537 699.7071200000004 348.4441499999999 C 701.3625200000004 349.44740999999993 702.8720000000004 346.85414999999995 701.2212800000003 345.8537399999999 Z" stroke-linecap="round" />
</g>
<g transform="matrix(1 0 0 1 716.58 654.17)"  >
<path style="stroke: none; stroke-width: 1; stroke-dasharray: none; stroke-linecap: butt; stroke-dashoffset: 0; stroke-linejoin: miter; stroke-miterlimit: 4; fill: rgb(243,18,96); fill-rule: nonzero; opacity: 1;" vector-effect="non-scaling-stroke"  transform=" translate(-776.58, -564.17)" d="M 783.96036 613.29869 L 769.20059 613.29869 C 765.6124593128569 613.2945404949991 762.7047395050008 610.3868206871431 762.70059 606.79869 L 762.70059 521.54381 C 762.7047395050008 517.9556793128569 765.6124593128569 515.0479595050009 769.20059 515.04381 L 783.96036 515.04381 C 787.5484906871432 515.0479595050008 790.4562104949991 517.9556793128569 790.46036 521.54381 L 790.46036 606.79869 C 790.4562104949991 610.3868206871431 787.5484906871432 613.2945404949992 783.96036 613.29869 Z" stroke-linecap="round" />
</g>
<g transform="matrix(1 0 0 1 695.27 431.68)"  >
<path style="stroke: none; stroke-width: 1; stroke-dasharray: none; stroke-linecap: butt; stroke-dashoffset: 0; stroke-linejoin: miter; stroke-miterlimit: 4; fill: rgb(47,46,65); fill-rule: nonzero; opacity: 1;" vector-effect="non-scaling-stroke"  transform=" translate(-755.27, -341.68)" d="M 726.9884 332.61173 C 727.6591630838515 337.40585272813775 730.9898195888424 341.4052322838514 735.5834200732402 342.93244230112 C 740.1770205576379 344.4596523183885 745.2392888351719 343.2506240014448 748.6469999999999 339.81245 L 746.13992 339.15055 C 748.989734523674 346.4409467093084 755.6240943587768 351.5684448200654 763.3974494952706 352.4883779265377 C 771.1708046317643 353.40831103300997 778.8187564470832 349.9710446296008 783.29157 343.54724 C 784.42116 341.97783 781.82004 340.47854 780.70116 342.03308 C 776.847689580324 347.4279972416064 770.3666449995408 350.3023245516125 763.7811502940284 349.53706263385584 C 757.1956555885159 348.77180071609916 751.5464286287553 344.4878853224134 749.0327599999999 338.35308 C 748.8798930472167 337.84698028992153 748.4753637528673 337.4564506447671 747.9641959901376 337.32149605929277 C 747.4530282274077 337.1865414738185 746.9084451673106 337.3264937670703 746.52568 337.69118 C 743.8691268842431 340.3758673317582 739.9018820398359 341.2864692528442 736.3404829472978 340.0289888236487 C 732.7790838547597 338.77150839445324 730.2631385913696 335.5717823208985 729.8812399999999 331.81426 C 729.6135599999999 329.91041 726.7224899999999 330.72048 726.9884 332.61178 Z" stroke-linecap="round" />
</g>
<g transform="matrix(1 0 0 1 568.21 660.25)"  >
<path style="stroke: none; stroke-width: 1; stroke-dasharray: none; stroke-linecap: butt; stroke-dashoffset: 0; stroke-linejoin: miter; stroke-miterlimit: 4; fill: rgb(63,61,86); fill-rule: nonzero; opacity: 1;" vector-effect="non-scaling-stroke"  transform=" translate(-628.2, -570.25)" d="M 632.42429 545.597 L 632.11148 545.80907 L 626.30382 537.24231 C 625.4123712053159 535.9273424007204 624.0350630365296 535.0203611394564 622.4748900356323 534.7208933649462 C 620.914717034735 534.421425590436 619.2994816064288 534.7540023653828 617.98452 535.64546 L 617.98452 535.64546 L 599.83461 547.9498199999999 C 598.5196424007204 548.841268794684 597.6126611394565 550.2185769634704 597.3131933649462 551.7787499643676 C 597.013725590436 553.3389229652649 597.3463023653828 554.9541583935711 598.23776 556.2691199999999 L 630.0991 603.26712 C 630.9905486762434 604.5820847723728 632.3678549355512 605.4890640710252 633.9280255065894 605.7885317391028 C 635.4881960776275 606.0879994071805 637.1034291535138 605.755424467242 638.41839 604.86397 L 638.41839 604.86397 L 656.5682300000001 592.55967 C 657.8831975992797 591.668221205316 658.7901788605436 590.2909130365296 659.0896466350539 588.7307400356323 C 659.3891144095641 587.170567034735 659.0565376346173 585.5553316064288 658.1650800000001 584.24037 L 658.1650800000001 584.24037 L 636.2453900000002 551.9070899999999 L 636.5582000000002 551.6950199999999 Z" stroke-linecap="round" />
</g>
<g transform="matrix(1 0 0 1 240.94 354.6)"  >
<path style="stroke: none; stroke-width: 1; stroke-dasharray: none; stroke-linecap: butt; stroke-dashoffset: 0; stroke-linejoin: miter; stroke-miterlimit: 4; fill: rgb(0,112,243); fill-rule: nonzero; opacity: 1;" vector-effect="non-scaling-stroke"  transform=" translate(-300.94, -264.62)" d="M 153.99839 343.96646 C 149.7603752993565 345.29370401759917 145.1361833517523 344.2562704932923 141.87133874864224 341.24576638223937 C 138.6064941455322 338.23526227118646 137.19824022818997 333.71019427280964 138.17816 329.37867 C 145.40186 299.32606 172.86977 225.83225 272.93626 194.92083 C 316.28148 181.53109999999998 357.84983 181.30253 396.43616 194.23641 C 428.17974 204.83271000000002 449.25282 221.41458 459.33306 229.42917 C 464.66631795441083 233.6485599033516 465.56928785421263 241.39251042442007 461.3499 246.72577 Q 461.31221 246.77333000000002 461.27412 246.82055 C 456.94510319639886 252.16540330801777 449.13030204847416 253.05248684716537 443.71344 248.81392 C 425.45052 234.42427 370.02925 190.70884999999998 280.20644 218.45592 C 192.50012 245.54917 168.67559 308.922 162.49613 334.8498 C 161.5403235490734 339.2121531653426 158.28292010419955 342.7068013730549 153.99841 343.96643 Z" stroke-linecap="round" />
</g>
<g transform="matrix(1 0 0 1 270.3 463.48)"  >
<path style="stroke: none; stroke-width: 1; stroke-dasharray: none; stroke-linecap: butt; stroke-dashoffset: 0; stroke-linejoin: miter; stroke-miterlimit: 4; fill: rgb(0,112,243); fill-rule: nonzero; opacity: 1;" vector-effect="non-scaling-stroke"  transform=" translate(-330.29, -373.49)" d="M 426.73845 514.18533 C 425.74441078246224 514.5065566200103 424.713621677935 514.7003247836975 423.67079 514.76199 C 345.49573 518.9724699999999 295.75753000000003 454.02669999999995 293.71548 451.31899 L 293.33694 450.69399 C 292.09053 448.76059 261.99510000000004 402.97148 275.24413000000004 366.6062 C 281.32970000000006 349.98112 294.78858 338.31183 315.36061000000007 331.95695 C 334.49347000000006 326.04664 350.14961000000005 327.79467 363.47567000000004 337.31047 C 374.40249000000006 345.06353 381.40531000000004 356.62539000000004 388.19273000000004 367.79012 C 402.30921000000006 390.97235 410.96046 402.7669 437.79238000000004 395.96206 C 449.57368 392.97188 455.07465 383.76084000000003 457.58776000000006 376.58569 C 464.3541000000001 357.06094 458.3573200000001 330.44308 442.4918200000001 310.30505 C 421.9944500000001 284.17888 364.6322400000001 240.7848 293.8576300000001 262.64771 C 263.63450000000006 271.9839 238.9000900000001 290.38209 222.3359700000001 315.71558000000005 C 208.61387000000008 336.73988 200.63664000000009 362.85209000000003 200.46175000000008 387.2032300000001 C 200.18640000000008 432.54399000000006 237.34586000000007 492.19450000000006 237.69824000000008 492.73482000000007 C 239.4262342740174 495.49866973976646 239.98551606094853 498.8357636430116 239.25304914242304 502.0119755075303 C 238.52058222389758 505.188187372049 236.5563668061631 507.94333702842033 233.79251000000008 509.6713200000001 Q 233.73557000000008 509.7070100000001 233.6781900000001 509.7419600000001 C 227.84420467509074 513.3805381941573 220.16981995179256 511.66309683194316 216.44319000000007 505.8849600000001 C 214.76596000000006 503.1572700000001 175.08753000000007 439.5553200000001 175.40719000000007 387.1528300000001 C 175.85219000000006 330.3529400000001 210.36855000000008 262.5644800000001 286.5613000000001 239.0278300000001 C 321.7793000000001 228.1486800000001 358.7898100000001 229.9772000000001 393.6188400000001 244.2572300000001 C 420.6140000000001 255.3929800000001 445.5978400000001 273.82715000000013 462.1157300000001 294.8764700000001 C 483.2132600000001 321.7446200000001 490.6462000000001 356.9143200000001 481.0418500000001 384.3638100000001 C 474.6389400000001 402.6634400000001 461.38307000000015 415.2901300000001 443.7665300000001 419.8046600000001 C 397.8527400000001 431.4839200000001 379.8662900000001 402.0782100000001 366.7484400000001 380.6277200000001 C 353.2782000000001 358.6369100000001 345.82729000000006 348.32634000000013 322.5461700000001 355.5180800000001 C 309.7627100000001 359.46701000000013 301.88727000000006 365.7947700000001 298.5750300000001 374.8860800000001 C 294.06781000000007 387.3140800000001 298.3394300000001 403.2436800000001 302.7165100000001 414.4110800000001 Q 302.78451000000007 414.5862100000001 302.8528300000001 414.76049000000006 C 308.46445399010895 428.9546771909565 317.2217705898126 441.69154974101605 328.46602000000007 452.01299000000006 C 346.4781500000001 468.6465800000001 379.91710000000006 492.35999000000004 422.5358800000001 490.07338000000004 C 429.3206541819814 489.65190303283146 435.16247855743774 494.81036671726014 435.5839700000001 501.59514 Q 435.5876300000001 501.65414000000004 435.59073000000006 501.71322000000004 C 435.7964299158605 507.39301963677286 432.1679561422304 512.5051683194008 426.7384200000001 514.1852200000001 Z" stroke-linecap="round" />
</g>
<g transform="matrix(1 0 0 1 270.48 498.67)"  >
<path style="stroke: none; stroke-width: 1; stroke-dasharray: none; stroke-linecap: butt; stroke-dashoffset: 0; stroke-linejoin: miter; stroke-miterlimit: 4; fill: rgb(0,112,243); fill-rule: nonzero; opacity: 1;" vector-effect="non-scaling-stroke"  transform=" translate(-330.48, -408.68)" d="M 331.94027 537.53418 C 328.6473679846613 538.5533137931477 325.0808586074493 538.1806526934395 322.06976 536.50282 C 283.51261 514.6571200000001 256.44505999999996 485.27456000000006 236.95376 444.09239 L 236.87530999999998 443.83839 C 224.59114 416.38065 217.19630999999998 374.42939 233.50808999999998 338.97274 C 245.55028 312.81039999999996 268.15449 294.42109999999997 300.57872999999995 284.40497 C 338.92906999999997 272.55821 374.63786999999996 281.28044 403.94512 309.50750999999997 C 417.2736574040469 322.5353218848496 428.112587882101 337.88633249454546 435.92915 354.80600000000004 C 438.5219251247512 361.1405106771107 435.5455636698971 368.38292628744455 429.2478174116148 371.06376578884135 C 422.9500711533325 373.7446052902382 415.66686274533805 370.8695076104249 412.89848 364.60974999999996 C 406.2802017807743 350.48822992045336 397.14198864984866 337.6921147245868 385.93236 326.8494599999999 C 363.34247 305.35735999999997 337.08225000000004 299.00246 307.79036 308.05093 C 282.47744 315.87031 265.04714 329.69377 256.12442000000004 349.14276 C 243.25693000000004 377.13656000000003 249.88185000000004 412.09217 259.49502000000007 433.6052 C 276.68147000000005 470.02787 300.52044000000006 495.86368000000004 334.45592000000005 515.05659 C 337.28704063723654 516.6532374888167 339.36793977800704 519.3091492231846 340.2408429534626 522.4400544137661 C 341.11374612891825 525.5709596043478 340.70714958484007 528.9203905448443 339.11050000000006 531.75151 Q 339.06350000000003 531.83479 339.0152100000001 531.91741 C 337.434462555617 534.601750112985 334.91316326004835 536.6034007622303 331.94027 537.53418 Z" stroke-linecap="round" />
</g>
<g transform="matrix(1 0 0 1 276 488.46)"  >
<circle style="stroke: none; stroke-width: 1; stroke-dasharray: none; stroke-linecap: butt; stroke-dashoffset: 0; stroke-linejoin: miter; stroke-miterlimit: 4; fill: rgb(230,230,230); fill-rule: nonzero; opacity: 1;" vector-effect="non-scaling-stroke"  cx="0" cy="0" r="15.94905" />
</g>
<g transform="matrix(1 0 0 1 596.63 643.16)"  >
<path style="stroke: none; stroke-width: 1; stroke-dasharray: none; stroke-linecap: butt; stroke-dashoffset: 0; stroke-linejoin: miter; stroke-miterlimit: 4; fill: rgb(0,112,243); fill-rule: nonzero; opacity: 1;" vector-effect="non-scaling-stroke"  transform=" translate(-656.63, -553.16)" d="M 623.57559 593.22447 C 623.2460699122704 593.2244549842435 622.9170179182472 593.1996483074081 622.59122 593.15026 C 620.8848597601622 592.8971213665961 619.3506503723471 591.9719543071609 618.33047 590.58092 L 609.56973 578.702 C 608.5462339941909 577.3147798604627 608.1158795086626 575.5777261845409 608.3733813139526 573.8731392522557 C 608.6308831192425 572.1685523199706 609.5551376821658 570.6361313728534 610.9427300000001 569.61314 L 685.8421400000001 514.3729000000001 C 687.2295528908379 513.3494475562613 688.9667355350986 512.9191262257908 690.6714544075859 513.1766199151174 C 692.3761732800733 513.434113604444 693.9087569683026 514.358325282336 694.93199 515.7459000000001 L 703.6917500000001 527.6238300000001 C 705.8226219160065 530.5128887840331 705.2083642550011 534.5822903869486 702.3196800000001 536.7136700000001 L 627.42032 591.954 C 626.3082217041393 592.7789777888485 624.9602744285947 593.2243995935426 623.57559 593.22447 Z" stroke-linecap="round" />
</g>
<g transform="matrix(1 0 0 1 642.54 608.2)"  >
<path style="stroke: none; stroke-width: 1; stroke-dasharray: none; stroke-linecap: butt; stroke-dashoffset: 0; stroke-linejoin: miter; stroke-miterlimit: 4; fill: rgb(47,46,65); fill-rule: nonzero; opacity: 1;" vector-effect="non-scaling-stroke"  transform=" translate(-702.55, -518.2)" d="M 676.76876 548.74834 L 665.30524 533.2051 C 663.3383720175228 530.5382494256207 663.9058197257593 526.7818783894312 666.57267 524.81501 L 710.43373 486.38508 C 713.1005805743793 484.4182120175229 716.8569516105688 484.9856597257593 718.82382 487.65251 L 739.78734 512.69575 C 741.7542079824772 515.3626005743793 741.1867602742407 519.1189716105688 738.51991 521.08584 L 685.15885 550.01577 C 682.4919994256207 551.9826379824772 678.7356283894312 551.4151902742407 676.76876 548.74834 Z" stroke-linecap="round" />
</g>
<g transform="matrix(1 0 0 1 679.87 736.94)"  >
<path style="stroke: none; stroke-width: 1; stroke-dasharray: none; stroke-linecap: butt; stroke-dashoffset: 0; stroke-linejoin: miter; stroke-miterlimit: 4; fill: rgb(0,112,243); fill-rule: nonzero; opacity: 1;" vector-effect="non-scaling-stroke"  transform=" translate(-739.87, -646.95)" d="M 747.24551 714.95592 L 732.48672 714.95592 C 728.8985893128569 714.9517704949991 725.9908695050008 712.0440506871431 725.98672 708.45592 L 725.98672 585.44127 C 725.9908695050008 581.8531393128569 728.8985893128569 578.9454195050009 732.48672 578.94127 L 747.24551 578.94127 C 750.8336406871431 578.9454195050008 753.7413604949991 581.8531393128569 753.74551 585.44127 L 753.74551 708.45592 C 753.7413604949991 712.0440506871431 750.8336406871431 714.9517704949992 747.24551 714.95592 Z" stroke-linecap="round" />
</g>
<g transform="matrix(1 0 0 1 709.06 736.94)"  >
<path style="stroke: none; stroke-width: 1; stroke-dasharray: none; stroke-linecap: butt; stroke-dashoffset: 0; stroke-linejoin: miter; stroke-miterlimit: 4; fill: rgb(0,112,243); fill-rule: nonzero; opacity: 1;" vector-effect="non-scaling-stroke"  transform=" translate(-769.06, -646.95)" d="M 776.4379 714.95592 L 761.67813 714.95592 C 758.0899993128569 714.9517704949991 755.1822795050009 712.0440506871431 755.17813 708.45592 L 755.17813 585.44127 C 755.1822795050008 581.8531393128569 758.0899993128569 578.9454195050009 761.67813 578.94127 L 776.4379 578.94127 C 780.0260306871431 578.9454195050008 782.9337504949991 581.8531393128569 782.9379 585.44127 L 782.9379 708.45592 C 782.9337504949991 712.0440506871431 780.0260306871431 714.9517704949992 776.4379 714.95592 Z" stroke-linecap="round" />
</g>
<g transform="matrix(1 0 0 1 692.81 804.16)"  >
<rect style="stroke: none; stroke-width: 1; stroke-dasharray: none; stroke-linecap: butt; stroke-dashoffset: 0; stroke-linejoin: miter; stroke-miterlimit: 4; fill: rgb(63,61,86); fill-rule: nonzero; opacity: 1;" vector-effect="non-scaling-stroke"  x="-162.015" y="-1.12" rx="0" ry="0" width="324.03" height="2.24" />
</g>
<g transform="matrix(1 0 0 1 688.09 468.96)"  >
<circle style="stroke: none; stroke-width: 1; stroke-dasharray: none; stroke-linecap: butt; stroke-dashoffset: 0; stroke-linejoin: miter; stroke-miterlimit: 4; fill: rgb(0,112,243); fill-rule: nonzero; opacity: 1;" vector-effect="non-scaling-stroke"  cx="0" cy="0" r="53.51916" />
</g>
<g transform="matrix(1 0 0 1 703.26 645.48)"  >
<path style="stroke: none; stroke-width: 1; stroke-dasharray: none; stroke-linecap: butt; stroke-dashoffset: 0; stroke-linejoin: miter; stroke-miterlimit: 4; fill: rgb(47,46,65); fill-rule: nonzero; opacity: 1;" vector-effect="non-scaling-stroke"  transform=" translate(-763.26, -555.49)" d="M 830.94449 651.87926 L 799.95041 514.23375 L 799.95041 481.71227 C 799.9502995483357 477.2940377527397 796.3686422472603 473.7123804516643 791.95041 473.71227 L 762.25992 473.71227 L 762.25992 452.79918 C 762.2599491745385 450.67743913758517 761.4171038203787 448.6425908833732 759.9168064685027 447.1422935314973 C 758.4165091166268 445.64199617962134 756.3816608624147 444.79915082546137 754.25992 444.79918 L 738.25992 444.79918 C 736.138178324513 444.79914817315876 734.1033285292531 445.64199267558956 732.6030306024213 447.1422906024213 C 731.1027326755896 448.64258852925303 730.2598881731587 450.677438324513 730.25992 452.79918 L 730.25992 473.71227 L 700.56943 473.71227 C 696.1511977527398 473.7123804516643 692.5695404516644 477.2940377527397 692.56943 481.71227 L 692.56943 652.79918 C 692.5697285681046 653.8250516150822 692.7681237846342 654.8412137890098 693.15372 655.7918599999999 C 693.8980311453018 659.3079326331818 696.9392773090156 661.8665992101481 700.53085 661.9984 L 825.95535 666.18 C 833.4512 666.37682 836.85245 656.62779 830.94449 651.87926 Z" stroke-linecap="round" />
</g>
<g transform="matrix(1 0 0 1 681.73 472.42)"  >
<path style="stroke: none; stroke-width: 1; stroke-dasharray: none; stroke-linecap: butt; stroke-dashoffset: 0; stroke-linejoin: miter; stroke-miterlimit: 4; fill: rgb(47,46,65); fill-rule: nonzero; opacity: 1;" vector-effect="non-scaling-stroke"  transform=" translate(-741.73, -382.44)" d="M 748.60294 399.4608 C 745.29727 399.36803000000003 741.18301 399.2528 738.01407 396.93736 C 736.1039699490317 395.4851847618131 734.9327434985503 393.26353997879283 734.81387 390.86705 C 734.6970993569778 389.160229725122 735.3854255841493 387.49704323318076 736.67422 386.37193 C 738.33145 384.9735 740.7504 384.64635000000004 743.35196 385.411 L 740.65274 365.68443 L 742.63516 365.41295 L 745.80704 388.60338 L 744.15274 387.84459000000004 C 742.23379 386.96373000000006 739.60098 386.51647 737.96524 387.89928000000003 C 737.1503815514318 388.6321927750937 736.7242182367042 389.703381415462 736.8129 390.79576000000003 C 736.9109117360068 392.5788811145312 737.779976039224 394.23110198856557 739.19376 395.32213 C 741.66055 397.12389 744.93985 397.35729000000003 748.65958 397.4608 Z" stroke-linecap="round" />
</g>
<g transform="matrix(1 0 0 1 665.47 458.38)"  >
<rect style="stroke: none; stroke-width: 1; stroke-dasharray: none; stroke-linecap: butt; stroke-dashoffset: 0; stroke-linejoin: miter; stroke-miterlimit: 4; fill: rgb(47,46,65); fill-rule: nonzero; opacity: 1;" vector-effect="non-scaling-stroke"  x="-5.385" y="-1" rx="0" ry="0" width="10.77" height="2" />
</g>
<g transform="matrix(1 0 0 1 699.47 458.38)"  >
<rect style="stroke: none; stroke-width: 1; stroke-dasharray: none; stroke-linecap: butt; stroke-dashoffset: 0; stroke-linejoin: miter; stroke-miterlimit: 4; fill: rgb(47,46,65); fill-rule: nonzero; opacity: 1;" vector-effect="non-scaling-stroke"  x="-5.385" y="-1" rx="0" ry="0" width="10.77" height="2" />
</g>
<g transform="matrix(1 0 0 1 716.58 654.16)"  >
<path style="stroke: none; stroke-width: 1; stroke-dasharray: none; stroke-linecap: butt; stroke-dashoffset: 0; stroke-linejoin: miter; stroke-miterlimit: 4; fill: rgb(0,112,243); fill-rule: nonzero; opacity: 1;" vector-effect="non-scaling-stroke"  transform=" translate(-776.58, -564.17)" d="M 783.96036 613.29869 L 769.20059 613.29869 C 765.6124593128569 613.2945404949991 762.7047395050008 610.3868206871431 762.70059 606.79869 L 762.70059 521.54381 C 762.7047395050008 517.9556793128569 765.6124593128569 515.0479595050009 769.20059 515.04381 L 783.96036 515.04381 C 787.5484906871432 515.0479595050008 790.4562104949991 517.9556793128569 790.46036 521.54381 L 790.46036 606.79869 C 790.4562104949991 610.3868206871431 787.5484906871432 613.2945404949992 783.96036 613.29869 Z" stroke-linecap="round" />
</g>
<g transform="matrix(1 0 0 1 695.27 431.68)"  >
<path style="stroke: none; stroke-width: 1; stroke-dasharray: none; stroke-linecap: butt; stroke-dashoffset: 0; stroke-linejoin: miter; stroke-miterlimit: 4; fill: rgb(47,46,65); fill-rule: nonzero; opacity: 1;" vector-effect="non-scaling-stroke"  transform=" translate(-755.27, -341.68)" d="M 726.9884 332.61173 C 727.6591630838515 337.40585272813775 730.9898195888424 341.4052322838514 735.5834200732402 342.93244230112 C 740.1770205576379 344.4596523183885 745.2392888351719 343.2506240014448 748.6469999999999 339.81245 L 746.13992 339.15055 C 748.989734523674 346.4409467093084 755.6240943587768 351.5684448200654 763.3974494952706 352.4883779265377 C 771.1708046317643 353.40831103300997 778.8187564470832 349.9710446296008 783.29157 343.54724 C 784.42116 341.97783 781.82004 340.47854 780.70116 342.03308 C 776.847689580324 347.4279972416064 770.3666449995408 350.3023245516125 763.7811502940284 349.53706263385584 C 757.1956555885159 348.77180071609916 751.5464286287553 344.4878853224134 749.0327599999999 338.35308 C 748.8798930472167 337.84698028992153 748.4753637528673 337.4564506447671 747.9641959901376 337.32149605929277 C 747.4530282274077 337.1865414738185 746.9084451673106 337.3264937670703 746.52568 337.69118 C 743.8691268842431 340.3758673317582 739.9018820398359 341.2864692528442 736.3404829472978 340.0289888236487 C 732.7790838547597 338.77150839445324 730.2631385913696 335.5717823208985 729.8812399999999 331.81426 C 729.6135599999999 329.91041 726.7224899999999 330.72048 726.9884 332.61178 Z" stroke-linecap="round" />
</g>
<g transform="matrix(1 0 0 1 568.21 660.25)"  >
<path style="stroke: none; stroke-width: 1; stroke-dasharray: none; stroke-linecap: butt; stroke-dashoffset: 0; stroke-linejoin: miter; stroke-miterlimit: 4; fill: rgb(63,61,86); fill-rule: nonzero; opacity: 1;" vector-effect="non-scaling-stroke"  transform=" translate(-628.2, -570.25)" d="M 632.42429 545.597 L 632.11148 545.80907 L 626.30382 537.24231 C 625.4123712053159 535.9273424007204 624.0350630365296 535.0203611394564 622.4748900356323 534.7208933649462 C 620.914717034735 534.421425590436 619.2994816064288 534.7540023653828 617.98452 535.64546 L 617.98452 535.64546 L 599.83461 547.9498199999999 C 598.5196424007204 548.841268794684 597.6126611394565 550.2185769634704 597.3131933649462 551.7787499643676 C 597.013725590436 553.3389229652649 597.3463023653828 554.9541583935711 598.23776 556.2691199999999 L 630.0991 603.26712 C 630.9905486762434 604.5820847723728 632.3678549355512 605.4890640710252 633.9280255065894 605.7885317391028 C 635.4881960776275 606.0879994071805 637.1034291535138 605.755424467242 638.41839 604.86397 L 638.41839 604.86397 L 656.5682300000001 592.55967 C 657.8831975992797 591.668221205316 658.7901788605436 590.2909130365296 659.0896466350539 588.7307400356323 C 659.3891144095641 587.170567034735 659.0565376346173 585.5553316064288 658.1650800000001 584.24037 L 658.1650800000001 584.24037 L 636.2453900000002 551.9070899999999 L 636.5582000000002 551.6950199999999 Z" stroke-linecap="round" />
</g>
<g transform="matrix(1 0 0 1 568.36 660.14)"  >
<path style="stroke: none; stroke-width: 1; stroke-dasharray: none; stroke-linecap: butt; stroke-dashoffset: 0; stroke-linejoin: miter; stroke-miterlimit: 4; fill: rgb(255,255,255); fill-rule: nonzero; opacity: 1;" vector-effect="non-scaling-stroke"  transform=" translate(-628.36, -570.15)" d="M 619.35741 537.87 L 617.0642899999999 539.42457 C 617.6345030281091 539.8043802279856 617.9782025943568 540.4431481033705 617.9809933892958 541.1282692008208 C 617.9837841842348 541.8133902982711 617.6452998937483 542.4549370039416 617.0781999999999 542.83938 L 607.0141299999999 549.66211 C 606.447076166784 550.0464629338388 605.7258993554636 550.1233226354592 605.090577355365 549.8671133778083 C 604.4552553552663 549.6109041201574 603.9891568021102 549.0552463606821 603.8473799999999 548.38504 L 601.7052699999999 549.83724 C 600.7547545172712 550.4816199482796 600.099148985961 551.4771989356982 599.8826794382801 552.6049604954167 C 599.6662098905992 553.7327220551351 599.9066084255742 554.9002856196814 600.55099 555.8507999999999 L 600.55099 555.8507999999999 L 631.3443 601.2733699999999 C 631.9886780908006 602.2238848170499 632.9842553284742 602.8794901391636 634.1120152568217 603.0959597336782 C 635.239775185169 603.3124293281927 636.4073371948787 603.0720310585637 637.35785 602.4276499999999 L 637.35785 602.4276499999999 L 655.00947 590.4610899999999 C 656.9888099813214 589.1192385764518 657.5055984608027 586.4268819898482 656.1637499999999 584.4475399999999 L 656.1637499999999 584.4475399999999 L 625.37029 539.0247399999998 C 624.7259084938376 538.0742261314272 623.7303287827237 537.4186226323866 622.602567329437 537.202154980499 C 621.4748058761502 536.9856873286113 620.3072431629013 537.2260874529172 619.35673 537.8704699999998 L 619.35673 537.8704699999998 Z" stroke-linecap="round" />
</g>
<g transform="matrix(0 0 0 0 0 0)"  >
<g style=""   >
</g>
</g>
<g transform="matrix(0 0 0 0 0 0)"  >
<g style=""   >
</g>
</g>
<g transform="matrix(0 0 0 0 0 0)"  >
<g style=""   >
</g>
</g>
<g transform="matrix(0 0 0 0 0 0)"  >
<g style=""   >
</g>
</g>
<g transform="matrix(0 0 0 0 0 0)"  >
<g style=""   >
</g>
</g>
<g transform="matrix(0 0 0 0 0 0)"  >
<g style=""   >
</g>
</g>
<g transform="matrix(0 0 0 0 0 0)"  >
<g style=""   >
</g>
</g>
<g transform="matrix(NaN NaN NaN NaN 0 0)"  >
<g style=""   >
</g>
</g>
</svg>